<svg width="95" height="95" viewBox="0 0 95 95" fill="none" xmlns="http://www.w3.org/2000/svg">
<path d="M47.374 94.5C73.3314 94.5 94.374 73.4574 94.374 47.5C94.374 21.5426 73.3314 0.5 47.374 0.5C21.4166 0.5 0.374023 21.5426 0.374023 47.5C0.374023 73.4574 21.4166 94.5 47.374 94.5Z" fill="#20C8CC"/>
<path d="M47.374 0.5C73.2899 0.5 94.374 21.5841 94.374 47.5C94.374 73.4159 73.2899 94.5 47.374 94.5V0.5Z" fill="#20C8CC"/>
<path d="M47.3738 82.701C66.8148 82.701 82.5748 66.941 82.5748 47.5001C82.5748 28.0591 66.8148 12.2991 47.3738 12.2991C27.9329 12.2991 12.1729 28.0591 12.1729 47.5001C12.1729 66.941 27.9329 82.701 47.3738 82.701Z" fill="#20C8CC"/>
<path d="M47.374 12.2991C66.7839 12.2991 82.575 28.0902 82.575 47.5001C82.575 66.91 66.7839 82.701 47.374 82.701V12.2991Z" fill="#20C8CC"/>
<path d="M45.0827 23.8494L30.3341 45.9724C30.0325 46.4248 29.8716 46.9563 29.8716 47.5C29.8716 48.0437 30.0325 48.5752 30.3341 49.0276L45.0827 71.1506C46.1727 72.7857 48.5754 72.7857 49.6656 71.1506L64.4142 49.0276C64.7158 48.5752 64.8768 48.0437 64.8768 47.5C64.8768 46.9563 64.7158 46.4248 64.4142 45.9724L49.6656 23.8494C48.5754 22.2143 46.1729 22.2143 45.0827 23.8494Z" fill="#E84F54"/>
<path d="M47.374 51.057V72.3768C48.2472 72.3768 49.1204 71.9681 49.6655 71.1506L64.4141 49.0275C64.6942 48.6068 64.8529 48.1169 64.8725 47.6118L47.914 51.0035C47.7359 51.0391 47.5549 51.057 47.374 51.057Z" fill="#F6863C"/>
<path d="M47.374 22.623C46.5008 22.623 45.6276 23.0317 45.0826 23.8493L30.3339 45.9723C30.0115 46.4566 29.851 47.0307 29.8755 47.612L46.8339 51.0037C47.0117 51.0392 47.1926 51.0571 47.374 51.0571V22.623Z" fill="#DF8335"/>
</svg>
