<svg width="79" height="73" viewBox="0 0 79 73" fill="none" xmlns="http://www.w3.org/2000/svg">
<path d="M0.374023 66.1356C0.374023 67.8145 1.04097 69.4247 2.22813 70.6118C3.41529 71.799 5.02543 72.4659 6.70434 72.4659H72.3771C74.056 72.4659 75.6661 71.799 76.8533 70.6118C78.0404 69.4247 78.7074 67.8145 78.7074 66.1356V19.5909H0.374023V66.1356Z" fill="#24BFCC"/>
<path d="M50.3115 72.466H6.70434C5.02543 72.466 3.41529 71.799 2.22813 70.6119C1.04097 69.4247 0.374023 67.8146 0.374023 66.1357V7.84098C0.374023 6.80222 0.786671 5.806 1.52119 5.07148C2.25571 4.33696 3.25193 3.92432 4.29069 3.92432H74.7907C75.8295 3.92432 76.8257 4.33696 77.5602 5.07148C78.2947 5.806 78.7074 6.80222 78.7074 7.84098V47.0076C78.7074 62.9093 67.9365 68.5493 50.3115 72.466Z" fill="#24BFCC"/>
<path d="M46.7836 72.466H6.70434C5.02543 72.466 3.41529 71.799 2.22813 70.6119C1.04097 69.4247 0.374023 67.8146 0.374023 66.1357V7.84098C0.374023 6.80222 0.786671 5.806 1.52119 5.07148C2.25571 4.33696 3.25193 3.92432 4.29069 3.92432H74.7907C75.8295 3.92432 76.8257 4.33696 77.5602 5.07148C78.2947 5.806 78.7074 6.80222 78.7074 7.84098V47.0076C78.7074 51.8761 73.648 51.6156 71.1962 51.2034C70.835 51.1406 70.4633 51.2053 70.1447 51.3865C69.826 51.5676 69.5802 51.8539 69.4493 52.1963C67.9904 55.9974 62.7195 67.295 50.1989 71.8589C49.1046 72.259 47.9487 72.4644 46.7836 72.466Z" fill="url(#paint0_linear_17_29663)"/>
<path d="M74.7907 3.92432H4.29069C3.25193 3.92432 2.25571 4.33696 1.52119 5.07148C0.786671 5.806 0.374023 6.80222 0.374023 7.84098V19.591H78.7074V7.84098C78.7074 6.80222 78.2947 5.806 77.5602 5.07148C76.8257 4.33696 75.8295 3.92432 74.7907 3.92432Z" fill="#24BFCC"/>
<path d="M65.9782 14.5306C68.1413 14.5306 69.8949 12.777 69.8949 10.6139C69.8949 8.45082 68.1413 6.69727 65.9782 6.69727C63.8151 6.69727 62.0615 8.45082 62.0615 10.6139C62.0615 12.777 63.8151 14.5306 65.9782 14.5306Z" fill="#24BFCC"/>
<path d="M68.3819 1.76619V10.8666C68.3253 11.3818 68.0691 11.8544 67.6683 12.1831C67.2675 12.5118 66.7539 12.6705 66.2376 12.6251H65.7186C65.2022 12.6705 64.6886 12.5118 64.2878 12.1831C63.887 11.8544 63.6309 11.3818 63.5742 10.8666V1.76619C63.6309 1.25093 63.887 0.778343 64.2878 0.449641C64.6886 0.120939 65.2022 -0.0377351 65.7186 0.00760438H66.2376C66.7539 -0.0377351 67.2675 0.120939 67.6683 0.449641C68.0691 0.778343 68.3253 1.25093 68.3819 1.76619Z" fill="#24BFCC"/>
<path d="M48.3532 14.5306C50.5163 14.5306 52.2699 12.777 52.2699 10.6139C52.2699 8.45082 50.5163 6.69727 48.3532 6.69727C46.1901 6.69727 44.4365 8.45082 44.4365 10.6139C44.4365 12.777 46.1901 14.5306 48.3532 14.5306Z" fill="#24BFCC"/>
<path d="M50.7569 1.76619V10.8666C50.7003 11.3818 50.4441 11.8544 50.0433 12.1831C49.6425 12.5118 49.1289 12.6705 48.6126 12.6251H48.0936C47.5772 12.6705 47.0636 12.5118 46.6628 12.1831C46.262 11.8544 46.0059 11.3818 45.9492 10.8666V1.76619C46.0059 1.25093 46.262 0.778343 46.6628 0.449641C47.0636 0.120939 47.5772 -0.0377351 48.0936 0.00760438H48.6126C49.1289 -0.0377351 49.6425 0.120939 50.0433 0.449641C50.4441 0.778343 50.7003 1.25093 50.7569 1.76619Z" fill="#24BFCC"/>
<path d="M30.7282 14.5306C32.8913 14.5306 34.6449 12.777 34.6449 10.6139C34.6449 8.45082 32.8913 6.69727 30.7282 6.69727C28.5651 6.69727 26.8115 8.45082 26.8115 10.6139C26.8115 12.777 28.5651 14.5306 30.7282 14.5306Z" fill="#24BFCC"/>
<path d="M33.1319 1.76619V10.8666C33.0753 11.3818 32.8191 11.8544 32.4183 12.1831C32.0175 12.5118 31.5039 12.6705 30.9876 12.6251H30.4686C29.9522 12.6705 29.4386 12.5118 29.0378 12.1831C28.637 11.8544 28.3809 11.3818 28.3242 10.8666V1.76619C28.3809 1.25093 28.637 0.778343 29.0378 0.449641C29.4386 0.120939 29.9522 -0.0377351 30.4686 0.00760438H30.9876C31.5039 -0.0377351 32.0175 0.120939 32.4183 0.449641C32.8191 0.778343 33.0753 1.25093 33.1319 1.76619Z" fill="#24BFCC"/>
<path d="M13.1032 14.5306C15.2663 14.5306 17.0199 12.777 17.0199 10.6139C17.0199 8.45082 15.2663 6.69727 13.1032 6.69727C10.9401 6.69727 9.18652 8.45082 9.18652 10.6139C9.18652 12.777 10.9401 14.5306 13.1032 14.5306Z" fill="#24BFCC"/>
<path d="M15.5069 1.76619V10.8666C15.4503 11.3818 15.1941 11.8544 14.7933 12.1831C14.3925 12.5118 13.8789 12.6705 13.3626 12.6251H12.8436C12.3272 12.6705 11.8136 12.5118 11.4128 12.1831C11.012 11.8544 10.7559 11.3818 10.6992 10.8666V1.76619C10.7559 1.25093 11.012 0.778343 11.4128 0.449641C11.8136 0.120939 12.3272 -0.0377351 12.8436 0.00760438H13.3626C13.8789 -0.0377351 14.3925 0.120939 14.7933 0.449641C15.1941 0.778343 15.4503 1.25093 15.5069 1.76619Z" fill="#24BFCC"/>
<path d="M39.5407 23.7817C37.0032 23.7827 34.5229 24.536 32.4135 25.9464C30.304 27.3567 28.6601 29.3609 27.6895 31.7054C26.7189 34.0499 26.4651 36.6296 26.9604 39.1183C27.4557 41.607 28.6777 43.893 30.472 45.6873C32.2663 47.4816 34.5523 48.7036 37.041 49.1989C39.5297 49.6942 42.1094 49.4405 44.4539 48.4699C46.7985 47.4992 48.8026 45.8553 50.213 43.7458C51.6233 41.6364 52.3766 39.1561 52.3776 36.6186C52.3776 34.9329 52.0455 33.2636 51.4004 31.7062C50.7553 30.1487 49.8098 28.7336 48.6178 27.5416C47.4257 26.3496 46.0106 25.404 44.4532 24.7589C42.8957 24.1138 41.2265 23.7817 39.5407 23.7817ZM39.5407 45.5094C37.7823 45.5094 36.0633 44.988 34.6012 44.0111C33.1391 43.0341 31.9996 41.6456 31.3267 40.021C30.6537 38.3964 30.4777 36.6088 30.8207 34.8841C31.1638 33.1594 32.0105 31.5753 33.2539 30.3318C34.4973 29.0884 36.0815 28.2417 37.8062 27.8986C39.5308 27.5556 41.3185 27.7316 42.9431 28.4046C44.5677 29.0775 45.9562 30.217 46.9332 31.6791C47.9101 33.1412 48.4315 34.8602 48.4315 36.6186C48.4266 38.9751 47.4883 41.2337 45.8221 42.9C44.1558 44.5662 41.8972 45.5045 39.5407 45.5094Z" fill="#24BFCC"/>
<path d="M43.3477 38.0649C43.2634 38.1434 43.1999 38.2415 43.1628 38.3505C43.1258 38.4595 43.1163 38.576 43.1352 38.6896L43.6727 41.7602C43.6958 41.8919 43.6817 42.0274 43.6319 42.1515C43.5821 42.2755 43.4987 42.3832 43.391 42.4624C43.2833 42.5416 43.1556 42.5891 43.0224 42.5997C42.8891 42.6102 42.7556 42.5833 42.6368 42.522L39.8775 41.0611C39.772 41.0119 39.657 40.9864 39.5407 40.9864C39.4243 40.9864 39.3093 41.0119 39.2038 41.0611L36.4445 42.522C36.3257 42.5833 36.1922 42.6102 36.0589 42.5997C35.9257 42.5891 35.798 42.5416 35.6903 42.4624C35.5826 42.3832 35.4992 42.2755 35.4494 42.1515C35.3996 42.0274 35.3855 41.8919 35.4086 41.7602L35.9461 38.6896C35.9651 38.576 35.9556 38.4595 35.9185 38.3505C35.8814 38.2415 35.8179 38.1434 35.7337 38.0649L33.4992 35.8813C33.4034 35.7888 33.3356 35.6711 33.3036 35.5418C33.2717 35.4125 33.2769 35.2768 33.3186 35.1503C33.3603 35.0238 33.4369 34.9116 33.5395 34.8267C33.6421 34.7417 33.7666 34.6875 33.8987 34.6701L36.9821 34.2207C37.0974 34.203 37.2065 34.1573 37.3001 34.0877C37.3936 34.018 37.4687 33.9265 37.5187 33.8212L38.9042 31.0374C38.9615 30.9171 39.0517 30.8156 39.1643 30.7445C39.277 30.6734 39.4074 30.6356 39.5407 30.6356C39.6739 30.6356 39.8043 30.6734 39.917 30.7445C40.0296 30.8156 40.1198 30.9171 40.1771 31.0374L41.5626 33.8212C41.6126 33.9265 41.6877 34.018 41.7812 34.0877C41.8748 34.1573 41.9839 34.203 42.0992 34.2207L45.1826 34.6701C45.3145 34.6876 45.4388 34.7419 45.5412 34.8268C45.6436 34.9116 45.7201 35.0237 45.7618 35.15C45.8035 35.2763 45.8087 35.4118 45.777 35.541C45.7452 35.6702 45.6777 35.7878 45.5821 35.8804L43.3477 38.0649Z" fill="#24BFCC"/>
<path d="M48.4276 47.2817V66.2952C48.4276 66.676 48.3176 67.0487 48.1109 67.3686C47.9041 67.6884 47.6095 67.9418 47.2622 68.0982C46.915 68.2546 46.53 68.3075 46.1535 68.2505C45.777 68.1935 45.4249 68.0289 45.1396 67.7767L40.8538 63.9648C40.4932 63.6407 40.0255 63.4614 39.5407 63.4614C39.0559 63.4614 38.5882 63.6407 38.2277 63.9648L33.9419 67.7767C33.6565 68.0289 33.3045 68.1935 32.9279 68.2505C32.5514 68.3075 32.1664 68.2546 31.8192 68.0982C31.472 67.9418 31.1773 67.6884 30.9706 67.3686C30.7639 67.0487 30.6539 66.676 30.6538 66.2952V47.2808C33.0407 49.5805 36.2262 50.8654 39.5407 50.8654C42.8553 50.8654 46.0407 49.5815 48.4276 47.2817Z" fill="#24BFCC"/>
<defs>
<linearGradient id="paint0_linear_17_29663" x1="0.374023" y1="38.1951" x2="78.7074" y2="38.1951" gradientUnits="userSpaceOnUse">
<stop stop-color="#F1F2F2"/>
<stop offset="0.511" stop-color="#EFF0F0"/>
<stop offset="0.695" stop-color="#E8EAEA"/>
<stop offset="0.826" stop-color="#DDDEDF"/>
<stop offset="0.931" stop-color="#CCCDCF"/>
<stop offset="1" stop-color="#BCBEC0"/>
</linearGradient>
</defs>
</svg>
