<?xml version="1.0" encoding="UTF-8"?>
<svg id="Layer_2" data-name="Layer 2" xmlns="http://www.w3.org/2000/svg" xmlns:xlink="http://www.w3.org/1999/xlink" viewBox="0 0 160 160">
  <defs>
    <style>
      .cls-1 {
        fill: url(#linear-gradient-2);
      }

      .cls-2 {
        fill: #fff;
      }

      .cls-3 {
        fill: #f2c34e;
      }

      .cls-4 {
        fill: url(#linear-gradient-3);
      }

      .cls-5 {
        fill: url(#linear-gradient);
      }
    </style>
    <linearGradient id="linear-gradient" x1="16.55" y1="312.37" x2="143.45" y2="312.37" gradientTransform="translate(0 357.12) scale(1 -1)" gradientUnits="userSpaceOnUse">
      <stop offset="0" stop-color="#7f00ff"/>
      <stop offset="1" stop-color="#e100ff"/>
    </linearGradient>
    <linearGradient id="linear-gradient-2" x1="0" y1="220.17" x2="44.14" y2="220.17" xlink:href="#linear-gradient"/>
    <linearGradient id="linear-gradient-3" x1="82.76" y1="220.17" x2="126.9" y2="220.17" xlink:href="#linear-gradient"/>
  </defs>
  <g id="Layer_1-2" data-name="Layer 1">
    <g>
      <path class="cls-3" d="m73.21,146.13c-.46-1.59-1.29-3.06-2.42-4.29-1.13-1.23-2.53-2.19-4.09-2.8l-8.77-3.45,4.13-6.09c.91-1.34,1.39-2.91,1.39-4.51v-2.96c0-2.16-.87-4.23-2.42-5.75-1.55-1.53-3.66-2.38-5.85-2.38s-4.3.86-5.85,2.38c-1.55,1.53-2.42,3.6-2.42,5.75v2.96c0,1.61.48,3.18,1.39,4.51l4.13,6.09-8.77,3.45c-1.56.62-2.96,1.57-4.09,2.8-1.13,1.23-1.96,2.7-2.42,4.29l-4.03,13.87h44.14l-4.03-13.87Zm82.76,0c-.46-1.59-1.29-3.06-2.42-4.29-1.13-1.23-2.53-2.19-4.09-2.8l-8.77-3.45,4.13-6.09c.91-1.34,1.39-2.91,1.39-4.51v-2.96c0-2.16-.87-4.23-2.42-5.75-1.55-1.53-3.66-2.38-5.85-2.38s-4.3.86-5.85,2.38c-1.55,1.53-2.42,3.6-2.42,5.75v2.96c0,1.61.48,3.18,1.39,4.51l4.13,6.09-8.77,3.45c-1.57.62-2.96,1.57-4.09,2.8-1.13,1.23-1.96,2.7-2.42,4.29l-4.03,13.87h44.14l-4.03-13.87Z"/>
      <path class="cls-5" d="m98.04,32.23c-.46-1.59-1.29-3.06-2.42-4.29-1.13-1.23-2.53-2.19-4.09-2.8l-8.77-3.45,4.13-6.09c.91-1.34,1.39-2.91,1.39-4.51v-2.96c0-2.16-.87-4.23-2.42-5.75-1.55-1.53-3.66-2.38-5.85-2.38s-4.3.86-5.85,2.38c-1.55,1.53-2.42,3.6-2.42,5.75v2.96c0,1.61.48,3.18,1.39,4.51l4.13,6.09-8.77,3.45c-1.56.61-2.96,1.57-4.09,2.8-1.13,1.23-1.96,2.7-2.42,4.29l-4.03,13.87h44.14l-4.03-13.87Zm-47.89,36.3l-8.77-3.45,4.13-6.09c.91-1.34,1.39-2.91,1.39-4.51v-2.96c0-2.16-.87-4.23-2.42-5.75-1.55-1.53-3.66-2.38-5.85-2.38s-4.3.86-5.85,2.38c-1.55,1.53-2.42,3.59-2.42,5.75v2.96c0,1.61.48,3.18,1.39,4.51l4.13,6.09-8.77,3.45c-1.56.61-2.96,1.57-4.09,2.8-1.13,1.23-1.96,2.7-2.42,4.29l-4.03,13.87h44.14l-4.03-13.87c-.46-1.59-1.29-3.06-2.42-4.29-1.13-1.23-2.53-2.19-4.09-2.8h0Zm89.27,7.09c-.46-1.59-1.29-3.06-2.42-4.29-1.13-1.23-2.53-2.19-4.09-2.8l-8.77-3.45,4.13-6.09c.91-1.34,1.39-2.91,1.39-4.51v-2.96c0-2.16-.87-4.23-2.42-5.75s-3.66-2.38-5.85-2.38-4.3.86-5.85,2.38-2.42,3.59-2.42,5.75v2.96c0,1.61.48,3.18,1.39,4.51l4.13,6.09-8.77,3.45c-1.56.61-2.96,1.57-4.09,2.8-1.13,1.23-1.96,2.7-2.42,4.29l-4.03,13.87h44.14l-4.03-13.87Z"/>
      <path class="cls-2" d="m95.45,68.61l-15.45-20.25-15.45,20.25-2.21-1.63,16.55-21.69c.13-.17.3-.3.49-.4.19-.09.4-.14.62-.14s.43.05.62.14c.19.09.36.23.49.4l16.55,21.69-2.21,1.63Z"/>
      <path class="cls-1" d="m40.11,146.13c-.46-1.59-1.29-3.06-2.42-4.29-1.13-1.23-2.53-2.19-4.09-2.8l-8.77-3.45,4.13-6.09c.91-1.34,1.39-2.91,1.39-4.51v-2.96c0-2.16-.87-4.23-2.42-5.75-1.55-1.53-3.66-2.38-5.85-2.38s-4.3.86-5.85,2.38c-1.55,1.53-2.42,3.6-2.42,5.75v2.96c0,1.61.48,3.18,1.39,4.51l4.13,6.09-8.77,3.45c-1.56.62-2.96,1.57-4.09,2.8-1.13,1.23-1.96,2.7-2.42,4.29l-4.03,13.87h44.14l-4.03-13.87Z"/>
      <path class="cls-2" d="m136.83,106.58l-15.45-20.25-15.45,20.25-2.21-1.63,16.55-21.69c.13-.17.29-.3.49-.4.19-.09.4-.14.62-.14s.43.05.62.14c.19.09.36.23.49.4l16.55,21.69-2.21,1.63Zm-82.76,0l-15.45-20.25-15.45,20.25-2.21-1.63,16.55-21.69c.13-.17.3-.3.49-.4s.4-.14.62-.14.43.05.62.14c.19.09.36.23.49.4l16.55,21.69-2.21,1.63Z"/>
      <path class="cls-4" d="m122.87,146.13c-.46-1.59-1.29-3.06-2.42-4.29-1.13-1.23-2.53-2.19-4.09-2.8l-8.77-3.45,4.13-6.09c.91-1.34,1.39-2.91,1.39-4.51v-2.96c0-2.16-.87-4.23-2.42-5.75-1.55-1.53-3.66-2.38-5.85-2.38s-4.3.86-5.85,2.38c-1.55,1.53-2.42,3.6-2.42,5.75v2.96c0,1.61.48,3.18,1.39,4.51l4.13,6.09-8.77,3.45c-1.56.62-2.96,1.57-4.09,2.8-1.13,1.23-1.96,2.7-2.42,4.29l-4.03,13.87h44.14l-4.03-13.87Z"/>
    </g>
  </g>
</svg>