<svg width="160" height="160" viewBox="0 0 160 160" fill="none" xmlns="http://www.w3.org/2000/svg">
<path d="M90 7.5H70V132.5H90C124.518 132.5 152.5 104.518 152.5 70C152.5 35.4822 124.518 7.5 90 7.5Z" fill="url(#paint0_linear_17_29722)"/>
<path d="M70 132.5C104.518 132.5 132.5 104.518 132.5 70C132.5 35.4822 104.518 7.5 70 7.5C35.4822 7.5 7.5 35.4822 7.5 70C7.5 104.518 35.4822 132.5 70 132.5Z" fill="url(#paint1_linear_17_29722)"/>
<path d="M70 105C89.33 105 105 89.33 105 70C105 50.67 89.33 35 70 35C50.67 35 35 50.67 35 70C35 89.33 50.67 105 70 105Z" fill="#EAB84B"/>
<path d="M142.612 103.75H120V106.25H140.918C141.502 105.431 142.067 104.598 142.612 103.75ZM100 118.75V121.25H125.775C126.915 120.453 128.026 119.62 129.108 118.75H100Z" fill="url(#paint2_linear_17_29722)"/>
<path d="M124.707 92.5H84.9335C81.2605 92.4999 77.6806 93.6556 74.7009 95.8032C71.7212 97.9508 69.4928 100.981 68.3313 104.466L57.7894 136.092C57.1648 137.966 56.9943 139.961 57.2922 141.914C57.5901 143.867 58.3477 145.721 59.5027 147.323C60.6576 148.925 62.1769 150.23 63.9351 151.131C65.6934 152.031 67.6404 152.5 69.6157 152.5C71.9307 152.5 74.2001 151.855 76.1695 150.638C78.1388 149.421 79.7303 147.68 80.7657 145.609L83.1119 140.916C85.1277 136.885 88.2262 133.494 92.0604 131.125C95.8945 128.755 100.313 127.5 104.82 127.5C109.327 127.5 113.746 128.755 117.58 131.125C121.414 133.494 124.512 136.885 126.528 140.916L128.875 145.609C129.91 147.68 131.502 149.421 133.471 150.638C135.44 151.855 137.71 152.5 140.025 152.5C142 152.5 143.947 152.031 145.705 151.13C147.463 150.23 148.983 148.925 150.137 147.323C151.292 145.72 152.05 143.867 152.348 141.914C152.646 139.961 152.475 137.966 151.851 136.092L141.309 104.466C140.147 100.982 137.919 97.9508 134.939 95.8033C131.96 93.6557 128.38 92.5 124.707 92.5Z" fill="#F2C34E"/>
<path d="M27.7851 103.275C20.2738 93.8144 16.2057 82.0795 16.2501 70C16.2501 40.3625 40.3626 16.25 70.0001 16.25C95.7186 16.25 117.914 34.55 122.776 59.7631L120.321 60.2369C115.686 36.1978 94.5226 18.75 70.0001 18.75C41.7407 18.75 18.7501 41.7406 18.7501 70C18.7077 81.5169 22.586 92.7054 29.7473 101.725L27.7851 103.275Z" fill="url(#paint3_linear_17_29722)"/>
<path d="M95 111.25H86.25V102.5H83.75V111.25H75V113.75H83.75V122.5H86.25V113.75H95V111.25Z" fill="#F4F4F4"/>
<path d="M122.5 103.75H127.5V106.25H122.5V103.75ZM115 111.25H120V113.75H115V111.25ZM130 111.25H135V113.75H130V111.25ZM122.5 118.75H127.5V121.25H122.5V118.75Z" fill="#CC993E"/>
<path d="M95 60.2922H75.5562L70.0006 42.5H69.9994L64.4438 60.2922H45L60.4619 73.2922L54.3162 92.5L70 80.6697L85.6837 92.5L79.5381 73.2922L95 60.2922Z" fill="url(#paint4_linear_17_29722)"/>
<path d="M130 71.25H152.484C152.493 70.8341 152.5 70.4178 152.5 70C152.5 69.5822 152.493 69.1659 152.484 68.75H130V71.25ZM150.362 86.25H127.5V88.75H149.637C149.896 87.9244 150.138 87.091 150.362 86.25ZM149.637 51.25H127.5V53.75H150.362C150.136 52.9098 149.894 52.0765 149.637 51.25ZM140.918 33.75H117.5V36.25H142.612C142.067 35.4023 141.503 34.569 140.918 33.75ZM125.775 18.75H105V21.25H129.108C128.026 20.3808 126.915 19.5475 125.775 18.75Z" fill="url(#paint5_linear_17_29722)"/>
<defs>
<linearGradient id="paint0_linear_17_29722" x1="70" y1="70" x2="152.5" y2="70" gradientUnits="userSpaceOnUse">
<stop stop-color="#7F00FF"/>
<stop offset="1" stop-color="#E100FF"/>
</linearGradient>
<linearGradient id="paint1_linear_17_29722" x1="7.5" y1="70" x2="132.5" y2="70" gradientUnits="userSpaceOnUse">
<stop stop-color="#7F00FF"/>
<stop offset="1" stop-color="#E100FF"/>
</linearGradient>
<linearGradient id="paint2_linear_17_29722" x1="100" y1="112.5" x2="142.612" y2="112.5" gradientUnits="userSpaceOnUse">
<stop stop-color="#7F00FF"/>
<stop offset="1" stop-color="#E100FF"/>
</linearGradient>
<linearGradient id="paint3_linear_17_29722" x1="16.2498" y1="59.7623" x2="122.776" y2="59.7623" gradientUnits="userSpaceOnUse">
<stop stop-color="#7F00FF"/>
<stop offset="1" stop-color="#E100FF"/>
</linearGradient>
<linearGradient id="paint4_linear_17_29722" x1="45" y1="67.5" x2="95" y2="67.5" gradientUnits="userSpaceOnUse">
<stop stop-color="#7F00FF"/>
<stop offset="1" stop-color="#E100FF"/>
</linearGradient>
<linearGradient id="paint5_linear_17_29722" x1="105" y1="53.75" x2="152.5" y2="53.75" gradientUnits="userSpaceOnUse">
<stop stop-color="#7F00FF"/>
<stop offset="1" stop-color="#E100FF"/>
</linearGradient>
</defs>
</svg>
