<svg width="160" height="160" viewBox="0 0 160 160" fill="none" xmlns="http://www.w3.org/2000/svg">
<g clip-path="url(#clip0_17_29715)">
<path d="M158.02 156.36H140.786V76.713C140.786 76.495 140.743 76.2791 140.66 76.0777C140.577 75.8762 140.454 75.6932 140.3 75.539C140.146 75.3849 139.963 75.2626 139.762 75.1792C139.56 75.0958 139.344 75.0529 139.126 75.053H123.432C123.214 75.0529 122.998 75.0958 122.797 75.1792C122.596 75.2626 122.413 75.3849 122.258 75.539C122.104 75.6932 121.982 75.8762 121.899 76.0777C121.815 76.2791 121.772 76.495 121.772 76.713V156.36H106.601V110.823C106.601 110.605 106.558 110.389 106.474 110.188C106.391 109.987 106.269 109.804 106.115 109.649C105.96 109.495 105.777 109.373 105.576 109.29C105.374 109.206 105.159 109.163 104.941 109.163H89.2452C89.0272 109.163 88.8113 109.206 88.6099 109.29C88.4084 109.373 88.2254 109.495 88.0712 109.649C87.9171 109.804 87.7948 109.987 87.7114 110.188C87.628 110.389 87.5851 110.605 87.5852 110.823V156.36H72.4143V99.6799C72.4143 99.4619 72.3713 99.246 72.2879 99.0446C72.2045 98.8432 72.0822 98.6602 71.9281 98.5061C71.7739 98.352 71.5909 98.2297 71.3895 98.1463C71.1881 98.0628 70.9723 98.0199 70.7543 98.0199H55.0593C54.8413 98.0199 54.6254 98.0628 54.424 98.1463C54.2226 98.2297 54.0396 98.352 53.8855 98.5061C53.7313 98.6602 53.6091 98.8432 53.5256 99.0446C53.4422 99.246 53.3993 99.4619 53.3993 99.6799V156.36H38.2274V120.017C38.2274 119.799 38.1845 119.583 38.101 119.382C38.0176 119.18 37.8953 118.997 37.7412 118.843C37.587 118.689 37.404 118.567 37.2026 118.483C37.0012 118.4 36.7854 118.357 36.5674 118.357H20.8727C20.6547 118.357 20.4389 118.4 20.2375 118.483C20.0361 118.567 19.8531 118.689 19.6989 118.843C19.5448 118.997 19.4225 119.18 19.3391 119.382C19.2556 119.583 19.2127 119.799 19.2127 120.017V156.36H3.63989V1.97989C3.63391 1.54354 3.45636 1.12708 3.14567 0.820626C2.83499 0.514171 2.41613 0.342358 1.97974 0.342358C1.54334 0.342358 1.12449 0.514171 0.813799 0.820626C0.50311 1.12708 0.325567 1.54354 0.31958 1.97989V158.02C0.31958 158.46 0.494472 158.883 0.805783 159.194C1.11709 159.505 1.53932 159.68 1.97958 159.68H158.02C158.937 159.68 159.68 158.937 159.68 158.02C159.68 157.103 158.938 156.36 158.02 156.36ZM22.5327 156.36V121.677H34.9074V156.36H22.5327V156.36ZM56.7193 156.36V101.34H69.094V156.36H56.7193ZM90.9049 156.36V112.483H103.28V156.36H90.9049ZM125.092 156.36V78.373H137.466V156.36H125.092ZM131.28 60.1949C135.399 60.1949 138.75 56.844 138.75 52.7249C138.75 48.6058 135.399 45.2549 131.28 45.2549C127.161 45.2549 123.81 48.6058 123.81 52.7249C123.81 54.3505 124.346 55.8452 125.231 57.0727L100.529 85.0718C99.4955 84.5305 98.338 84.1952 97.0927 84.1952C95.0658 84.1952 93.2302 85.0124 91.8833 86.3277L70.2227 73.0552C70.3233 72.5668 70.3771 72.0615 70.3771 71.5437C70.3771 67.4246 67.0261 64.0737 62.9071 64.0737C58.788 64.0737 55.4371 67.4246 55.4371 71.5437C55.4371 72.5493 55.6427 73.5061 56.0046 74.3824L33.0705 94.6515C31.8427 93.7662 30.3483 93.2299 28.7221 93.2299C24.603 93.2299 21.2521 96.5808 21.2521 100.7C21.2521 104.819 24.603 108.17 28.7221 108.17C32.8411 108.17 36.1921 104.819 36.1921 100.7C36.1921 99.4093 35.8333 98.2124 35.2549 97.1521L57.9527 77.0918C59.2743 78.273 60.999 79.0136 62.9071 79.0136C65.3137 79.0136 67.4349 77.8505 68.8021 76.078L90.0968 89.1265C89.8068 89.9227 89.6227 90.7702 89.6227 91.6655C89.6227 95.7846 92.9736 99.1355 97.0927 99.1355C101.212 99.1355 104.563 95.7846 104.563 91.6655C104.563 89.9946 103.992 88.4661 103.061 87.2205L127.731 59.2574C128.792 59.8361 129.989 60.1949 131.28 60.1949ZM28.7221 104.85C26.434 104.85 24.5721 102.988 24.5721 100.7C24.5721 98.4115 26.434 96.5496 28.7221 96.5496C31.0102 96.5496 32.8721 98.4115 32.8721 100.7C32.8721 102.988 31.0102 104.85 28.7221 104.85ZM62.9071 75.6933C60.619 75.6933 58.7571 73.8315 58.7571 71.5433C58.7571 69.2552 60.619 67.3933 62.9071 67.3933C65.1952 67.3933 67.0571 69.2552 67.0571 71.5433C67.0571 73.8318 65.1952 75.6933 62.9071 75.6933ZM131.28 48.5749C133.569 48.5749 135.43 50.4368 135.43 52.7249C135.43 55.013 133.569 56.8749 131.28 56.8749C128.991 56.8749 127.13 55.013 127.13 52.7249C127.13 50.4368 128.991 48.5749 131.28 48.5749ZM97.0927 95.8152C94.8036 95.8152 92.9427 93.9533 92.9427 91.6652C92.9427 89.5277 94.6858 87.5152 97.0927 87.5152C99.3818 87.5152 101.243 89.3771 101.243 91.6652C101.243 93.9533 99.3818 95.8152 97.0927 95.8152ZM33.789 56.1421H54.5171C58.064 56.1421 61.3696 54.2333 63.1437 51.1612L73.5058 33.2099C75.2777 30.138 75.2777 26.3227 73.5058 23.2508L63.143 5.30052C61.3696 2.22864 58.0643 0.31958 54.5165 0.31958H33.7899C30.243 0.31958 26.9374 2.22771 25.164 5.29958L14.7977 23.2508C13.0233 26.3236 13.0233 30.1405 14.7977 33.2118L25.163 51.1621C26.9365 54.2343 30.2421 56.1421 33.789 56.1421ZM17.6736 24.9108L28.0399 6.95958C28.6239 5.95138 29.4624 5.11414 30.4714 4.53153C31.4805 3.94892 32.6247 3.64136 33.7899 3.63958H54.5165C55.6819 3.64135 56.8264 3.949 57.8356 4.53178C58.8448 5.11456 59.6833 5.95205 60.2674 6.96052L70.6302 24.9108C71.211 25.9208 71.5166 27.0654 71.5166 28.2304C71.5166 29.3954 71.211 30.54 70.6302 31.5499L60.268 49.5012C59.6838 50.5095 58.8453 51.3469 57.8361 51.9297C56.8269 52.5124 55.6824 52.8202 54.5171 52.8221H33.789C32.6238 52.8203 31.4795 52.5127 30.4705 51.9301C29.4615 51.3475 28.623 50.5103 28.039 49.5021L17.6727 31.5518C17.0916 30.5416 16.7858 29.3966 16.786 28.2312C16.7861 27.0658 17.0922 25.9208 17.6736 24.9108ZM28.068 35.5933C27.6278 35.5933 27.2055 35.4184 26.8942 35.1071C26.5829 34.7958 26.408 34.3736 26.408 33.9333V22.528C26.408 20.9083 28.4993 20.2549 29.4258 21.5733L34.4286 28.6868V22.528C34.4286 22.31 34.4716 22.0942 34.555 21.8928C34.6384 21.6914 34.7607 21.5084 34.9148 21.3542C35.069 21.2001 35.252 21.0778 35.4534 20.9944C35.6548 20.911 35.8707 20.868 36.0886 20.868C36.3066 20.868 36.5225 20.911 36.7239 20.9944C36.9253 21.0778 37.1083 21.2001 37.2624 21.3542C37.4166 21.5084 37.5389 21.6914 37.6223 21.8928C37.7057 22.0942 37.7486 22.31 37.7486 22.528V33.9333C37.7485 34.2861 37.6361 34.6296 37.4277 34.9142C37.2193 35.1988 36.9258 35.4097 36.5896 35.5165C36.2533 35.6227 35.8918 35.6191 35.5577 35.5061C35.2236 35.3932 34.9341 35.1768 34.7311 34.8883L29.728 27.7746V33.933C29.728 34.3733 29.5531 34.7956 29.2418 35.1069C28.9305 35.4183 28.5083 35.5933 28.068 35.5933ZM39.5996 33.9333V22.528C39.5996 22.0878 39.7745 21.6655 40.0858 21.3542C40.3971 21.0429 40.8193 20.868 41.2596 20.868H47.3274C47.5454 20.868 47.7613 20.911 47.9627 20.9944C48.1641 21.0778 48.347 21.2001 48.5012 21.3542C48.6553 21.5084 48.7776 21.6914 48.861 21.8928C48.9445 22.0942 48.9874 22.31 48.9874 22.528C48.9874 22.746 48.9445 22.9619 48.861 23.1633C48.7776 23.3647 48.6553 23.5477 48.5012 23.7018C48.347 23.856 48.1641 23.9782 47.9627 24.0617C47.7613 24.1451 47.5454 24.188 47.3274 24.188H42.9196V26.5711H47.3274C47.7677 26.5711 48.1899 26.746 48.5012 27.0573C48.8125 27.3687 48.9874 27.7909 48.9874 28.2311C48.9874 28.6714 48.8125 29.0936 48.5012 29.4049C48.1899 29.7163 47.7677 29.8911 47.3274 29.8911H42.9196V33.9333C42.9196 34.3736 42.7447 34.7958 42.4334 35.1071C42.1221 35.4184 41.6998 35.5933 41.2596 35.5933C40.8193 35.5933 40.3971 35.4184 40.0858 35.1071C39.7745 34.7958 39.5996 34.3736 39.5996 33.9333ZM50.2161 22.528C50.2161 22.0878 50.391 21.6655 50.7024 21.3542C51.0137 21.0429 51.4359 20.868 51.8761 20.868H60.2337C60.4516 20.868 60.6675 20.911 60.8689 20.9944C61.0703 21.0778 61.2533 21.2001 61.4074 21.3542C61.5616 21.5084 61.6839 21.6914 61.7673 21.8928C61.8507 22.0942 61.8937 22.31 61.8937 22.528C61.8937 22.746 61.8507 22.9619 61.7673 23.1633C61.6839 23.3647 61.5616 23.5477 61.4074 23.7018C61.2533 23.856 61.0703 23.9782 60.8689 24.0617C60.6675 24.1451 60.4516 24.188 60.2337 24.188H57.7146V33.9333C57.7146 34.3736 57.5397 34.7958 57.2284 35.1071C56.9171 35.4184 56.4948 35.5933 56.0546 35.5933C55.6143 35.5933 55.1921 35.4184 54.8808 35.1071C54.5695 34.7958 54.3946 34.3736 54.3946 33.9333V24.188H51.8761C51.4359 24.1879 51.0137 24.013 50.7024 23.7017C50.3912 23.3904 50.2162 22.9683 50.2161 22.528Z" fill="url(#paint0_linear_17_29715)"/>
</g>
<defs>
<linearGradient id="paint0_linear_17_29715" x1="0.80614" y1="159.194" x2="124.557" y2="35.4427" gradientUnits="userSpaceOnUse">
<stop stop-color="#F803FE"/>
<stop offset="1" stop-color="#0ECBDE"/>
</linearGradient>
<clipPath id="clip0_17_29715">
<rect width="160" height="160" fill="white"/>
</clipPath>
</defs>
</svg>
