<svg width="679" height="204" viewBox="0 0 679 204" fill="none" xmlns="http://www.w3.org/2000/svg">
<path d="M152.282 73.65V88.86C150.375 90.264 148.338 91.2953 146.172 91.954C144.022 92.5953 141.717 92.916 139.256 92.916C136.188 92.916 133.406 92.4393 130.91 91.486C128.431 90.5327 126.308 89.2067 124.54 87.508C122.789 85.8093 121.437 83.7813 120.484 81.424C119.53 79.0667 119.054 76.4927 119.054 73.702C119.054 70.8767 119.513 68.2853 120.432 65.928C121.35 63.5707 122.65 61.5427 124.332 59.844C126.03 58.1453 128.084 56.828 130.494 55.892C132.903 54.956 135.607 54.488 138.606 54.488C140.131 54.488 141.552 54.6093 142.87 54.852C144.204 55.0947 145.435 55.4327 146.562 55.866C147.706 56.282 148.746 56.7933 149.682 57.4C150.618 58.0067 151.476 58.674 152.256 59.402L150.254 62.574C149.942 63.0767 149.534 63.3887 149.032 63.51C148.529 63.614 147.983 63.484 147.394 63.12C146.822 62.7907 146.25 62.4613 145.678 62.132C145.106 61.8027 144.464 61.5167 143.754 61.274C143.06 61.0313 142.272 60.832 141.388 60.676C140.521 60.52 139.516 60.442 138.372 60.442C136.517 60.442 134.836 60.754 133.328 61.378C131.837 62.002 130.563 62.8947 129.506 64.056C128.448 65.2173 127.634 66.6127 127.062 68.242C126.49 69.8713 126.204 71.6913 126.204 73.702C126.204 75.8513 126.507 77.7753 127.114 79.474C127.738 81.1553 128.604 82.5853 129.714 83.764C130.84 84.9253 132.192 85.818 133.77 86.442C135.347 87.0487 137.106 87.352 139.048 87.352C140.434 87.352 141.674 87.2047 142.766 86.91C143.858 86.6153 144.924 86.2167 145.964 85.714V78.902H141.232C140.781 78.902 140.426 78.7807 140.166 78.538C139.923 78.278 139.802 77.966 139.802 77.602V73.65H152.282ZM171.996 81.112C170.142 81.1987 168.582 81.3633 167.316 81.606C166.051 81.8313 165.037 82.126 164.274 82.49C163.512 82.854 162.966 83.2787 162.636 83.764C162.307 84.2493 162.142 84.778 162.142 85.35C162.142 86.4767 162.472 87.2827 163.13 87.768C163.806 88.2533 164.682 88.496 165.756 88.496C167.074 88.496 168.209 88.262 169.162 87.794C170.133 87.3087 171.078 86.5807 171.996 85.61V81.112ZM157.28 69.542C160.348 66.734 164.04 65.33 168.356 65.33C169.916 65.33 171.312 65.59 172.542 66.11C173.773 66.6127 174.813 67.3233 175.662 68.242C176.512 69.1433 177.153 70.2267 177.586 71.492C178.037 72.7573 178.262 74.144 178.262 75.652V92.5H175.35C174.744 92.5 174.276 92.4133 173.946 92.24C173.617 92.0493 173.357 91.6767 173.166 91.122L172.594 89.198C171.918 89.8047 171.26 90.342 170.618 90.81C169.977 91.2607 169.31 91.642 168.616 91.954C167.923 92.266 167.178 92.5 166.38 92.656C165.6 92.8293 164.734 92.916 163.78 92.916C162.654 92.916 161.614 92.7687 160.66 92.474C159.707 92.162 158.884 91.7027 158.19 91.096C157.497 90.4893 156.96 89.7353 156.578 88.834C156.197 87.9327 156.006 86.884 156.006 85.688C156.006 85.012 156.119 84.3447 156.344 83.686C156.57 83.01 156.934 82.3687 157.436 81.762C157.956 81.1553 158.624 80.5833 159.438 80.046C160.253 79.5087 161.25 79.0407 162.428 78.642C163.624 78.2433 165.011 77.9227 166.588 77.68C168.166 77.42 169.968 77.264 171.996 77.212V75.652C171.996 73.8667 171.615 72.5493 170.852 71.7C170.09 70.8333 168.989 70.4 167.55 70.4C166.51 70.4 165.644 70.5213 164.95 70.764C164.274 71.0067 163.676 71.284 163.156 71.596C162.636 71.8907 162.16 72.1593 161.726 72.402C161.31 72.6447 160.842 72.766 160.322 72.766C159.872 72.766 159.49 72.6533 159.178 72.428C158.866 72.1853 158.615 71.908 158.424 71.596L157.28 69.542ZM184.311 92.5V65.824H188.237C189.069 65.824 189.615 66.214 189.875 66.994L190.291 68.97C190.759 68.45 191.244 67.9733 191.747 67.54C192.267 67.1067 192.813 66.734 193.385 66.422C193.974 66.11 194.598 65.8673 195.257 65.694C195.933 65.5033 196.669 65.408 197.467 65.408C199.148 65.408 200.526 65.8673 201.601 66.786C202.693 67.6873 203.507 68.892 204.045 70.4C204.461 69.516 204.981 68.762 205.605 68.138C206.229 67.4967 206.913 66.9767 207.659 66.578C208.404 66.1793 209.193 65.8847 210.025 65.694C210.874 65.5033 211.723 65.408 212.573 65.408C214.046 65.408 215.355 65.6333 216.499 66.084C217.643 66.5347 218.605 67.1933 219.385 68.06C220.165 68.9267 220.754 69.984 221.153 71.232C221.569 72.48 221.777 73.91 221.777 75.522V92.5H215.355V75.522C215.355 73.8233 214.982 72.5493 214.237 71.7C213.491 70.8333 212.399 70.4 210.961 70.4C210.302 70.4 209.687 70.5127 209.115 70.738C208.56 70.9633 208.066 71.2927 207.633 71.726C207.217 72.142 206.887 72.6707 206.645 73.312C206.402 73.9533 206.281 74.69 206.281 75.522V92.5H199.833V75.522C199.833 73.7367 199.469 72.4367 198.741 71.622C198.03 70.8073 196.981 70.4 195.595 70.4C194.659 70.4 193.783 70.634 192.969 71.102C192.171 71.5527 191.426 72.1767 190.733 72.974V92.5H184.311ZM234.537 65.824V92.5H228.089V65.824H234.537ZM235.421 58.05C235.421 58.6047 235.308 59.1247 235.083 59.61C234.858 60.0953 234.554 60.52 234.173 60.884C233.809 61.248 233.376 61.5427 232.873 61.768C232.37 61.976 231.833 62.08 231.261 62.08C230.706 62.08 230.178 61.976 229.675 61.768C229.19 61.5427 228.765 61.248 228.401 60.884C228.037 60.52 227.742 60.0953 227.517 59.61C227.309 59.1247 227.205 58.6047 227.205 58.05C227.205 57.478 227.309 56.9407 227.517 56.438C227.742 55.9353 228.037 55.502 228.401 55.138C228.765 54.774 229.19 54.488 229.675 54.28C230.178 54.0547 230.706 53.942 231.261 53.942C231.833 53.942 232.37 54.0547 232.873 54.28C233.376 54.488 233.809 54.774 234.173 55.138C234.554 55.502 234.858 55.9353 235.083 56.438C235.308 56.9407 235.421 57.478 235.421 58.05ZM247.09 69.1C247.627 68.5627 248.191 68.0687 248.78 67.618C249.387 67.15 250.019 66.76 250.678 66.448C251.354 66.1187 252.073 65.8673 252.836 65.694C253.599 65.5033 254.431 65.408 255.332 65.408C256.788 65.408 258.079 65.6593 259.206 66.162C260.333 66.6473 261.269 67.3407 262.014 68.242C262.777 69.126 263.349 70.192 263.73 71.44C264.129 72.6707 264.328 74.0313 264.328 75.522V92.5H257.906V75.522C257.906 73.8927 257.533 72.636 256.788 71.752C256.043 70.8507 254.907 70.4 253.382 70.4C252.273 70.4 251.233 70.6513 250.262 71.154C249.291 71.6567 248.373 72.3413 247.506 73.208V92.5H241.084V65.824H245.01C245.842 65.824 246.388 66.214 246.648 66.994L247.09 69.1ZM280.186 78.512C280.983 78.512 281.676 78.408 282.266 78.2C282.855 77.9747 283.34 77.6713 283.722 77.29C284.12 76.9087 284.415 76.4493 284.606 75.912C284.814 75.3747 284.918 74.7853 284.918 74.144C284.918 72.8267 284.519 71.7867 283.722 71.024C282.942 70.244 281.763 69.854 280.186 69.854C278.608 69.854 277.421 70.244 276.624 71.024C275.844 71.7867 275.454 72.8267 275.454 74.144C275.454 74.768 275.549 75.3487 275.74 75.886C275.948 76.4233 276.242 76.8913 276.624 77.29C277.022 77.6713 277.516 77.9747 278.106 78.2C278.712 78.408 279.406 78.512 280.186 78.512ZM287.44 93.696C287.44 93.176 287.284 92.7513 286.972 92.422C286.66 92.0927 286.235 91.8413 285.698 91.668C285.16 91.4773 284.528 91.3387 283.8 91.252C283.089 91.1653 282.326 91.1047 281.512 91.07C280.714 91.018 279.882 90.9747 279.016 90.94C278.166 90.9053 277.334 90.836 276.52 90.732C275.809 91.1307 275.228 91.5987 274.778 92.136C274.344 92.6733 274.128 93.2973 274.128 94.008C274.128 94.476 274.24 94.9093 274.466 95.308C274.708 95.724 275.081 96.0793 275.584 96.374C276.104 96.6687 276.771 96.894 277.586 97.05C278.4 97.2233 279.397 97.31 280.576 97.31C281.772 97.31 282.803 97.2147 283.67 97.024C284.536 96.8507 285.247 96.5993 285.802 96.27C286.374 95.958 286.79 95.5767 287.05 95.126C287.31 94.6927 287.44 94.216 287.44 93.696ZM293.836 66.734V69.126C293.836 69.8887 293.376 70.3567 292.458 70.53L290.066 70.972C290.43 71.8907 290.612 72.896 290.612 73.988C290.612 75.3053 290.343 76.5013 289.806 77.576C289.286 78.6333 288.558 79.5347 287.622 80.28C286.686 81.0253 285.576 81.606 284.294 82.022C283.028 82.4207 281.659 82.62 280.186 82.62C279.666 82.62 279.163 82.594 278.678 82.542C278.192 82.49 277.716 82.4207 277.248 82.334C276.416 82.8367 276 83.4 276 84.024C276 84.5613 276.242 84.96 276.728 85.22C277.23 85.4627 277.889 85.636 278.704 85.74C279.518 85.844 280.446 85.9133 281.486 85.948C282.526 85.9653 283.592 86.0173 284.684 86.104C285.776 86.1907 286.842 86.3467 287.882 86.572C288.922 86.78 289.849 87.118 290.664 87.586C291.478 88.054 292.128 88.6953 292.614 89.51C293.116 90.3073 293.368 91.3387 293.368 92.604C293.368 93.7827 293.073 94.9267 292.484 96.036C291.912 97.1453 291.071 98.1333 289.962 99C288.87 99.8667 287.518 100.56 285.906 101.08C284.311 101.617 282.491 101.886 280.446 101.886C278.435 101.886 276.684 101.687 275.194 101.288C273.703 100.907 272.464 100.387 271.476 99.728C270.488 99.0867 269.751 98.3413 269.266 97.492C268.78 96.6427 268.538 95.7587 268.538 94.84C268.538 93.592 268.91 92.552 269.656 91.72C270.418 90.8707 271.458 90.1947 272.776 89.692C272.065 89.328 271.502 88.8427 271.086 88.236C270.67 87.6293 270.462 86.832 270.462 85.844C270.462 85.4453 270.531 85.038 270.67 84.622C270.826 84.1887 271.042 83.764 271.32 83.348C271.614 82.932 271.978 82.542 272.412 82.178C272.845 81.7967 273.356 81.4587 273.946 81.164C272.594 80.436 271.528 79.4653 270.748 78.252C269.985 77.0387 269.604 75.6173 269.604 73.988C269.604 72.6707 269.864 71.4833 270.384 70.426C270.921 69.3513 271.658 68.4413 272.594 67.696C273.547 66.9333 274.665 66.3527 275.948 65.954C277.248 65.5553 278.66 65.356 280.186 65.356C281.33 65.356 282.404 65.4773 283.41 65.72C284.415 65.9453 285.334 66.2833 286.166 66.734H293.836ZM352.335 54.904V92.5H346.173V68.216C346.173 67.2453 346.225 66.1967 346.329 65.07L334.967 86.416C334.43 87.4387 333.606 87.95 332.497 87.95H331.509C330.4 87.95 329.576 87.4387 329.039 86.416L317.547 64.992C317.599 65.564 317.642 66.1273 317.677 66.682C317.712 67.2367 317.729 67.748 317.729 68.216V92.5H311.567V54.904H316.845C317.157 54.904 317.426 54.9127 317.651 54.93C317.876 54.9473 318.076 54.9907 318.249 55.06C318.44 55.1293 318.604 55.242 318.743 55.398C318.899 55.554 319.046 55.762 319.185 56.022L330.443 76.9C330.738 77.4547 331.006 78.0267 331.249 78.616C331.509 79.2053 331.76 79.812 332.003 80.436C332.246 79.7947 332.497 79.1793 332.757 78.59C333.017 77.9833 333.294 77.4027 333.589 76.848L344.691 56.022C344.83 55.762 344.977 55.554 345.133 55.398C345.289 55.242 345.454 55.1293 345.627 55.06C345.818 54.9907 346.026 54.9473 346.251 54.93C346.476 54.9127 346.745 54.904 347.057 54.904H352.335ZM370.701 65.408C372.677 65.408 374.471 65.7287 376.083 66.37C377.712 67.0113 379.099 67.9213 380.243 69.1C381.404 70.2787 382.297 71.7173 382.921 73.416C383.545 75.1147 383.857 77.0127 383.857 79.11C383.857 81.2247 383.545 83.1313 382.921 84.83C382.297 86.5287 381.404 87.976 380.243 89.172C379.099 90.368 377.712 91.2867 376.083 91.928C374.471 92.5693 372.677 92.89 370.701 92.89C368.707 92.89 366.896 92.5693 365.267 91.928C363.637 91.2867 362.242 90.368 361.081 89.172C359.937 87.976 359.044 86.5287 358.403 84.83C357.779 83.1313 357.467 81.2247 357.467 79.11C357.467 77.0127 357.779 75.1147 358.403 73.416C359.044 71.7173 359.937 70.2787 361.081 69.1C362.242 67.9213 363.637 67.0113 365.267 66.37C366.896 65.7287 368.707 65.408 370.701 65.408ZM370.701 87.95C372.919 87.95 374.557 87.2047 375.615 85.714C376.689 84.2233 377.227 82.0393 377.227 79.162C377.227 76.2847 376.689 74.092 375.615 72.584C374.557 71.076 372.919 70.322 370.701 70.322C368.447 70.322 366.775 71.0847 365.683 72.61C364.608 74.118 364.071 76.302 364.071 79.162C364.071 82.022 364.608 84.206 365.683 85.714C366.775 87.2047 368.447 87.95 370.701 87.95ZM394.814 70.452C395.646 68.8573 396.634 67.6093 397.778 66.708C398.922 65.7893 400.274 65.33 401.834 65.33C403.065 65.33 404.053 65.5987 404.798 66.136L404.382 70.946C404.295 71.258 404.165 71.4833 403.992 71.622C403.836 71.7433 403.619 71.804 403.342 71.804C403.082 71.804 402.692 71.7607 402.172 71.674C401.669 71.5873 401.175 71.544 400.69 71.544C399.979 71.544 399.347 71.648 398.792 71.856C398.237 72.064 397.735 72.3673 397.284 72.766C396.851 73.1473 396.461 73.6153 396.114 74.17C395.785 74.7247 395.473 75.3573 395.178 76.068V92.5H388.756V65.824H392.526C393.185 65.824 393.644 65.9453 393.904 66.188C394.164 66.4133 394.337 66.8293 394.424 67.436L394.814 70.452ZM424.579 76.094C424.579 75.262 424.457 74.482 424.215 73.754C423.989 73.0087 423.643 72.3587 423.175 71.804C422.707 71.2493 422.109 70.816 421.381 70.504C420.67 70.1747 419.838 70.01 418.885 70.01C417.03 70.01 415.565 70.5387 414.491 71.596C413.433 72.6533 412.757 74.1527 412.463 76.094H424.579ZM412.333 79.968C412.437 81.3373 412.679 82.5247 413.061 83.53C413.442 84.518 413.945 85.3413 414.569 86C415.193 86.6413 415.929 87.1267 416.779 87.456C417.645 87.768 418.599 87.924 419.639 87.924C420.679 87.924 421.571 87.8027 422.317 87.56C423.079 87.3173 423.738 87.0487 424.293 86.754C424.865 86.4593 425.359 86.1907 425.775 85.948C426.208 85.7053 426.624 85.584 427.023 85.584C427.56 85.584 427.959 85.7833 428.219 86.182L430.065 88.522C429.354 89.354 428.557 90.056 427.673 90.628C426.789 91.1827 425.861 91.6333 424.891 91.98C423.937 92.3093 422.958 92.5433 421.953 92.682C420.965 92.8207 420.003 92.89 419.067 92.89C417.212 92.89 415.487 92.5867 413.893 91.98C412.298 91.356 410.911 90.446 409.733 89.25C408.554 88.0367 407.627 86.546 406.951 84.778C406.275 82.9927 405.937 80.93 405.937 78.59C405.937 76.77 406.231 75.0627 406.821 73.468C407.41 71.856 408.251 70.4607 409.343 69.282C410.452 68.086 411.795 67.1413 413.373 66.448C414.967 65.7547 416.761 65.408 418.755 65.408C420.436 65.408 421.987 65.6767 423.409 66.214C424.83 66.7513 426.052 67.54 427.075 68.58C428.097 69.6027 428.895 70.868 429.467 72.376C430.056 73.8667 430.351 75.574 430.351 77.498C430.351 78.4687 430.247 79.1273 430.039 79.474C429.831 79.8033 429.432 79.968 428.843 79.968H412.333ZM434.234 88.964C434.234 88.4267 434.329 87.9153 434.52 87.43C434.728 86.9447 435.005 86.5287 435.352 86.182C435.699 85.8353 436.115 85.558 436.6 85.35C437.085 85.142 437.605 85.038 438.16 85.038C438.715 85.038 439.226 85.142 439.694 85.35C440.179 85.558 440.595 85.8353 440.942 86.182C441.306 86.5287 441.592 86.9447 441.8 87.43C442.008 87.9153 442.112 88.4267 442.112 88.964C442.112 89.5187 442.008 90.0387 441.8 90.524C441.592 90.992 441.306 91.3993 440.942 91.746C440.595 92.0927 440.179 92.3613 439.694 92.552C439.226 92.76 438.715 92.864 438.16 92.864C437.605 92.864 437.085 92.76 436.6 92.552C436.115 92.3613 435.699 92.0927 435.352 91.746C435.005 91.3993 434.728 90.992 434.52 90.524C434.329 90.0387 434.234 89.5187 434.234 88.964Z" fill="#9BFCEB"/>
<path d="M468.188 60.468V70.894H481.344V76.276H468.188V86.91H484.88V92.5H461.168V54.904H484.88V60.468H468.188ZM504.004 81.112C502.15 81.1987 500.59 81.3633 499.324 81.606C498.059 81.8313 497.045 82.126 496.282 82.49C495.52 82.854 494.974 83.2787 494.644 83.764C494.315 84.2493 494.15 84.778 494.15 85.35C494.15 86.4767 494.48 87.2827 495.138 87.768C495.814 88.2533 496.69 88.496 497.764 88.496C499.082 88.496 500.217 88.262 501.17 87.794C502.141 87.3087 503.086 86.5807 504.004 85.61V81.112ZM489.288 69.542C492.356 66.734 496.048 65.33 500.364 65.33C501.924 65.33 503.32 65.59 504.55 66.11C505.781 66.6127 506.821 67.3233 507.67 68.242C508.52 69.1433 509.161 70.2267 509.594 71.492C510.045 72.7573 510.27 74.144 510.27 75.652V92.5H507.358C506.752 92.5 506.284 92.4133 505.954 92.24C505.625 92.0493 505.365 91.6767 505.174 91.122L504.602 89.198C503.926 89.8047 503.268 90.342 502.626 90.81C501.985 91.2607 501.318 91.642 500.624 91.954C499.931 92.266 499.186 92.5 498.388 92.656C497.608 92.8293 496.742 92.916 495.788 92.916C494.662 92.916 493.622 92.7687 492.668 92.474C491.715 92.162 490.892 91.7027 490.198 91.096C489.505 90.4893 488.968 89.7353 488.586 88.834C488.205 87.9327 488.014 86.884 488.014 85.688C488.014 85.012 488.127 84.3447 488.352 83.686C488.578 83.01 488.942 82.3687 489.444 81.762C489.964 81.1553 490.632 80.5833 491.446 80.046C492.261 79.5087 493.258 79.0407 494.436 78.642C495.632 78.2433 497.019 77.9227 498.596 77.68C500.174 77.42 501.976 77.264 504.004 77.212V75.652C504.004 73.8667 503.623 72.5493 502.86 71.7C502.098 70.8333 500.997 70.4 499.558 70.4C498.518 70.4 497.652 70.5213 496.958 70.764C496.282 71.0067 495.684 71.284 495.164 71.596C494.644 71.8907 494.168 72.1593 493.734 72.402C493.318 72.6447 492.85 72.766 492.33 72.766C491.88 72.766 491.498 72.6533 491.186 72.428C490.874 72.1853 490.623 71.908 490.432 71.596L489.288 69.542ZM522.376 70.452C523.208 68.8573 524.196 67.6093 525.34 66.708C526.484 65.7893 527.836 65.33 529.396 65.33C530.627 65.33 531.615 65.5987 532.36 66.136L531.944 70.946C531.858 71.258 531.728 71.4833 531.554 71.622C531.398 71.7433 531.182 71.804 530.904 71.804C530.644 71.804 530.254 71.7607 529.734 71.674C529.232 71.5873 528.738 71.544 528.252 71.544C527.542 71.544 526.909 71.648 526.354 71.856C525.8 72.064 525.297 72.3673 524.846 72.766C524.413 73.1473 524.023 73.6153 523.676 74.17C523.347 74.7247 523.035 75.3573 522.74 76.068V92.5H516.318V65.824H520.088C520.747 65.824 521.206 65.9453 521.466 66.188C521.726 66.4133 521.9 66.8293 521.986 67.436L522.376 70.452ZM541.723 69.1C542.26 68.5627 542.824 68.0687 543.413 67.618C544.02 67.15 544.652 66.76 545.311 66.448C545.987 66.1187 546.706 65.8673 547.469 65.694C548.232 65.5033 549.064 65.408 549.965 65.408C551.421 65.408 552.712 65.6593 553.839 66.162C554.966 66.6473 555.902 67.3407 556.647 68.242C557.41 69.126 557.982 70.192 558.363 71.44C558.762 72.6707 558.961 74.0313 558.961 75.522V92.5H552.539V75.522C552.539 73.8927 552.166 72.636 551.421 71.752C550.676 70.8507 549.54 70.4 548.015 70.4C546.906 70.4 545.866 70.6513 544.895 71.154C543.924 71.6567 543.006 72.3413 542.139 73.208V92.5H535.717V65.824H539.643C540.475 65.824 541.021 66.214 541.281 66.994L541.723 69.1ZM258.179 151.728V157.5H236.157V119.904H243.151V151.728H258.179ZM268.814 130.824V157.5H262.366V130.824H268.814ZM269.698 123.05C269.698 123.605 269.586 124.125 269.36 124.61C269.135 125.095 268.832 125.52 268.45 125.884C268.086 126.248 267.653 126.543 267.15 126.768C266.648 126.976 266.11 127.08 265.538 127.08C264.984 127.08 264.455 126.976 263.952 126.768C263.467 126.543 263.042 126.248 262.678 125.884C262.314 125.52 262.02 125.095 261.794 124.61C261.586 124.125 261.482 123.605 261.482 123.05C261.482 122.478 261.586 121.941 261.794 121.438C262.02 120.935 262.314 120.502 262.678 120.138C263.042 119.774 263.467 119.488 263.952 119.28C264.455 119.055 264.984 118.942 265.538 118.942C266.11 118.942 266.648 119.055 267.15 119.28C267.653 119.488 268.086 119.774 268.45 120.138C268.832 120.502 269.135 120.935 269.36 121.438C269.586 121.941 269.698 122.478 269.698 123.05ZM275.361 157.5V130.824H279.287C280.119 130.824 280.665 131.214 280.925 131.994L281.341 133.97C281.809 133.45 282.295 132.973 282.797 132.54C283.317 132.107 283.863 131.734 284.435 131.422C285.025 131.11 285.649 130.867 286.307 130.694C286.983 130.503 287.72 130.408 288.517 130.408C290.199 130.408 291.577 130.867 292.651 131.786C293.743 132.687 294.558 133.892 295.095 135.4C295.511 134.516 296.031 133.762 296.655 133.138C297.279 132.497 297.964 131.977 298.709 131.578C299.455 131.179 300.243 130.885 301.075 130.694C301.925 130.503 302.774 130.408 303.623 130.408C305.097 130.408 306.405 130.633 307.549 131.084C308.693 131.535 309.655 132.193 310.435 133.06C311.215 133.927 311.805 134.984 312.203 136.232C312.619 137.48 312.827 138.91 312.827 140.522V157.5H306.405V140.522C306.405 138.823 306.033 137.549 305.287 136.7C304.542 135.833 303.45 135.4 302.011 135.4C301.353 135.4 300.737 135.513 300.165 135.738C299.611 135.963 299.117 136.293 298.683 136.726C298.267 137.142 297.938 137.671 297.695 138.312C297.453 138.953 297.331 139.69 297.331 140.522V157.5H290.883V140.522C290.883 138.737 290.519 137.437 289.791 136.622C289.081 135.807 288.032 135.4 286.645 135.4C285.709 135.4 284.834 135.634 284.019 136.102C283.222 136.553 282.477 137.177 281.783 137.974V157.5H275.361ZM325.588 130.824V157.5H319.14V130.824H325.588ZM326.472 123.05C326.472 123.605 326.359 124.125 326.134 124.61C325.908 125.095 325.605 125.52 325.224 125.884C324.86 126.248 324.426 126.543 323.924 126.768C323.421 126.976 322.884 127.08 322.312 127.08C321.757 127.08 321.228 126.976 320.726 126.768C320.24 126.543 319.816 126.248 319.452 125.884C319.088 125.52 318.793 125.095 318.568 124.61C318.36 124.125 318.256 123.605 318.256 123.05C318.256 122.478 318.36 121.941 318.568 121.438C318.793 120.935 319.088 120.502 319.452 120.138C319.816 119.774 320.24 119.488 320.726 119.28C321.228 119.055 321.757 118.942 322.312 118.942C322.884 118.942 323.421 119.055 323.924 119.28C324.426 119.488 324.86 119.774 325.224 120.138C325.605 120.502 325.908 120.935 326.134 121.438C326.359 121.941 326.472 122.478 326.472 123.05ZM341.027 157.916C338.704 157.916 336.919 157.266 335.671 155.966C334.44 154.649 333.825 152.837 333.825 150.532V135.634H331.095C330.748 135.634 330.454 135.521 330.211 135.296C329.968 135.071 329.847 134.733 329.847 134.282V131.734L334.137 131.032L335.489 123.752C335.576 123.405 335.74 123.137 335.983 122.946C336.226 122.755 336.538 122.66 336.919 122.66H340.247V131.058H347.371V135.634H340.247V150.09C340.247 150.922 340.446 151.572 340.845 152.04C341.261 152.508 341.824 152.742 342.535 152.742C342.934 152.742 343.263 152.699 343.523 152.612C343.8 152.508 344.034 152.404 344.225 152.3C344.433 152.196 344.615 152.101 344.771 152.014C344.927 151.91 345.083 151.858 345.239 151.858C345.43 151.858 345.586 151.91 345.707 152.014C345.828 152.101 345.958 152.239 346.097 152.43L348.021 155.55C347.085 156.33 346.01 156.919 344.797 157.318C343.584 157.717 342.327 157.916 341.027 157.916ZM357.983 118.864V157.5H351.561V118.864H357.983ZM381.567 141.094C381.567 140.262 381.446 139.482 381.203 138.754C380.978 138.009 380.631 137.359 380.163 136.804C379.695 136.249 379.097 135.816 378.369 135.504C377.658 135.175 376.826 135.01 375.873 135.01C374.018 135.01 372.554 135.539 371.479 136.596C370.422 137.653 369.746 139.153 369.451 141.094H381.567ZM369.321 144.968C369.425 146.337 369.668 147.525 370.049 148.53C370.43 149.518 370.933 150.341 371.557 151C372.181 151.641 372.918 152.127 373.767 152.456C374.634 152.768 375.587 152.924 376.627 152.924C377.667 152.924 378.56 152.803 379.305 152.56C380.068 152.317 380.726 152.049 381.281 151.754C381.853 151.459 382.347 151.191 382.763 150.948C383.196 150.705 383.612 150.584 384.011 150.584C384.548 150.584 384.947 150.783 385.207 151.182L387.053 153.522C386.342 154.354 385.545 155.056 384.661 155.628C383.777 156.183 382.85 156.633 381.879 156.98C380.926 157.309 379.946 157.543 378.941 157.682C377.953 157.821 376.991 157.89 376.055 157.89C374.2 157.89 372.476 157.587 370.881 156.98C369.286 156.356 367.9 155.446 366.721 154.25C365.542 153.037 364.615 151.546 363.939 149.778C363.263 147.993 362.925 145.93 362.925 143.59C362.925 141.77 363.22 140.063 363.809 138.468C364.398 136.856 365.239 135.461 366.331 134.282C367.44 133.086 368.784 132.141 370.361 131.448C371.956 130.755 373.75 130.408 375.743 130.408C377.424 130.408 378.976 130.677 380.397 131.214C381.818 131.751 383.04 132.54 384.063 133.58C385.086 134.603 385.883 135.868 386.455 137.376C387.044 138.867 387.339 140.574 387.339 142.498C387.339 143.469 387.235 144.127 387.027 144.474C386.819 144.803 386.42 144.968 385.831 144.968H369.321ZM408.434 136.024C408.261 136.301 408.079 136.501 407.888 136.622C407.698 136.726 407.455 136.778 407.16 136.778C406.848 136.778 406.51 136.691 406.146 136.518C405.8 136.345 405.392 136.154 404.924 135.946C404.456 135.721 403.919 135.521 403.312 135.348C402.723 135.175 402.021 135.088 401.206 135.088C399.941 135.088 398.944 135.357 398.216 135.894C397.506 136.431 397.15 137.133 397.15 138C397.15 138.572 397.332 139.057 397.696 139.456C398.078 139.837 398.572 140.175 399.178 140.47C399.802 140.765 400.504 141.033 401.284 141.276C402.064 141.501 402.853 141.753 403.65 142.03C404.465 142.307 405.262 142.628 406.042 142.992C406.822 143.339 407.516 143.789 408.122 144.344C408.746 144.881 409.24 145.531 409.604 146.294C409.986 147.057 410.176 147.975 410.176 149.05C410.176 150.333 409.942 151.52 409.474 152.612C409.024 153.687 408.348 154.623 407.446 155.42C406.545 156.2 405.427 156.815 404.092 157.266C402.775 157.699 401.25 157.916 399.516 157.916C398.598 157.916 397.696 157.829 396.812 157.656C395.946 157.5 395.105 157.275 394.29 156.98C393.493 156.685 392.748 156.339 392.054 155.94C391.378 155.541 390.78 155.108 390.26 154.64L391.742 152.196C391.933 151.901 392.158 151.676 392.418 151.52C392.678 151.364 393.008 151.286 393.406 151.286C393.805 151.286 394.178 151.399 394.524 151.624C394.888 151.849 395.304 152.092 395.772 152.352C396.24 152.612 396.786 152.855 397.41 153.08C398.052 153.305 398.858 153.418 399.828 153.418C400.591 153.418 401.241 153.331 401.778 153.158C402.333 152.967 402.784 152.725 403.13 152.43C403.494 152.135 403.754 151.797 403.91 151.416C404.084 151.017 404.17 150.61 404.17 150.194C404.17 149.57 403.98 149.059 403.598 148.66C403.234 148.261 402.74 147.915 402.116 147.62C401.51 147.325 400.808 147.065 400.01 146.84C399.23 146.597 398.424 146.337 397.592 146.06C396.778 145.783 395.972 145.462 395.174 145.098C394.394 144.717 393.692 144.24 393.068 143.668C392.462 143.096 391.968 142.394 391.586 141.562C391.222 140.73 391.04 139.725 391.04 138.546C391.04 137.454 391.257 136.414 391.69 135.426C392.124 134.438 392.756 133.58 393.588 132.852C394.438 132.107 395.486 131.517 396.734 131.084C398 130.633 399.456 130.408 401.102 130.408C402.94 130.408 404.612 130.711 406.12 131.318C407.628 131.925 408.885 132.722 409.89 133.71L408.434 136.024ZM431.286 136.024C431.113 136.301 430.931 136.501 430.74 136.622C430.549 136.726 430.307 136.778 430.012 136.778C429.7 136.778 429.362 136.691 428.998 136.518C428.651 136.345 428.244 136.154 427.776 135.946C427.308 135.721 426.771 135.521 426.164 135.348C425.575 135.175 424.873 135.088 424.058 135.088C422.793 135.088 421.796 135.357 421.068 135.894C420.357 136.431 420.002 137.133 420.002 138C420.002 138.572 420.184 139.057 420.548 139.456C420.929 139.837 421.423 140.175 422.03 140.47C422.654 140.765 423.356 141.033 424.136 141.276C424.916 141.501 425.705 141.753 426.502 142.03C427.317 142.307 428.114 142.628 428.894 142.992C429.674 143.339 430.367 143.789 430.974 144.344C431.598 144.881 432.092 145.531 432.456 146.294C432.837 147.057 433.028 147.975 433.028 149.05C433.028 150.333 432.794 151.52 432.326 152.612C431.875 153.687 431.199 154.623 430.298 155.42C429.397 156.2 428.279 156.815 426.944 157.266C425.627 157.699 424.101 157.916 422.368 157.916C421.449 157.916 420.548 157.829 419.664 157.656C418.797 157.5 417.957 157.275 417.142 156.98C416.345 156.685 415.599 156.339 414.906 155.94C414.23 155.541 413.632 155.108 413.112 154.64L414.594 152.196C414.785 151.901 415.01 151.676 415.27 151.52C415.53 151.364 415.859 151.286 416.258 151.286C416.657 151.286 417.029 151.399 417.376 151.624C417.74 151.849 418.156 152.092 418.624 152.352C419.092 152.612 419.638 152.855 420.262 153.08C420.903 153.305 421.709 153.418 422.68 153.418C423.443 153.418 424.093 153.331 424.63 153.158C425.185 152.967 425.635 152.725 425.982 152.43C426.346 152.135 426.606 151.797 426.762 151.416C426.935 151.017 427.022 150.61 427.022 150.194C427.022 149.57 426.831 149.059 426.45 148.66C426.086 148.261 425.592 147.915 424.968 147.62C424.361 147.325 423.659 147.065 422.862 146.84C422.082 146.597 421.276 146.337 420.444 146.06C419.629 145.783 418.823 145.462 418.026 145.098C417.246 144.717 416.544 144.24 415.92 143.668C415.313 143.096 414.819 142.394 414.438 141.562C414.074 140.73 413.892 139.725 413.892 138.546C413.892 137.454 414.109 136.414 414.542 135.426C414.975 134.438 415.608 133.58 416.44 132.852C417.289 132.107 418.338 131.517 419.586 131.084C420.851 130.633 422.307 130.408 423.954 130.408C425.791 130.408 427.464 130.711 428.972 131.318C430.48 131.925 431.737 132.722 432.742 133.71L431.286 136.024ZM436.925 153.964C436.925 153.427 437.021 152.915 437.211 152.43C437.419 151.945 437.697 151.529 438.043 151.182C438.39 150.835 438.806 150.558 439.291 150.35C439.777 150.142 440.297 150.038 440.851 150.038C441.406 150.038 441.917 150.142 442.385 150.35C442.871 150.558 443.287 150.835 443.633 151.182C443.997 151.529 444.283 151.945 444.491 152.43C444.699 152.915 444.803 153.427 444.803 153.964C444.803 154.519 444.699 155.039 444.491 155.524C444.283 155.992 443.997 156.399 443.633 156.746C443.287 157.093 442.871 157.361 442.385 157.552C441.917 157.76 441.406 157.864 440.851 157.864C440.297 157.864 439.777 157.76 439.291 157.552C438.806 157.361 438.39 157.093 438.043 156.746C437.697 156.399 437.419 155.992 437.211 155.524C437.021 155.039 436.925 154.519 436.925 153.964Z" fill="#EEA00C"/>
<path d="M176.381 182.243V181.744H175.881H56.8484H56.3484V182.243V182.244L36.5286 202.063H21.9603L1.93652 182.038V21.9603L21.9589 1.93652H227.191L247.213 21.9586V21.9589V22.4586H247.713H366.749H367.249V21.9586L387.271 1.93652H656.125L676.148 21.9603V154.05L628.134 202.063H196.201L176.381 182.244V182.243Z" stroke="white"/>
<path d="M628.341 203.063H628.548L628.694 202.917L677.001 154.61L677.148 154.464V154.257V21.753V21.5459L677.001 21.3994L656.687 1.08308L656.54 0.93662H656.333H387.064H386.857L386.71 1.08306L366.395 21.3978L366.334 21.4586H248.128L248.067 21.3978L227.752 1.08306L227.606 0.93662H227.399H21.7515H21.5444L21.398 1.08308L1.08305 21.3994L0.93662 21.5459V21.753V182.245V182.452L1.08305 182.598L21.3996 202.916L21.5461 203.063H21.7532H36.7372H36.9443L37.0908 202.916L57.2016 182.806L57.2626 182.745H175.469L175.53 182.806L195.641 202.916L195.787 203.063H195.994L628.341 203.063ZM175.434 183.328L175.288 183.181H175.081H57.6505H57.4434L57.297 183.328L37.1252 203.499H21.3652L0.5 182.633V21.365L21.3635 0.5H227.787L248.163 20.8756L248.309 21.022H248.516H365.946H366.154L366.3 20.8756L386.676 0.5H656.721L677.585 21.3651V154.645L628.957 203.272L628.654 203.5L628.341 203.5L195.606 203.499L175.434 183.328Z" stroke="white"/>
<path opacity="0.2" d="M657.063 160.633L624.02 193.675H446.984" stroke="white"/>
<path d="M630.744 62.5327L631.594 56.5302L630.744 55.8949L629.895 56.5294L630.744 62.5327ZM630.744 44.2593L631.643 43.5828L630.744 37.3548L629.846 43.5836L630.744 44.2593ZM630.746 72.7772H630.742L628.354 55.8883L630.744 54.1011L633.135 55.8891L630.746 72.7772ZM630.744 46.0569L628.302 44.2204L630.744 27.2959L633.187 44.2196L630.744 46.0569Z" fill="white"/>
<path d="M618.249 49.8506L624.251 50.6999L624.886 49.8503L624.252 49.0017L618.249 49.8506ZM636.522 49.8503L637.198 50.7496L643.426 49.8506L637.198 48.952L636.522 49.8503ZM608.004 49.8521V49.8485L624.893 47.4601L626.68 49.8503L624.892 52.2416L608.004 49.8521ZM634.724 49.8503L636.561 47.4087L653.485 49.8503L636.562 52.293L634.724 49.8503Z" fill="white"/>
<path d="M621.909 40.5767L625.553 45.4216L626.603 45.27L626.754 44.2213L621.909 40.5767ZM634.831 53.4977L634.673 54.6119L639.713 58.3801L635.944 53.3403L634.831 53.4977ZM614.664 33.3337L614.667 33.3312L628.298 43.5846L627.871 46.5384L624.916 46.965L614.664 33.3337ZM633.559 52.2265L636.585 51.7987L646.826 65.4926L633.131 55.253L633.559 52.2265Z" fill="white"/>
<path d="M639.581 40.5768L634.736 44.2207L634.887 45.2707L635.936 45.4221L639.581 40.5768ZM626.66 53.4984L625.546 53.3408L621.777 58.3803L626.817 54.6113L626.66 53.4984ZM646.824 33.3319L646.826 33.3344L636.573 46.9655L633.619 46.5391L633.192 43.5839L646.824 33.3319ZM627.931 52.2272L628.359 55.2523L614.665 65.4933L624.904 51.7992L627.931 52.2272Z" fill="white"/>
<path d="M163.339 193.442H172.46L181.584 202.563H172.46L163.339 193.442Z" fill="#E3E2E9"/>
<path opacity="0.8" d="M145.098 193.442H154.219L163.343 202.563H154.219L145.098 193.442Z" fill="#E3E2E9"/>
<path opacity="0.65" d="M126.422 193.442H135.543L144.667 202.563H135.543L126.422 193.442Z" fill="#E3E2E9"/>
<path opacity="0.4" d="M107.746 193.442H116.867L125.991 202.563H116.867L107.746 193.442Z" fill="#E3E2E9"/>
</svg>
