<svg width="323" height="114" viewBox="0 0 323 114" fill="none" xmlns="http://www.w3.org/2000/svg">
<path d="M174.492 12.5428V12.2228L183.965 1.12381H311.541L321.014 12.2236V85.7124L298.248 112.386H93.2264L83.8498 101.4V101.08H83.5253H26.9971H26.6726V101.4L17.296 112.386H10.4801L1.00662 101.286V12.2236L10.4794 1.12381H107.841L117.314 12.2228V12.5428H117.638H174.168H174.492Z" stroke="white" strokeWidth="0.64898"/>
<path d="M298.397 113.035H298.547L298.644 112.922L321.585 86.0427L321.663 85.9517V85.832V12.1038V11.9842L321.585 11.8932L311.938 0.588723L311.84 0.474878H311.691H183.815H183.666L183.569 0.588713L173.921 11.8923L173.92 11.8938H117.887L117.885 11.8923L108.238 0.588713L108.141 0.474878H107.991H10.3297H10.1801L10.0829 0.588723L0.435422 11.8932L0.357757 11.9842V12.1038V101.405V101.525L0.435422 101.616L10.0837 112.921L10.1809 113.035H10.3305H17.4464H17.5961L17.6932 112.921L27.2438 101.731L27.2451 101.73H83.2783L83.2796 101.731L92.8302 112.921L92.9274 113.035H93.077L298.397 113.035ZM83.3921 101.994L83.295 101.88H83.1453H27.3781H27.2284L27.1313 101.994L17.5794 113.185H10.1976L0.32449 101.617V11.8924L10.1968 0.32449H108.124L117.773 11.6296L117.87 11.7434H118.02H173.787H173.937L174.034 11.6296L183.683 0.32449H311.824L321.696 11.8924V86.0435L298.614 113.088L298.503 113.186L298.397 113.186L92.9441 113.185L83.3921 101.994Z" stroke="white" strokeWidth="0.64898"/>
<path opacity="0.2" d="M312.038 89.3809L296.346 107.766H212.272" stroke="white" strokeWidth="0.64898"/>
<path d="M299.54 34.7955L299.943 31.4556L299.54 31.1021L299.137 31.4552L299.54 34.7955ZM299.54 24.6278L299.967 24.2514L299.54 20.786L299.113 24.2518L299.54 24.6278ZM299.541 40.4958H299.539L298.405 31.0984L299.54 30.104L300.675 31.0989L299.541 40.4958ZM299.54 25.628L298.38 24.6061L299.54 15.189L300.7 24.6057L299.54 25.628Z" fill="white"/>
<path d="M293.606 27.7379L296.457 28.2105L296.759 27.7377L296.457 27.2655L293.606 27.7379ZM302.284 27.7377L302.606 28.2381L305.563 27.7379L302.605 27.2379L302.284 27.7377ZM288.741 27.7387V27.7367L296.762 26.4077L297.611 27.7377L296.762 29.0683L288.741 27.7387ZM301.431 27.7377L302.303 26.3792L310.34 27.7377L302.303 29.0969L301.431 27.7377Z" fill="white"/>
<path d="M295.345 22.5776L297.075 25.2734L297.574 25.1891L297.646 24.6056L295.345 22.5776ZM301.481 29.7671L301.407 30.3871L303.8 32.4838L302.01 29.6796L301.481 29.7671ZM291.904 18.5475L291.906 18.5461L298.379 24.2513L298.176 25.8949L296.773 26.1322L291.904 18.5475ZM300.878 29.0598L302.314 28.8218L307.178 36.4413L300.674 30.7438L300.878 29.0598Z" fill="white"/>
<path d="M303.737 22.5796L301.436 24.6072L301.508 25.1914L302.006 25.2756L303.737 22.5796ZM297.601 29.7694L297.072 29.6818L295.282 32.4859L297.676 30.3887L297.601 29.7694ZM307.177 18.5484L307.178 18.5498L302.309 26.1344L300.906 25.8972L300.703 24.2528L307.177 18.5484ZM298.205 29.0622L298.408 30.7454L291.905 36.4437L296.767 28.824L298.205 29.0622Z" fill="white"/>
</svg>
