<svg width="323" height="114" viewBox="0 0 323 114" fill="none" xmlns="http://www.w3.org/2000/svg">
<path d="M174.492 12.5428V12.2228L183.965 1.12381H311.541L321.014 12.2236V85.7124L298.248 112.386H93.2264L83.8498 101.4V101.08H83.5253H26.9971H26.6726V101.4L17.296 112.386H10.4801L1.00662 101.286V12.2236L10.4794 1.12381H107.841L117.314 12.2228V12.5428H117.638H174.168H174.492Z" stroke="white" strokeWidth="0.64898"/>
<path d="M298.397 113.035H298.547L298.644 112.922L321.585 86.0427L321.663 85.9517V85.832V12.1038V11.9842L321.585 11.8932L311.938 0.588723L311.84 0.474878H311.691H183.815H183.666L183.569 0.588713L173.921 11.8923L173.92 11.8938H117.887L117.885 11.8923L108.238 0.588713L108.141 0.474878H107.991H10.3297H10.1801L10.0829 0.588723L0.435422 11.8932L0.357757 11.9842V12.1038V101.405V101.525L0.435422 101.616L10.0837 112.921L10.1809 113.035H10.3305H17.4464H17.5961L17.6932 112.921L27.2438 101.731L27.2451 101.73H83.2783L83.2796 101.731L92.8302 112.921L92.9274 113.035H93.077L298.397 113.035ZM83.3921 101.994L83.295 101.88H83.1453H27.3781H27.2284L27.1313 101.994L17.5794 113.185H10.1976L0.32449 101.617V11.8924L10.1968 0.32449H108.124L117.773 11.6296L117.87 11.7434H118.02H173.787H173.937L174.034 11.6296L183.683 0.32449H311.824L321.696 11.8924V86.0435L298.614 113.088L298.503 113.186L298.397 113.186L92.9441 113.185L83.3921 101.994Z" stroke="white" strokeWidth="0.64898"/>
<path opacity="0.2" d="M312.038 89.3809L296.346 107.766H212.272" stroke="white" strokeWidth="0.64898"/>
</svg>
