<svg  viewBox="0 0 84 67" fill="none" xmlns="http://www.w3.org/2000/svg">
<g id="Logo">
<path id="Vector" d="M52.436 57.145C52.4977 57.7914 52.5552 58.3815 52.6098 58.9717C52.636 59.2517 52.4966 59.3771 52.2219 59.355C51.7087 59.3149 51.1965 59.2697 50.6116 59.2206C50.5641 59.5508 50.4803 59.8498 50.4843 60.1479C50.5045 61.9785 50.5348 63.8092 50.5864 65.6398C50.5985 66.0613 50.4621 66.2038 50.0409 66.1788C49.5216 66.1476 48.9983 66.1496 48.4781 66.1777C47.9831 66.2038 47.8255 65.984 47.8497 65.5214C47.9275 64.049 48.0094 62.5767 48.0447 61.1024C48.0589 60.4962 47.9599 59.887 47.9144 59.3079H45.8657C45.9354 58.7278 45.997 58.1447 46.0799 57.5646C46.1324 57.2002 46.4335 57.2364 46.6951 57.2364C48.2235 57.2394 49.7519 57.2524 51.2804 57.2454C51.6592 57.2434 52.038 57.1812 52.435 57.144L52.436 57.145Z" fill="#E84855"/>
<g id="logo text">
<path id="Vector_2" d="M28.0288 66.0873C27.261 66.0873 26.5216 66.0793 25.7831 66.0913C25.4508 66.0963 25.3376 65.9538 25.3518 65.6367C25.3942 64.6581 25.4225 63.6796 25.4548 62.701C25.4598 62.5395 25.4548 62.3779 25.4548 62.0647C25.3083 62.2896 25.2245 62.3819 25.181 62.4893C24.7113 63.6354 24.2567 64.7886 23.7728 65.9287C23.7112 66.0743 23.5223 66.2138 23.3637 66.2599C23.1101 66.3332 22.9 66.2569 22.7737 65.9609C22.303 64.8518 21.806 63.7539 21.317 62.6529C21.2514 62.5063 21.1736 62.3648 21.015 62.2283C21.015 63.1968 21.021 64.1653 21.013 65.1339C21.0029 66.3352 21.1807 66.1576 19.9785 66.1716C19.626 66.1756 19.2714 66.1576 18.9198 66.1766C18.5834 66.1947 18.4683 66.0532 18.4895 65.733C18.5622 64.628 18.643 63.522 18.6814 62.415C18.7006 61.872 18.6279 61.3261 18.6057 60.7801C18.5915 60.4298 18.5935 60.0796 18.5925 59.7293C18.5905 58.9214 18.5925 58.1124 18.5925 57.2523C19.3088 57.2523 20.0957 57.2373 20.8806 57.2684C21.0008 57.2734 21.1564 57.4681 21.2231 57.6086C21.7969 58.822 22.3505 60.0454 22.9222 61.2608C23.0081 61.4435 23.1566 61.597 23.2758 61.7647C23.4071 61.592 23.5718 61.4355 23.6647 61.2438C24.2719 59.9983 24.8689 58.7477 25.4568 57.4932C25.5659 57.2604 25.6356 57.171 25.9569 57.2182C26.4397 57.2885 26.9479 57.1871 27.4459 57.164C27.6287 57.156 27.8126 57.163 28.0278 57.163V66.0883L28.0288 66.0873Z" fill="#E84855"/>
<path id="Vector_3" d="M36.3514 61.6692C36.2827 60.3224 36.7868 59.1672 37.6899 58.2217C38.391 57.4881 39.284 57.0575 40.3609 57.0385C41.3034 57.0214 42.2055 57.0425 43.0642 57.5212C44.3269 58.2248 45.0724 59.2615 45.3361 60.6666C45.6099 62.1279 45.3543 63.4637 44.4441 64.6631C43.9107 65.3656 43.1945 65.8413 42.3863 66.1193C40.87 66.6422 39.3871 66.4545 38.1344 65.4529C37.0454 64.5818 36.2989 63.4728 36.3514 61.6692ZM38.7739 61.6722C38.7779 62.8535 39.779 63.9806 40.8397 63.9615C42.1075 63.9394 43.0319 62.8646 42.9935 61.6401C42.95 60.2551 42.2005 59.3729 40.87 59.3589C39.7891 59.3468 38.7698 60.49 38.7739 61.6722Z" fill="#E84855"/>
<path id="Vector_4" d="M8.55399 66.0713C8.42166 66.0713 8.27417 66.1115 8.16304 66.0653C7.19528 65.6659 6.30126 66.1305 5.36885 66.247C2.8373 66.5631 0.697703 65.4411 0.141085 62.7965C-0.242789 60.9749 0.136034 59.339 1.53212 58.0091C2.09985 57.4682 2.81103 57.1691 3.5515 57.0808C4.83243 56.9282 6.10932 56.9925 7.1872 57.8626C7.22558 57.8937 7.27003 57.9188 7.30842 57.9499C8.00646 58.517 8.03576 58.7167 7.48015 59.4112C7.21245 59.7464 6.91849 60.0616 6.61745 60.4088C6.01941 59.7715 5.34157 59.358 4.51523 59.3771C4.13237 59.3861 3.69192 59.5447 3.38482 59.7755C2.30694 60.5875 2.31503 62.1883 2.92417 63.0594C3.54443 63.9466 4.62433 64.313 6.05982 63.5311C5.98911 62.8306 5.91738 62.1331 5.84263 61.3944H8.55399V66.0703V66.0713Z" fill="#E84855"/>
<path id="Vector_5" d="M13.3505 64.7785C13.201 64.7916 13.0454 64.8377 12.902 64.8126C12.1251 64.6782 11.7311 65.0194 11.6352 65.7691C11.5968 66.0682 11.4099 66.1816 11.1099 66.1746C10.5553 66.1625 9.99967 66.1525 9.44608 66.1776C9.0127 66.1967 8.93694 65.9447 9.03594 65.6416C9.30768 64.8066 9.61781 63.9826 9.91885 63.1566C10.3896 61.862 10.8624 60.5673 11.3402 59.2746C11.5907 58.5981 11.8433 57.9217 12.1191 57.2553C12.1585 57.1589 12.3342 57.0586 12.4443 57.0606C13.0262 57.0726 13.6071 57.1499 14.1879 57.1369C14.5395 57.1288 14.6526 57.3045 14.7577 57.5674C15.2123 58.7186 15.68 59.8657 16.1305 61.0189C16.5437 62.0777 16.9448 63.1406 17.3448 64.2044C17.5125 64.6511 17.6711 65.1017 17.8216 65.5553C17.9822 66.0411 17.8943 66.1655 17.4024 66.1696C16.8144 66.1736 16.2245 66.1455 15.6386 66.1796C15.288 66.1997 15.1517 66.019 15.0729 65.75C14.7971 64.8096 14.8011 64.8086 13.8566 64.8076C13.6889 64.8076 13.5212 64.8076 13.3535 64.8076C13.3535 64.7976 13.3525 64.7865 13.3515 64.7765L13.3505 64.7785ZM13.5313 60.2913C13.3828 60.3997 13.3222 60.4207 13.3091 60.4579C13.0868 61.0801 12.8605 61.7014 12.6696 62.3337C12.6474 62.4059 12.8272 62.6217 12.9272 62.6317C13.2868 62.6689 13.6525 62.6468 14.1566 62.6468C13.9404 61.8339 13.7465 61.1002 13.5313 60.2913Z" fill="#E84855"/>
<path id="Vector_6" d="M35.3629 60.4598C35.3053 61.2256 35.2538 61.9131 35.1982 62.6528H31.813C31.813 62.9328 31.7939 63.1636 31.8171 63.3904C31.8656 63.8521 32.1808 64.0699 32.8606 64.0609C33.6445 64.0518 34.4274 63.9986 35.2113 63.9675C35.375 63.9615 35.5386 63.9675 35.7973 63.9675C35.7043 64.6731 35.6376 65.3224 35.5184 65.9617C35.4962 66.0822 35.2608 66.2508 35.1255 66.2488C34.3941 66.2357 33.6637 66.1514 32.9313 66.1384C31.7898 66.1193 30.6483 66.1464 29.5068 66.1273C29.3987 66.1253 29.1987 65.9326 29.2017 65.8343C29.2441 64.644 29.33 63.4557 29.3744 62.2654C29.3936 61.7535 29.3421 61.2397 29.3209 60.7268C29.3199 60.6947 29.2946 60.6636 29.2946 60.6325C29.2936 59.5244 29.2936 58.4164 29.2936 57.2522H31.1251C32.403 57.2522 33.6809 57.2602 34.9578 57.2462C35.3013 57.2422 35.4417 57.3566 35.4487 57.7039C35.4568 58.1665 35.5104 58.6292 35.5427 59.0919C35.5659 59.4251 35.376 59.4682 35.0942 59.4462C34.1506 59.3729 33.2061 59.3077 32.2606 59.2565C31.8716 59.2354 31.7898 59.4993 31.811 59.8215C31.8343 60.1848 31.8838 60.5582 32.3626 60.5522C33.1465 60.5421 33.9294 60.4909 34.7133 60.4608C34.9103 60.4528 35.1093 60.4598 35.3619 60.4598H35.3629Z" fill="#E84855"/>
<path id="Vector_7" d="M56.9351 57.2114C57.9432 57.2626 58.7736 57.3048 59.6919 57.3519C59.6323 58.1689 59.5555 58.9527 59.5282 59.7386C59.5151 60.1169 59.5171 60.5304 59.6545 60.8727C59.9697 61.6575 60.3707 62.4082 60.7476 63.1931C62.1457 61.4498 62.4083 59.4877 62.1194 57.369C63.0498 57.3168 63.8862 57.2696 64.8085 57.2185C64.6449 58.751 65.048 60.2294 64.2853 61.6154C63.5286 62.9893 62.8498 64.4055 62.1063 65.7865C62.0103 65.9651 61.7315 66.0474 61.5355 66.1699C61.5113 66.1849 61.4688 66.1668 61.4365 66.1729C60.2071 66.4007 59.4353 66.0053 58.9615 64.7618C58.4544 63.4299 57.6988 62.1905 57.0654 60.9048C56.9815 60.7342 56.9442 60.5254 56.9421 60.3337C56.93 59.3251 56.9361 58.3154 56.9361 57.2114H56.9351Z" fill="#E84855"/>
<path id="Vector_8" d="M81.1876 66.0945H78.4439C78.4753 65.386 78.5237 64.7286 78.5248 64.0722C78.5248 63.8163 78.4813 63.5212 78.349 63.3115C77.6812 62.2516 76.9721 61.2169 76.2953 60.1631C76.1872 59.9934 76.1336 59.7696 76.1175 59.5659C76.0558 58.8232 76.0215 58.0785 75.97 57.2254C76.8791 57.2676 77.7328 57.3077 78.6803 57.3519C78.4136 58.8473 78.7187 60.138 79.9037 61.0764C81.1866 60.1711 81.1735 58.8021 81.0129 57.3679C81.9281 57.3147 82.7686 57.2666 83.6838 57.2134C83.5899 58.5783 83.9919 59.9292 83.0393 61.1045C82.5888 61.6615 82.3009 62.363 81.8028 62.8638C80.8644 63.8083 81.2008 64.9133 81.1897 66.0945H81.1876Z" fill="#E84855"/>
<path id="Vector_9" d="M71.1628 59.3078H69.0161C69.1242 58.5882 69.2303 57.8846 69.3313 57.2202H75.7016C75.7016 57.8194 75.742 58.4527 75.6885 59.0769C75.648 59.5527 75.2238 59.3359 74.9641 59.3339C74.556 59.3299 74.1479 59.2636 73.7357 59.2235V66.1004C73.3509 66.1214 72.9165 66.1636 72.4821 66.1646C71.0618 66.1696 71.0486 66.1646 71.0658 64.7465C71.085 63.0995 71.1305 61.4535 71.1628 59.8066C71.1658 59.642 71.1628 59.4784 71.1628 59.3068V59.3078Z" fill="#E84855"/>
<path id="Vector_10" d="M53.2584 57.2133C54.1797 57.2133 54.9828 57.2042 55.7859 57.2263C55.8738 57.2283 56.0344 57.408 56.0304 57.4993C55.9839 58.5391 55.8981 59.5778 55.8526 60.6176C55.8213 61.3332 55.8243 62.0508 55.8364 62.7664C55.8546 63.7951 55.9051 64.8228 55.9092 65.8505C55.9092 65.9559 55.69 66.1486 55.5657 66.1546C54.9121 66.1857 54.2565 66.1747 53.6009 66.1687C53.2877 66.1657 53.1827 65.996 53.1968 65.6859C53.2736 63.9145 53.3655 62.1421 53.3918 60.3697C53.4069 59.347 53.3079 58.3213 53.2574 57.2133H53.2584Z" fill="#E84855"/>
<path id="Vector_11" d="M65.714 57.2393H68.3375V66.1084C67.8132 66.1294 67.2959 66.1656 66.7777 66.1686C65.3645 66.1756 65.6312 66.298 65.621 64.8458C65.618 64.3691 65.6897 63.8923 65.713 63.4146C65.7534 62.5876 65.811 61.7606 65.8079 60.9336C65.8049 59.8899 65.7473 58.8461 65.715 57.8023C65.7099 57.6377 65.715 57.4731 65.715 57.2403L65.714 57.2393Z" fill="#E84855"/>
</g>
<path id="Vector_12" d="M53.8402 12.7211C53.7311 12.5726 53.629 12.4191 53.5351 12.2595C53.1411 11.586 52.8744 10.8122 52.2956 10.2873C51.9218 9.94811 51.447 9.74236 50.9742 9.56372C43.9837 6.91212 35.3738 9.34492 30.834 15.2543C26.2942 21.1637 26.2033 30.0569 30.6229 36.0566C35.0415 42.0563 43.5998 44.6618 50.6429 42.1507C51.0066 42.0212 51.3834 41.8657 51.6167 41.5605C51.8481 41.2575 51.8976 40.857 51.9309 40.4776C52.0552 39.0364 52.0521 37.5842 51.9208 36.1429C51.8905 35.8097 51.843 35.4514 51.6147 35.2055C51.2632 34.8242 50.657 34.8703 50.1408 34.9356C47.3567 35.2858 44.2999 35.2487 42.0451 33.5887C40.546 32.4847 39.5661 30.7052 39.4651 28.8546C39.3631 27.0039 40.15 25.119 41.5562 23.9006C43.0937 22.5688 45.2101 22.0911 47.2486 22.0208C49.2872 21.9506 51.3218 22.2386 53.3613 22.2246C55.1231 22.2125 56.8849 21.9736 58.6426 22.1001C60.4004 22.2266 62.2157 22.7765 63.4057 24.0682C64.4987 25.2545 64.924 26.9155 64.9988 28.5213C65.0735 30.1272 64.8382 31.731 64.7967 33.3388C64.7018 36.996 65.6473 41.0487 63.9542 44.4791C63.3087 45.7868 62.1359 46.7885 60.7196 47.1839C59.6751 47.476 58.579 47.5392 57.5254 47.7991C56.2949 48.1032 55.1494 48.6683 53.9755 49.144C46.2273 52.2824 36.9204 51.2888 30.0198 46.5867C23.1191 41.8847 18.8339 33.6168 18.9894 25.3057C19.145 16.9936 23.7364 8.89028 30.8077 4.44619C37.8791 0.00210249 47.2173 -0.647248 54.8433 2.77514C55.7494 3.18161 56.6425 3.64529 57.6143 3.85505C58.3012 4.00359 59.0114 4.02065 59.6973 4.17119C62.1005 4.69609 63.9805 6.99843 64.0179 9.44228C64.0553 11.8861 62.2561 14.2376 59.8801 14.8719C57.683 15.4581 55.1817 14.5357 53.8402 12.7232V12.7211ZM27.4559 41.9429C28.656 43.2055 29.9965 44.3356 31.4573 45.2951C35.4738 47.9306 40.3258 49.2253 45.1262 49.1129C47.5638 49.0557 49.9954 48.6372 52.3006 47.8453C53.2532 47.5181 54.3432 47.3967 54.3584 46.2505C54.3736 45.1044 53.1926 44.2272 52.2229 44.0044C50.8995 43.6993 49.5327 44.1108 48.2023 44.3808C42.2522 45.5871 35.7627 43.7806 31.3098 39.6777C26.8568 35.5749 24.5546 29.2831 25.3163 23.2974C26.078 17.3118 29.8844 11.7868 35.2253 8.91436C40.5662 6.04297 47.3032 5.89744 52.7643 8.538C53.1856 7.08876 54.1018 5.78704 55.3272 4.89682C48.2558 1.25865 39.3075 1.50755 32.4533 5.53413C25.5992 9.56071 21.0664 17.2305 20.8684 25.1401C20.7139 31.3094 23.1999 37.4637 27.4549 41.9429H27.4559ZM50.2792 23.7902C49.8752 23.7902 49.4721 23.7912 49.068 23.7922C49.5307 24.0742 49.8681 24.5168 50.1681 24.9665C50.6106 25.6289 50.9995 26.3405 51.1823 27.1143C51.3147 27.6743 51.3359 28.2584 51.2723 28.8305C51.1652 29.794 50.8116 30.7334 50.2267 31.5092C49.7044 32.2017 49.0145 32.7476 48.3326 33.2856C49.2589 33.2916 50.1853 33.2966 51.1116 33.3027C51.3066 33.3037 51.5561 33.3187 51.7369 33.2314C52.0117 33.0969 51.9541 32.9203 51.9693 32.6312C51.9976 32.0732 52.0178 31.5142 52.0016 30.9552C51.9703 29.8983 51.8087 28.8355 51.9652 27.7897C52.1915 26.2782 53.0664 24.9354 54.0786 23.7852C52.8118 23.7872 51.546 23.7902 50.2792 23.7922V23.7902ZM63.1754 34.7017C63.1623 34.2019 63.1501 33.7011 63.137 33.2013C61.8753 34.4097 60.0923 34.9767 58.3416 35.0389C57.3678 35.0741 56.395 34.9657 55.4211 34.9617C54.8827 34.9597 54.3433 34.9888 53.8078 35.049C53.7472 35.056 53.6806 35.066 53.6422 35.1132C53.6078 35.1554 53.6068 35.2146 53.6068 35.2698C53.6189 36.5103 53.6311 37.7498 53.6432 38.9902C54.4917 37.4898 56.0656 36.4169 57.7799 36.169C59.4942 35.9221 61.3106 36.5062 62.5531 37.7046C62.6794 37.827 62.9885 38.1402 63.1724 37.9685C63.34 37.811 63.237 37.1064 63.232 36.8937C63.2128 36.163 63.1946 35.4324 63.1754 34.7017ZM55.6403 6.7415C55.3918 6.70738 55.2918 6.81677 55.3302 7.05965C55.0928 7.53337 54.7685 7.98299 54.6322 8.48381C53.8715 11.2599 56.3 13.7188 58.8861 13.3745C60.7388 13.1276 62.0965 11.4937 62.2682 10.1288C62.5733 7.71001 61.0055 6.22864 59.5064 5.78504C58.0426 5.35247 56.7627 5.75995 55.6413 6.7425L55.6403 6.7415ZM49.5751 28.3086C49.6943 26.1728 47.7972 24.3904 45.7394 24.3783C43.7908 24.3663 41.7805 25.9641 41.7724 28.2152C41.7643 30.4473 43.6635 32.1786 45.7172 32.1706C47.8437 32.1625 49.662 30.3178 49.5741 28.3086H49.5751ZM62.4885 41.6669C62.547 39.6637 60.9216 37.7688 58.6194 37.7508C56.2737 37.7327 54.6827 39.7028 54.7059 41.6298C54.7322 43.8368 56.4111 45.5239 58.6346 45.5239C60.7812 45.5239 62.4874 43.8167 62.4874 41.6669H62.4885ZM54.914 28.5826C54.9473 30.9903 56.6182 32.4997 58.6871 32.5178C60.8024 32.5359 62.6743 31.0575 62.6875 28.5695C62.6996 26.4097 60.96 24.6824 58.7972 24.6824C56.6495 24.6824 54.914 26.4258 54.913 28.5816L54.914 28.5826ZM55.5787 33.2916C54.9049 32.5028 54.2453 31.73 53.6109 30.9873C53.6109 31.5925 53.5967 32.282 53.625 32.9705C53.6301 33.0819 53.821 33.2705 53.9351 33.2766C54.4978 33.3087 55.0625 33.2906 55.5787 33.2906V33.2916ZM19.9148 24.9053L19.7633 24.9113V26.6295H19.9148V24.9053ZM26.182 22.7675C25.6719 22.904 25.9396 23.2171 26.0184 23.444C26.0477 23.5293 26.2174 23.5664 26.3225 23.6266C26.3305 23.5182 26.3619 23.4058 26.3417 23.3025C26.3093 23.1328 26.2437 22.9682 26.182 22.7685V22.7675ZM42.2209 43.7705C42.5371 44.2914 42.5987 44.3085 42.9876 43.9883C42.7826 43.7344 42.5997 43.4474 42.2209 43.7705ZM48.7498 1.52361H47.9598C48.1912 2.02743 48.2689 2.03446 48.7498 1.52361ZM41.0854 43.8719C40.9107 43.7274 40.8036 43.6401 40.6975 43.5528C40.6298 43.6481 40.5036 43.7485 40.5106 43.8388C40.5187 43.9341 40.642 44.0726 40.7349 44.0917C40.8137 44.1078 40.9228 43.9803 41.0844 43.8719H41.0854ZM27.9974 18.1418C27.9297 18.1157 27.861 18.0886 27.7933 18.0625C27.7266 18.219 27.6589 18.3756 27.5923 18.5322C27.6721 18.5623 27.7509 18.5914 27.8307 18.6215C27.8862 18.4619 27.9428 18.3013 27.9984 18.1418H27.9974ZM26.48 30.4724C26.3982 30.5647 26.3164 30.623 26.2911 30.6992C26.277 30.7414 26.3588 30.8146 26.3972 30.8739C26.476 30.8116 26.5649 30.7584 26.6235 30.6812C26.6366 30.6641 26.5467 30.5678 26.48 30.4724ZM26.8558 19.0581C26.8346 19.1093 26.8134 19.1605 26.7922 19.2106C26.8962 19.2518 27.0003 19.2929 27.1043 19.3341C27.1225 19.2919 27.1407 19.2498 27.1589 19.2086C27.0579 19.1584 26.9558 19.1083 26.8548 19.0581H26.8558ZM30.0531 5.59435C29.9955 5.67363 29.9278 5.72783 29.9379 5.76195C29.9521 5.81414 30.0188 5.85328 30.0632 5.89744C30.1026 5.85629 30.1733 5.81615 30.1743 5.775C30.1743 5.72783 30.1137 5.67966 30.0531 5.59435ZM19.9613 29.4166C19.9592 29.4557 19.9562 29.4959 19.9542 29.535C20.0522 29.54 20.1502 29.544 20.2471 29.5491C20.2492 29.5099 20.2512 29.4718 20.2532 29.4326C20.1562 29.4276 20.0582 29.4226 19.9613 29.4166ZM43.4594 1.39515C43.3756 1.31887 43.3351 1.25363 43.2887 1.24861C43.2463 1.2436 43.1968 1.30482 43.1503 1.33593C43.1887 1.3831 43.219 1.45035 43.2685 1.47142C43.3018 1.48547 43.3634 1.43629 43.4594 1.39515ZM33.9141 40.8309C33.8686 40.7888 33.8423 40.7426 33.809 40.7376C33.7706 40.7315 33.7262 40.7607 33.6837 40.7747C33.7141 40.8158 33.7373 40.87 33.7777 40.8921C33.7989 40.9042 33.8514 40.861 33.9131 40.8309H33.9141ZM45.7162 1.32991C45.6657 1.28976 45.6354 1.24761 45.602 1.2446C45.5626 1.24159 45.5202 1.27371 45.4798 1.29077C45.5152 1.32991 45.5455 1.38009 45.5899 1.40217C45.6101 1.41221 45.6586 1.36504 45.7172 1.33091L45.7162 1.32991ZM27.0064 30.7173C27.0346 30.7293 27.069 30.7574 27.0892 30.7494C27.1094 30.7414 27.1155 30.6982 27.1276 30.6701C27.0993 30.6581 27.0649 30.63 27.0458 30.638C27.0256 30.646 27.0195 30.6892 27.0064 30.7173Z" fill="url(#paint0_linear_17_29928)"/>
<path id="Vector_13" d="M42.9874 43.9884C42.5995 44.3085 42.5369 44.2915 42.2207 43.7706C42.6005 43.4474 42.7824 43.7345 42.9874 43.9884Z" fill="#724DF9"/>
<path id="Vector_14" d="M46.8316 43.8036C46.5335 43.9501 46.3022 44.0625 46.0719 44.1759C46.0689 44.0655 46.0204 43.92 46.0729 43.8527C46.2315 43.65 46.3871 43.3108 46.8316 43.8036Z" fill="#724DF9"/>
<path id="Vector_15" d="M19.9145 24.9053V26.6295H19.7629V24.9113L19.9145 24.9053Z" fill="#734DF9"/>
<path id="Vector_16" d="M29.7693 13.5019C29.839 13.4146 29.9097 13.3283 29.9794 13.241C30.1663 13.4216 30.3542 13.6023 30.5936 13.8341C30.0824 14.0379 29.8612 13.8963 29.7693 13.5019Z" fill="#734DF9"/>
<path id="Vector_17" d="M26.1827 22.7676C26.2443 22.9683 26.31 23.1319 26.3423 23.3015C26.3615 23.4049 26.3312 23.5173 26.3231 23.6257C26.2181 23.5665 26.0484 23.5284 26.0191 23.4431C25.9413 23.2162 25.6736 22.9031 26.1827 22.7666V22.7676Z" fill="#734DF9"/>
<path id="Vector_18" d="M30.9361 14.596C30.7926 14.7867 30.6492 14.9774 30.5057 15.1681C30.4037 14.9312 30.3006 14.6953 30.136 14.314C30.4825 14.4364 30.7098 14.5167 30.9371 14.597L30.9361 14.596Z" fill="#734DF9"/>
<path id="Vector_19" d="M31.7957 11.4364C31.8674 11.3712 31.9391 11.306 32.0108 11.2407C32.1543 11.4836 32.6351 11.597 32.2795 12.0808C32.1058 11.8489 31.9502 11.6432 31.7957 11.4364Z" fill="#734DF9"/>
<path id="Vector_20" d="M48.7502 1.52368C48.2693 2.03453 48.1915 2.02751 47.9602 1.52368H48.7502Z" fill="#734DF9"/>
<path id="Vector_21" d="M41.0853 43.8709C40.9237 43.9793 40.8146 44.1068 40.7358 44.0907C40.6418 44.0716 40.5186 43.9321 40.5115 43.8378C40.5044 43.7485 40.6307 43.6481 40.6984 43.5518C40.8045 43.6391 40.9116 43.7264 41.0863 43.8709H41.0853Z" fill="#734DF9"/>
<path id="Vector_22" d="M55.6205 3.04418C55.7316 3.13451 55.8417 3.22584 55.9528 3.31617C55.6629 3.32319 55.2952 3.59718 55.1588 3.09035C55.1467 3.04418 55.1982 2.98196 55.2194 2.92676C55.3528 2.9659 55.4861 3.00504 55.6205 3.04519V3.04418Z" fill="#734DF9"/>
<path id="Vector_23" d="M52.7009 3.71667C52.5979 3.65445 52.4959 3.59323 52.3928 3.531C52.5393 3.48383 52.7232 3.36038 52.8211 3.40956C52.9494 3.47279 53.0101 3.67251 53.1 3.81403C52.9666 3.78191 52.8333 3.74979 52.6999 3.71667H52.7009Z" fill="#734DF9"/>
<path id="Vector_24" d="M27.9972 18.1408C27.9416 18.3004 27.885 18.461 27.8295 18.6205C27.7497 18.5904 27.6709 18.5613 27.5911 18.5312C27.6577 18.3747 27.7254 18.2181 27.7921 18.0615C27.8598 18.0876 27.9285 18.1147 27.9962 18.1408H27.9972Z" fill="#734DF9"/>
<path id="Vector_25" d="M32.3302 13.1558C32.0918 13.3926 31.8534 13.6295 31.615 13.8663C31.6473 13.4247 31.8857 13.1879 32.3302 13.1558Z" fill="#734DF9"/>
<path id="Vector_26" d="M26.4796 30.4714C26.5463 30.5668 26.6362 30.6631 26.623 30.6802C26.5634 30.7565 26.4745 30.8107 26.3968 30.8729C26.3584 30.8137 26.2765 30.7404 26.2907 30.6983C26.3159 30.622 26.3978 30.5638 26.4796 30.4714Z" fill="#734DF9"/>
<path id="Vector_27" d="M29.302 7.55834C29.1969 7.65068 29.0908 7.74201 28.9858 7.83434C28.9635 7.72595 28.9423 7.61856 28.8999 7.41382C29.0726 7.47604 29.1868 7.51719 29.302 7.55834Z" fill="#734DF9"/>
<path id="Vector_28" d="M57.845 4.04175C57.9813 4.04175 58.1177 4.04376 58.2531 4.04476C58.1763 4.12906 58.0985 4.21337 58.0218 4.29767C57.9632 4.21237 57.9036 4.12706 57.845 4.04175Z" fill="#734DF9"/>
<path id="Vector_29" d="M26.8556 19.0571C26.9566 19.1073 27.0586 19.1575 27.1597 19.2077C27.1415 19.2498 27.1233 19.292 27.1051 19.3331C27.0011 19.292 26.897 19.2508 26.793 19.2097C26.8142 19.1585 26.8354 19.1073 26.8566 19.0571H26.8556Z" fill="#734DF9"/>
<path id="Vector_30" d="M30.0533 5.59326C30.1139 5.67757 30.1755 5.72674 30.1745 5.77392C30.1745 5.81506 30.1028 5.85521 30.0634 5.89636C30.0189 5.8522 29.9522 5.81306 29.9381 5.76087C29.929 5.72674 29.9957 5.67255 30.0533 5.59326Z" fill="#734DF9"/>
<path id="Vector_31" d="M19.9607 29.4155C20.0577 29.4205 20.1557 29.4256 20.2526 29.4316C20.2506 29.4707 20.2486 29.5089 20.2466 29.548C20.1486 29.543 20.0506 29.539 19.9536 29.534C19.9556 29.4948 19.9587 29.4547 19.9607 29.4155Z" fill="#734DF9"/>
<path id="Vector_32" d="M43.4595 1.39512C43.3646 1.43627 43.3029 1.48645 43.2686 1.47139C43.2191 1.45032 43.1888 1.38307 43.1504 1.3359C43.1969 1.30379 43.2464 1.24357 43.2888 1.24859C43.3353 1.2536 43.3747 1.31884 43.4595 1.39512Z" fill="#734DF9"/>
<path id="Vector_33" d="M33.9139 40.8319C33.8523 40.862 33.7997 40.9052 33.7785 40.8932C33.7381 40.8711 33.7149 40.8169 33.6846 40.7757C33.726 40.7617 33.7704 40.7326 33.8098 40.7386C33.8432 40.7436 33.8694 40.7898 33.9149 40.8319H33.9139Z" fill="#734DF9"/>
<path id="Vector_34" d="M55.6408 6.74146C55.5378 6.84684 55.4338 6.95322 55.3307 7.0586C55.2923 6.81673 55.3923 6.70733 55.6408 6.74146Z" fill="#734DF9"/>
<path id="Vector_35" d="M45.7162 1.32992C45.6586 1.36404 45.6101 1.41121 45.5889 1.40118C45.5444 1.3801 45.5151 1.32891 45.4788 1.28977C45.5192 1.27271 45.5616 1.2406 45.601 1.24361C45.6343 1.24662 45.6646 1.28877 45.7151 1.32891L45.7162 1.32992Z" fill="#734DF9"/>
<path id="Vector_36" d="M30.0857 15.7551C30.0291 15.8264 29.9736 15.8966 29.917 15.9679C29.9736 15.8976 30.0291 15.8264 30.0857 15.7551Z" fill="#734DF9"/>
<path id="Vector_37" d="M33.4407 12.1742C33.37 12.2364 33.2993 12.2977 33.2286 12.3599C33.268 12.2625 33.1144 11.9484 33.4407 12.1742Z" fill="#734DF9"/>
<path id="Vector_38" d="M55.3087 4.91295C55.3097 4.88786 55.3087 4.86176 55.3057 4.83667C55.3612 4.85674 55.4188 4.8738 55.4723 4.8999C55.4784 4.90291 55.4622 4.95309 55.4562 4.98119C55.4067 4.95911 55.3582 4.93603 55.3087 4.91395V4.91295Z" fill="#734DF9"/>
<path id="Vector_39" d="M27.0063 30.7172C27.0185 30.6891 27.0245 30.6459 27.0457 30.6379C27.066 30.6299 27.1003 30.658 27.1276 30.67C27.1154 30.6981 27.1094 30.7413 27.0892 30.7493C27.069 30.7573 27.0346 30.7292 27.0063 30.7172Z" fill="#734DF9"/>
<path id="Vector_40" d="M64.8837 30.8909C64.8837 30.924 64.8837 30.9571 64.8837 30.9912C64.8453 30.9742 64.8079 30.9581 64.7695 30.9411C64.8079 30.924 64.8453 30.9079 64.8837 30.8909Z" fill="#734DF9"/>
<path id="Vector_41" d="M64.8827 31.9929C64.8827 32.026 64.8827 32.0592 64.8827 32.0933C64.8443 32.0762 64.8069 32.0602 64.7695 32.0431C64.8069 32.026 64.8453 32.01 64.8827 31.9929Z" fill="#734DF9"/>
</g>
<defs>
<linearGradient id="paint0_linear_17_29928" x1="18.9854" y1="25.7762" x2="65.0133" y2="25.7762" gradientUnits="userSpaceOnUse">
<stop stop-color="#7F00FF"/>
<stop offset="1" stop-color="#E100FF"/>
</linearGradient>
</defs>
</svg>
