<svg  viewBox="0 0 13 13" fill="none" xmlns="http://www.w3.org/2000/svg">
<ellipse cx="5.5" cy="6" rx="5.5" ry="4" fill="#0B0A0A"/>
<path d="M6.16531 0C2.75199 0 0 2.75199 0 6.16531C0 9.57862 2.75199 12.3306 6.16531 12.3306C9.57862 12.3306 12.3306 9.57886 12.3306 6.16531C12.3306 2.75175 9.57886 0 6.16531 0ZM8.90212 6.45117L4.79714 8.85709C4.75186 8.88719 4.67672 8.90212 4.63169 8.90212C4.58665 8.90212 4.51127 8.88719 4.46623 8.85709C4.36099 8.78195 4.30078 8.69164 4.30078 8.57146V3.77456H4.28585C4.28585 3.65415 4.36099 3.53397 4.45106 3.4887C4.54137 3.44366 4.69165 3.41356 4.79714 3.4887L8.90212 5.87968C9.00737 5.95482 9.06758 6.04513 9.06758 6.16531C9.06758 6.28548 8.99244 6.4059 8.90212 6.45117Z" fill="white"/>
</svg>
