<svg width="201" height="204" viewBox="0 0 201 204" fill="none" xmlns="http://www.w3.org/2000/svg">
<path d="M91.9907 186.319C91.4106 184.289 90.3734 182.418 88.9586 180.851C87.5438 179.284 85.7889 178.061 83.8285 177.277L72.8389 172.881L78.0123 165.122C79.1482 163.418 79.7542 161.416 79.7541 159.368V155.593C79.7541 152.842 78.6613 150.204 76.716 148.258C74.7707 146.313 72.1323 145.22 69.3812 145.22C66.6302 145.22 63.9918 146.313 62.0465 148.258C60.1012 150.204 59.0084 152.842 59.0084 155.593V159.368C59.0082 161.416 59.6143 163.418 60.7501 165.122L65.9236 172.881L54.934 177.277C52.9735 178.061 51.2186 179.284 49.8038 180.851C48.389 182.418 47.3518 184.289 46.7718 186.319L41.7202 204H97.0422L91.9907 186.319ZM195.719 186.319C195.139 184.289 194.102 182.418 192.687 180.851C191.273 179.284 189.518 178.061 187.557 177.277L176.568 172.881L181.741 165.122C182.877 163.418 183.483 161.416 183.483 159.368V155.593C183.483 152.842 182.39 150.204 180.445 148.258C178.499 146.313 175.861 145.22 173.11 145.22C170.359 145.22 167.721 146.313 165.775 148.258C163.83 150.204 162.737 152.842 162.737 155.593V159.368C162.737 161.416 163.343 163.418 164.479 165.122L169.652 172.881L158.663 177.277C156.702 178.061 154.947 179.284 153.533 180.851C152.118 182.418 151.081 184.289 150.501 186.319L145.449 204H200.771L195.719 186.319Z" fill="#F2C34E"/>
<path d="M123.109 41.0987C122.529 39.0685 121.492 37.1981 120.077 35.6308C118.663 34.0636 116.908 32.8411 114.947 32.057L103.958 27.661L109.131 19.9012C110.267 18.1972 110.873 16.1952 110.873 14.1473V10.3729C110.873 7.62182 109.78 4.98344 107.835 3.03815C105.889 1.09285 103.251 0 100.5 0C97.749 0 95.1106 1.09285 93.1653 3.03815C91.22 4.98344 90.1272 7.62182 90.1272 10.3729V14.1473C90.127 16.1952 90.7331 18.1972 91.8689 19.9012L97.0424 27.661L86.0528 32.0565C84.0923 32.8407 82.3374 34.0633 80.9226 35.6306C79.5078 37.1979 78.4706 39.0684 77.8906 41.0987L72.839 58.7797H128.161L123.109 41.0987ZM63.0829 87.3786L52.0933 82.983L57.2667 75.2233C58.4026 73.5193 59.0086 71.5172 59.0085 69.4693V65.6949C59.0085 62.9439 57.9157 60.3055 55.9704 58.3602C54.0251 56.4149 51.3867 55.322 48.6356 55.322C45.8846 55.322 43.2462 56.4149 41.3009 58.3602C39.3556 60.3055 38.2627 62.9439 38.2627 65.6949V69.4693C38.2626 71.5172 38.8687 73.5193 40.0045 75.2233L45.178 82.983L34.1884 87.3786C32.2279 88.1627 30.473 89.3853 29.0582 90.9526C27.6434 92.52 26.6062 94.3905 26.0262 96.4207L20.9746 114.102H76.2966L71.245 96.4207C70.665 94.3905 69.6278 92.5201 68.213 90.9529C66.7982 89.3856 65.0433 88.1631 63.0829 87.379V87.3786ZM174.974 96.4207C174.394 94.3905 173.357 92.5201 171.942 90.9529C170.527 89.3856 168.772 88.1631 166.812 87.379L155.822 82.983L160.996 75.2233C162.131 73.5193 162.737 71.5172 162.737 69.4693V65.6949C162.737 62.9439 161.644 60.3055 159.699 58.3602C157.754 56.4149 155.115 55.322 152.364 55.322C149.613 55.322 146.975 56.4149 145.03 58.3602C143.084 60.3055 141.992 62.9439 141.992 65.6949V69.4693C141.991 71.5172 142.597 73.5193 143.733 75.2233L148.907 82.983L137.917 87.3786C135.957 88.1627 134.202 89.3853 132.787 90.9526C131.372 92.52 130.335 94.3905 129.755 96.4207L124.703 114.102H180.025L174.974 96.4207Z" fill="url(#paint0_linear_17_29517)"/>
<path d="M119.863 87.478L100.5 61.6612L81.1372 87.478L78.3711 85.4034L99.1169 57.7424C99.2779 57.5278 99.4868 57.3535 99.7268 57.2336C99.9669 57.1136 100.232 57.0511 100.5 57.0511C100.768 57.0511 101.033 57.1136 101.273 57.2336C101.513 57.3535 101.722 57.5278 101.883 57.7424L122.629 85.4034L119.863 87.478Z" fill="#BEBEBE"/>
<path d="M50.4992 186.319C49.9191 184.289 48.8819 182.418 47.4671 180.851C46.0523 179.284 44.2974 178.061 42.337 177.277L31.3474 172.881L36.5209 165.122C37.6567 163.418 38.2628 161.416 38.2627 159.368V155.593C38.2627 152.842 37.1698 150.204 35.2245 148.258C33.2792 146.313 30.6408 145.22 27.8898 145.22C25.1387 145.22 22.5003 146.313 20.555 148.258C18.6097 150.204 17.5169 152.842 17.5169 155.593V159.368C17.5168 161.416 18.1228 163.418 19.2587 165.122L24.4321 172.881L13.4425 177.277C11.4821 178.061 9.72717 179.284 8.31236 180.851C6.89754 182.418 5.86038 184.289 5.28035 186.319L0.22876 204H55.5508L50.4992 186.319Z" fill="url(#paint1_linear_17_29517)"/>
<path d="M171.727 135.885L152.364 110.068L133.002 135.885L130.235 133.81L150.981 106.149C151.142 105.935 151.351 105.76 151.591 105.64C151.831 105.52 152.096 105.458 152.364 105.458C152.633 105.458 152.897 105.52 153.137 105.64C153.377 105.76 153.586 105.935 153.747 106.149L174.493 133.81L171.727 135.885ZM67.9981 135.885L48.6354 110.068L29.2727 135.885L26.5066 133.81L47.2524 106.149C47.4134 105.935 47.6223 105.76 47.8623 105.64C48.1024 105.52 48.367 105.458 48.6354 105.458C48.9038 105.458 49.1684 105.52 49.4085 105.64C49.6485 105.76 49.8574 105.935 50.0185 106.149L70.7642 133.81L67.9981 135.885Z" fill="#BEBEBE"/>
<path d="M154.228 186.319C153.648 184.289 152.611 182.418 151.196 180.851C149.781 179.284 148.026 178.061 146.066 177.277L135.076 172.881L140.25 165.122C141.385 163.418 141.992 161.416 141.991 159.368V155.593C141.991 152.842 140.899 150.204 138.953 148.258C137.008 146.313 134.37 145.22 131.619 145.22C128.867 145.22 126.229 146.313 124.284 148.258C122.339 150.204 121.246 152.842 121.246 155.593V159.368C121.246 161.416 121.852 163.418 122.987 165.122L128.161 172.881L117.171 177.277C115.211 178.061 113.456 179.284 112.041 180.851C110.626 182.418 109.589 184.289 109.009 186.319L103.958 204H159.28L154.228 186.319Z" fill="url(#paint2_linear_17_29517)"/>
<defs>
<linearGradient id="paint0_linear_17_29517" x1="20.9746" y1="57.0508" x2="180.025" y2="57.0508" gradientUnits="userSpaceOnUse">
<stop stop-color="#7F00FF"/>
<stop offset="1" stop-color="#E100FF"/>
</linearGradient>
<linearGradient id="paint1_linear_17_29517" x1="0.22876" y1="174.61" x2="55.5508" y2="174.61" gradientUnits="userSpaceOnUse">
<stop stop-color="#7F00FF"/>
<stop offset="1" stop-color="#E100FF"/>
</linearGradient>
<linearGradient id="paint2_linear_17_29517" x1="103.958" y1="174.61" x2="159.28" y2="174.61" gradientUnits="userSpaceOnUse">
<stop stop-color="#7F00FF"/>
<stop offset="1" stop-color="#E100FF"/>
</linearGradient>
</defs>
</svg>
