<svg width="201" height="200" viewBox="0 0 201 200" fill="none" xmlns="http://www.w3.org/2000/svg">
<g clip-path="url(#clip0_17_29578)">
<path d="M198.047 172.371H188.34V73.5117C188.34 68.5859 184.34 64.5664 179.414 64.5664H165.047V16.5C165.047 12.6875 161.934 9.57422 158.102 9.57422H42.8984C39.0859 9.57422 35.9531 12.6875 35.9531 16.5V64.5664H21.5859C16.6602 64.5664 12.6602 68.5859 12.6602 73.5117V172.367H2.95312C1.82031 172.367 0.890625 173.293 0.890625 174.43V175.668C0.890625 183.789 7.50781 190.426 15.6484 190.426H185.352C193.492 190.426 200.109 183.789 200.109 175.668V174.43C200.109 173.297 199.184 172.371 198.047 172.371ZM40.0742 16.5C40.0742 14.9531 41.3516 13.6953 42.8984 13.6953H158.102C159.648 13.6953 160.926 14.9531 160.926 16.5V23.1367H40.0742V16.5ZM40.0742 27.2578H160.926V131.723C160.926 133.27 159.648 134.527 158.102 134.527H42.8984C41.9922 134.527 41.1875 134.094 40.6719 133.414C40.3203 132.941 40.0938 132.363 40.0938 131.723V66.6289L40.0742 66.6094V27.2578ZM37.4141 135.906C38.6719 137.555 40.6484 138.648 42.8984 138.648H158.102C161.934 138.648 165.047 135.535 165.047 131.723V76.1719H176.754V164.887H24.2461V76.1719H35.9531V131.723C35.9531 133.289 36.5078 134.73 37.4141 135.906ZM16.7812 73.5117C16.7812 70.8516 18.9258 68.6875 21.582 68.6875H35.9492V72.0469H22.1836C21.0508 72.0469 20.1211 72.9727 20.1211 74.1094V166.949C20.1211 168.102 21.0469 169.012 22.1836 169.012H178.816C179.949 169.012 180.879 168.105 180.879 166.949V74.1094C180.879 72.9766 179.953 72.0469 178.816 72.0469H165.047V68.6875H179.414C182.051 68.6875 184.219 70.8516 184.219 73.5117V172.367H16.7812V73.5117ZM185.352 186.305H15.6484C10.0625 186.305 5.46484 181.977 5.03125 176.492H195.965C195.535 181.977 190.938 186.305 185.352 186.305ZM117.199 66.4219H147.539C151.574 66.4219 154.855 63.1406 154.855 59.1055V42.4023C154.855 38.3672 151.574 35.0859 147.539 35.0859H117.199C113.164 35.0859 109.883 38.3672 109.883 42.4023V59.1055C109.883 63.1406 113.164 66.4219 117.199 66.4219ZM114.004 42.4023C114.004 40.6406 115.438 39.207 117.199 39.207H147.539C149.301 39.207 150.73 40.6406 150.73 42.4023V59.1055C150.73 60.8672 149.301 62.3008 147.539 62.3008H117.199C115.438 62.3008 114.004 60.8672 114.004 59.1055V42.4023ZM126.438 59.8477C127.055 60.2031 127.727 60.3789 128.402 60.3789C129.078 60.3789 129.754 60.2031 130.367 59.8477L140.215 54.1641C141.445 53.4531 142.18 52.1797 142.18 50.7578C142.18 49.3359 141.441 48.0625 140.215 47.3516L130.367 41.6641C129.137 40.9531 127.664 40.9531 126.434 41.6641C125.203 42.375 124.469 43.6484 124.469 45.0703V56.4414C124.469 57.8633 125.207 59.1367 126.438 59.8477ZM128.594 45.3945L137.969 50.7031L128.594 56.1172V45.3945ZM49.5078 107.609H52.3477C52.7266 108.848 53.2227 110.043 53.8281 111.184L51.8164 113.195C50.7695 114.242 50.7617 115.953 51.8164 117.027L56.5078 121.711C57.5625 122.766 59.2773 122.766 60.3359 121.711L62.3477 119.699C63.4883 120.305 64.6836 120.801 65.9219 121.184V124.023C65.9219 125.516 67.1367 126.734 68.6328 126.734H75.2539C76.75 126.734 77.9648 125.52 77.9648 124.023V121.184C79.2031 120.805 80.3984 120.309 81.5391 119.703L83.5508 121.715C84.6055 122.77 86.3242 122.773 87.3789 121.715L92.0898 117.008C93.1172 115.953 93.1094 114.246 92.0703 113.195L90.0547 111.184C90.6641 110.039 91.1602 108.844 91.5391 107.609H94.3789C95.8711 107.609 97.0898 106.398 97.0898 104.906V98.2774C97.0898 96.7852 95.875 95.5664 94.3789 95.5664H91.5391C91.1602 94.332 90.6641 93.1406 90.0547 91.9961L92.0859 89.9688C93.1133 88.9102 93.1055 87.2031 92.0664 86.1563L87.375 81.4649C86.8672 80.9574 86.1788 80.6724 85.4609 80.6724C84.7431 80.6724 84.0546 80.9574 83.5469 81.4649L81.5352 83.4766C80.3938 82.87 79.1969 82.3742 77.9609 81.9961V79.1524C77.9609 77.6602 76.7461 76.4414 75.25 76.4414H68.6289C67.1367 76.4414 65.918 77.6563 65.918 79.1524V81.9961C64.6836 82.375 63.4922 82.8672 62.3438 83.4766L60.332 81.4649C59.8243 80.9574 59.1358 80.6724 58.418 80.6724C57.7001 80.6724 57.0117 80.9574 56.5039 81.4649L51.8164 86.1524C50.7695 87.1992 50.7578 88.9102 51.8164 89.9883L53.8242 91.9922C53.2179 93.1337 52.7222 94.3305 52.3438 95.5664H49.5039C48.0117 95.5664 46.793 96.7813 46.793 98.2774V104.906C46.7969 106.398 48.0117 107.609 49.5078 107.609ZM50.9219 99.6914H53.9375C54.9062 99.6914 55.7422 99.0195 55.9492 98.0703C56.3633 96.1797 57.1055 94.3984 58.1484 92.7734C58.4024 92.3767 58.513 91.905 58.4618 91.4367C58.4107 90.9685 58.2008 90.5318 57.8672 90.1992L55.7344 88.0703L58.4219 85.3828L60.5586 87.5156C60.8908 87.8487 61.3271 88.0579 61.7948 88.1083C62.2624 88.1588 62.7333 88.0475 63.1289 87.793C64.7656 86.7461 66.5469 86.0078 68.4219 85.6016C68.8823 85.5019 69.2947 85.2475 69.5904 84.8808C69.8861 84.514 70.0472 84.057 70.0469 83.5859V80.5664H73.8438V83.5859C73.8438 84.5547 74.5195 85.3945 75.4688 85.6016C77.3438 86.0078 79.125 86.7461 80.7617 87.7969C81.1584 88.0489 81.6291 88.1583 82.0962 88.1072C82.5634 88.0561 82.9992 87.8474 83.332 87.5156L85.4648 85.3828L88.1523 88.0703L86.0156 90.1992C85.682 90.531 85.4721 90.967 85.4209 91.4347C85.3697 91.9024 85.4804 92.3735 85.7344 92.7695C86.7812 94.4063 87.5234 96.1914 87.9375 98.0703C88.0377 98.5294 88.2918 98.9405 88.6577 99.2353C89.0236 99.5302 89.4793 99.6911 89.9492 99.6914H92.9609V103.488H89.9492C88.9805 103.488 88.1445 104.16 87.9375 105.109C87.5237 106.992 86.7791 108.787 85.7383 110.41C85.4846 110.806 85.3738 111.277 85.4243 111.744C85.4747 112.212 85.6833 112.648 86.0156 112.98L88.1523 115.117L85.4648 117.801L83.3281 115.668C82.6445 114.984 81.5703 114.871 80.7539 115.391C79.1331 116.433 77.3394 117.178 75.457 117.59C74.9986 117.691 74.5884 117.945 74.2943 118.311C74.0002 118.677 73.8399 119.132 73.8398 119.602V122.613H70.043V119.602C70.043 118.633 69.3672 117.797 68.4258 117.59C66.5442 117.177 64.7507 116.434 63.1289 115.395C62.7328 115.139 62.2612 115.028 61.7928 115.078C61.3243 115.129 60.8873 115.338 60.5547 115.672L58.418 117.805L55.7305 115.121L57.8672 112.984C58.5547 112.301 58.668 111.227 58.1445 110.414C57.103 108.793 56.3583 106.999 55.9453 105.117C55.8451 104.658 55.591 104.247 55.2251 103.952C54.8592 103.657 54.4035 103.496 53.9336 103.496H50.918V99.6914H50.9219ZM71.9414 114.793C79.2227 114.793 85.1445 108.867 85.1445 101.59C85.1445 94.3125 79.2188 88.3906 71.9414 88.3906C64.6641 88.3906 58.7383 94.3125 58.7383 101.59C58.7383 108.871 64.6602 114.793 71.9414 114.793ZM71.9414 92.5117C76.9492 92.5117 81.0234 96.582 81.0234 101.59C81.0234 106.598 76.9492 110.672 71.9414 110.672C66.9336 110.672 62.8594 106.598 62.8594 101.59C62.8594 96.586 66.9336 92.5117 71.9414 92.5117ZM136.562 18.418C136.562 19.9414 135.324 21.1797 133.82 21.1797C132.297 21.1797 131.078 19.9414 131.078 18.418C131.078 16.9141 132.293 15.6758 133.82 15.6758C135.324 15.6758 136.562 16.9102 136.562 18.418ZM146.395 18.418C146.395 19.9414 145.156 21.1797 143.652 21.1797C142.129 21.1797 140.91 19.9414 140.91 18.418C140.91 16.9141 142.125 15.6758 143.652 15.6758C145.156 15.6758 146.395 16.9102 146.395 18.418ZM156.227 18.418C156.227 19.9414 154.988 21.1797 153.484 21.1797C152.752 21.1797 152.049 20.8887 151.532 20.3708C151.014 19.8529 150.723 19.1504 150.723 18.418C150.723 16.9141 151.961 15.6758 153.484 15.6758C154.988 15.6758 156.227 16.9102 156.227 18.418ZM101.777 122.031C101.777 120.895 102.699 119.969 103.84 119.969H152.789C153.93 119.969 154.852 120.891 154.852 122.031C154.852 123.168 153.93 124.094 152.789 124.094H103.84C102.699 124.09 101.777 123.168 101.777 122.031ZM152.789 95.9531C153.93 95.9531 154.852 96.875 154.852 98.0156C154.852 99.1524 153.93 100.078 152.789 100.078H129.652C128.512 100.078 127.59 99.1563 127.59 98.0156C127.59 96.8789 128.512 95.9531 129.652 95.9531H152.789ZM109.883 109.961C109.883 108.824 110.805 107.898 111.945 107.898H152.793C153.934 107.898 154.855 108.82 154.855 109.961C154.855 111.098 153.934 112.023 152.793 112.023H111.941C111.395 112.022 110.872 111.804 110.486 111.417C110.1 111.031 109.883 110.507 109.883 109.961ZM48.8594 47.6758H73.3359C74.4766 47.6758 75.3984 46.7539 75.3984 45.6133V37.1484C75.3984 36.0117 74.4766 35.0859 73.3359 35.0859H48.8594C47.7188 35.0859 46.7969 36.0078 46.7969 37.1484V45.6133C46.7969 46.7539 47.7188 47.6758 48.8594 47.6758ZM50.9219 39.2109H71.2734V43.5547H50.9219V39.2109ZM48.8594 68.3555H90.0117C91.1523 68.3555 92.0742 67.4336 92.0742 66.293V57.8281C92.0742 56.6914 91.1523 55.7656 90.0117 55.7656H48.8594C47.7188 55.7656 46.7969 56.6875 46.7969 57.8281V66.293C46.7969 67.4336 47.7188 68.3555 48.8594 68.3555ZM50.9219 59.8906H87.9531V64.2344H50.9219V59.8906ZM128.984 75.5469C127.844 75.5469 126.922 76.4688 126.922 77.6094V86.0742C126.922 87.2109 127.844 88.1367 128.984 88.1367H153.461C154.602 88.1367 155.523 87.2149 155.523 86.0742V77.6094C155.523 76.4727 154.602 75.5469 153.461 75.5469H128.984ZM151.398 84.0117H131.047V79.668H151.398V84.0117Z" fill="url(#paint0_linear_17_29578)"/>
</g>
<defs>
<linearGradient id="paint0_linear_17_29578" x1="0.890625" y1="100" x2="200.109" y2="100" gradientUnits="userSpaceOnUse">
<stop stop-color="#7F00FF"/>
<stop offset="1" stop-color="#E100FF"/>
</linearGradient>
<clipPath id="clip0_17_29578">
<rect width="200" height="200" fill="white" transform="translate(0.5)"/>
</clipPath>
</defs>
</svg>
