<svg width="175" height="176" viewBox="0 0 175 176" fill="none" xmlns="http://www.w3.org/2000/svg">
<path d="M75 31.75H84.375V41.125C84.375 41.9538 84.7042 42.7487 85.2903 43.3347C85.8763 43.9208 86.6712 44.25 87.5 44.25C88.3288 44.25 89.1237 43.9208 89.7097 43.3347C90.2958 42.7487 90.625 41.9538 90.625 41.125V31.75H100C100.829 31.75 101.624 31.4208 102.21 30.8347C102.796 30.2487 103.125 29.4538 103.125 28.625V3.625C103.125 2.7962 102.796 2.00134 102.21 1.41529C101.624 0.829241 100.829 0.5 100 0.5H75C74.1712 0.5 73.3763 0.829241 72.7903 1.41529C72.2042 2.00134 71.875 2.7962 71.875 3.625V28.625C71.875 29.4538 72.2042 30.2487 72.7903 30.8347C73.3763 31.4208 74.1712 31.75 75 31.75ZM78.125 6.75H96.875V25.5H78.125V6.75ZM0 41.125V3.625C0 2.7962 0.329241 2.00134 0.915292 1.41529C1.50134 0.829241 2.2962 0.5 3.125 0.5H40.625C41.4538 0.5 42.2487 0.829241 42.8347 1.41529C43.4208 2.00134 43.75 2.7962 43.75 3.625V39.8313L58.4594 54.5406C60.4594 56.4031 58.9125 59.9594 56.25 59.875C55.8396 59.8754 55.4331 59.7948 55.054 59.6376C54.6748 59.4805 54.3304 59.25 54.0406 58.9594L38.4156 43.3344C37.8338 42.7456 37.5052 41.9527 37.5 41.125V6.75H6.25V38H25C29.1031 38.0719 29.1125 44.175 25 44.25H3.125C2.2962 44.25 1.50134 43.9208 0.915292 43.3347C0.329241 42.7487 0 41.9538 0 41.125ZM171.875 0.5H134.375C133.546 0.5 132.751 0.829241 132.165 1.41529C131.579 2.00134 131.25 2.7962 131.25 3.625V39.8313L116.541 54.5406C116.242 54.8289 116.004 55.1737 115.84 55.555C115.677 55.9362 115.59 56.3463 115.587 56.7612C115.583 57.1762 115.662 57.5877 115.819 57.9717C115.976 58.3558 116.208 58.7047 116.502 58.9981C116.795 59.2915 117.144 59.5236 117.528 59.6807C117.912 59.8378 118.324 59.9169 118.739 59.9133C119.154 59.9097 119.564 59.8235 119.945 59.6597C120.326 59.4959 120.671 59.2578 120.959 58.9594L135.669 44.25H171.875C172.704 44.25 173.499 43.9208 174.085 43.3347C174.671 42.7487 175 41.9538 175 41.125V3.625C175 2.7962 174.671 2.00134 174.085 1.41529C173.499 0.829241 172.704 0.5 171.875 0.5ZM168.75 38H137.5V6.75H168.75V38ZM3.125 175.5H40.625C41.4538 175.5 42.2487 175.171 42.8347 174.585C43.4208 173.999 43.75 173.204 43.75 172.375V136.169L58.4594 121.459C58.7578 121.171 58.9959 120.826 59.1597 120.445C59.3235 120.064 59.4097 119.654 59.4133 119.239C59.4169 118.824 59.3378 118.412 59.1807 118.028C59.0236 117.644 58.7915 117.295 58.4981 117.002C58.2047 116.708 57.8558 116.476 57.4717 116.319C57.0877 116.162 56.6762 116.083 56.2612 116.087C55.8463 116.09 55.4362 116.177 55.055 116.34C54.6737 116.504 54.3289 116.742 54.0406 117.041L39.3313 131.75H3.125C2.2962 131.75 1.50134 132.079 0.915292 132.665C0.329241 133.251 0 134.046 0 134.875V172.375C0 173.204 0.329241 173.999 0.915292 174.585C1.50134 175.171 2.2962 175.5 3.125 175.5ZM6.25 138H37.5V169.25H6.25V138ZM175 134.875V172.375C175 173.204 174.671 173.999 174.085 174.585C173.499 175.171 172.704 175.5 171.875 175.5H134.375C133.546 175.5 132.751 175.171 132.165 174.585C131.579 173.999 131.25 173.204 131.25 172.375V136.169L116.541 121.459C113.65 118.544 118.078 114.178 120.959 117.041L136.584 132.666C137.17 133.252 137.5 134.046 137.5 134.875V169.25H168.75V138H150C145.894 137.928 145.887 131.825 150 131.75H171.875C172.704 131.75 173.499 132.079 174.085 132.665C174.671 133.251 175 134.046 175 134.875ZM171.875 72.375H146.875C146.046 72.375 145.251 72.7042 144.665 73.2903C144.079 73.8763 143.75 74.6712 143.75 75.5V84.875H130.188C126.094 84.9406 126.072 91.0531 130.188 91.125H143.75V100.5C143.75 101.329 144.079 102.124 144.665 102.71C145.251 103.296 146.046 103.625 146.875 103.625H171.875C172.704 103.625 173.499 103.296 174.085 102.71C174.671 102.124 175 101.329 175 100.5V75.5C175 74.6712 174.671 73.8763 174.085 73.2903C173.499 72.7042 172.704 72.375 171.875 72.375ZM168.75 97.375H150V78.625H168.75V97.375ZM3.125 103.625H28.125C28.9538 103.625 29.7487 103.296 30.3347 102.71C30.9208 102.124 31.25 101.329 31.25 100.5V91.125H44.8125C48.9062 91.0594 48.9281 84.9469 44.8125 84.875H31.25V75.5C31.25 74.6712 30.9208 73.8763 30.3347 73.2903C29.7487 72.7042 28.9538 72.375 28.125 72.375H3.125C2.2962 72.375 1.50134 72.7042 0.915292 73.2903C0.329241 73.8763 0 74.6712 0 75.5V100.5C0 101.329 0.329241 102.124 0.915292 102.71C1.50134 103.296 2.2962 103.625 3.125 103.625ZM6.25 78.625H25V97.375H6.25V78.625ZM117.619 71.85C117.506 70.9125 116.894 70.175 116.125 69.6688L89.0625 54.0438C88.5874 53.7695 88.0486 53.6251 87.5 53.6251C86.9514 53.6251 86.4126 53.7695 85.9375 54.0438L58.875 69.6688C57.9219 70.2625 57.3438 71.25 57.3125 72.375V103.625C57.3125 104.174 57.4569 104.712 57.7312 105.187C58.0055 105.662 58.4 106.057 58.875 106.331L85.9375 121.956C86.9281 122.481 88.0719 122.494 89.0625 121.956L116.125 106.331C116.6 106.057 116.995 105.662 117.269 105.187C117.543 104.712 117.687 104.174 117.688 103.625V72.375C117.668 72.1995 117.645 72.0245 117.619 71.85ZM87.5 60.3594L108.312 72.375L87.5 84.3906L66.6875 72.375L87.5 60.3594ZM63.5625 77.7875L84.375 89.8062V113.838L63.5625 101.822V77.7875ZM90.625 113.838V89.8062L111.438 77.7875V101.819L90.625 113.838ZM87.5 131.75C86.6712 131.75 85.8763 132.079 85.2903 132.665C84.7042 133.251 84.375 134.046 84.375 134.875V144.25H75C74.1712 144.25 73.3763 144.579 72.7903 145.165C72.2042 145.751 71.875 146.546 71.875 147.375V172.375C71.875 173.204 72.2042 173.999 72.7903 174.585C73.3763 175.171 74.1712 175.5 75 175.5H100C100.829 175.5 101.624 175.171 102.21 174.585C102.796 173.999 103.125 173.204 103.125 172.375V147.375C103.125 146.546 102.796 145.751 102.21 145.165C101.624 144.579 100.829 144.25 100 144.25H90.625V134.875C90.625 134.046 90.2958 133.251 89.7097 132.665C89.1237 132.079 88.3288 131.75 87.5 131.75ZM96.875 169.25H78.125V150.5H96.875V169.25Z" fill="url(#paint0_linear_17_29511)"/>
<defs>
<linearGradient id="paint0_linear_17_29511" x1="0" y1="88" x2="175" y2="88" gradientUnits="userSpaceOnUse">
<stop stop-color="#7F00FF"/>
<stop offset="1" stop-color="#E100FF"/>
</linearGradient>
</defs>
</svg>
