<svg width="201" height="200" viewBox="0 0 201 200" fill="none" xmlns="http://www.w3.org/2000/svg">
<g clip-path="url(#clip0_17_29528)">
<path d="M62.6581 65.9832C62.2615 65.9837 61.8687 65.9058 61.5023 65.7541C61.1359 65.6023 60.8031 65.3796 60.523 65.0988L48.1968 52.7707C47.9165 52.4904 47.6942 52.1576 47.5426 51.7914C47.391 51.4252 47.313 51.0327 47.3131 50.6363C47.3132 50.2399 47.3914 49.8474 47.5433 49.4813C47.6951 49.1151 47.9176 48.7825 48.198 48.5023C48.7644 47.9365 49.5323 47.6187 50.333 47.6189C51.1336 47.6191 51.9014 47.9373 52.4675 48.5035L64.7937 60.8316C65.2159 61.2538 65.5034 61.7916 65.6198 62.3772C65.7362 62.9627 65.6763 63.5697 65.4477 64.1212C65.2191 64.6727 64.832 65.144 64.3354 65.4755C63.8389 65.8069 63.2551 65.9836 62.6581 65.9832ZM138.342 65.9719C137.746 65.972 137.164 65.7959 136.668 65.4657C136.172 65.1355 135.785 64.666 135.556 64.1163C135.326 63.5666 135.265 62.9614 135.379 62.3767C135.493 61.7921 135.777 61.2542 136.196 60.8309L148.522 48.3793C149.085 47.8103 149.852 47.4883 150.652 47.4841C151.453 47.4799 152.223 47.7939 152.792 48.357C153.073 48.6358 153.298 48.9674 153.451 49.3328C153.605 49.6982 153.685 50.0902 153.687 50.4866C153.689 50.883 153.613 51.2759 153.463 51.6428C153.313 52.0098 153.093 52.3437 152.814 52.6254L140.488 65.077C140.207 65.3609 139.873 65.5862 139.505 65.7398C139.136 65.8935 138.741 65.9723 138.342 65.9719ZM50.332 154.008C49.7348 154.009 49.151 153.832 48.6544 153.5C48.1579 153.168 47.7708 152.697 47.5424 152.145C47.3139 151.594 47.2542 150.986 47.3709 150.401C47.4876 149.815 47.7755 149.277 48.198 148.855L60.5241 136.538C61.0905 135.972 61.8584 135.655 62.6591 135.655C63.4597 135.655 64.2275 135.973 64.7937 136.539C65.0739 136.819 65.2962 137.152 65.4478 137.518C65.5995 137.885 65.6775 138.277 65.6773 138.673C65.6772 139.07 65.599 139.462 65.4472 139.828C65.2954 140.195 65.0729 140.527 64.7925 140.807L52.4663 153.125C52.1863 153.405 51.8536 153.628 51.4873 153.779C51.121 153.931 50.7284 154.009 50.332 154.008ZM150.668 154.154C150.269 154.154 149.873 154.076 149.505 153.922C149.136 153.768 148.802 153.543 148.522 153.259L136.196 140.807C135.917 140.525 135.696 140.191 135.546 139.824C135.397 139.458 135.321 139.065 135.323 138.668C135.325 138.272 135.405 137.88 135.558 137.514C135.712 137.149 135.936 136.817 136.218 136.539C136.787 135.976 137.557 135.662 138.357 135.666C139.158 135.67 139.924 135.992 140.487 136.561L152.814 149.013C153.233 149.436 153.517 149.974 153.631 150.558C153.745 151.143 153.684 151.749 153.454 152.298C153.225 152.848 152.838 153.318 152.342 153.648C151.846 153.978 151.264 154.154 150.668 154.154ZM46.9784 103.831H33.105C32.7046 103.838 32.3069 103.764 31.9351 103.616C31.5633 103.467 31.2248 103.246 30.9394 102.965C30.6539 102.684 30.4273 102.349 30.2725 101.98C30.1178 101.61 30.0381 101.214 30.0381 100.813C30.0381 100.413 30.1178 100.016 30.2725 99.647C30.4273 99.2776 30.6539 98.9428 30.9394 98.6619C31.2248 98.381 31.5633 98.1597 31.9351 98.0109C32.3069 97.8622 32.7046 97.7889 33.105 97.7953H46.9788C47.3792 97.7889 47.7769 97.8622 48.1487 98.011C48.5205 98.1598 48.859 98.3811 49.1444 98.662C49.4298 98.9429 49.6565 99.2778 49.8112 99.6472C49.9659 100.017 50.0456 100.413 50.0456 100.813C50.0455 101.214 49.9658 101.61 49.8111 101.98C49.6563 102.349 49.4296 102.684 49.1441 102.965C48.8587 103.246 48.5202 103.467 48.1484 103.616C47.7765 103.764 47.3789 103.838 46.9784 103.831ZM167.895 103.831H154.021C153.621 103.838 153.223 103.764 152.851 103.616C152.479 103.467 152.141 103.246 151.855 102.965C151.57 102.684 151.343 102.349 151.189 101.98C151.034 101.61 150.954 101.214 150.954 100.813C150.954 100.413 151.034 100.016 151.189 99.647C151.343 99.2776 151.57 98.9428 151.855 98.6619C152.141 98.381 152.479 98.1597 152.851 98.0109C153.223 97.8622 153.621 97.7889 154.021 97.7953H167.895C168.295 97.7889 168.693 97.8622 169.065 98.0109C169.437 98.1597 169.775 98.381 170.06 98.6619C170.346 98.9428 170.573 99.2776 170.727 99.647C170.882 100.016 170.962 100.413 170.962 100.813C170.962 101.214 170.882 101.61 170.727 101.98C170.573 102.349 170.346 102.684 170.06 102.965C169.775 103.246 169.437 103.467 169.065 103.616C168.693 103.764 168.295 103.838 167.895 103.831ZM100.5 171.25C100.104 171.25 99.711 171.172 99.3447 171.02C98.9784 170.869 98.6456 170.646 98.3653 170.366C98.0849 170.086 97.8625 169.753 97.7107 169.387C97.559 169.021 97.4808 168.628 97.4808 168.232V154.355C97.4808 152.689 98.8323 151.338 100.5 151.338C102.168 151.338 103.519 152.689 103.519 154.355V168.232C103.519 168.628 103.441 169.021 103.289 169.387C103.137 169.753 102.915 170.086 102.635 170.366C102.354 170.646 102.021 170.869 101.655 171.02C101.289 171.172 100.896 171.25 100.5 171.25ZM100.5 50.3008C100.104 50.3009 99.711 50.2229 99.3447 50.0713C98.9784 49.9197 98.6456 49.6974 98.3653 49.4171C98.0849 49.1369 97.8625 48.8042 97.7107 48.438C97.559 48.0717 97.4808 47.6792 97.4808 47.2828V33.4063C97.4808 31.7395 98.8323 30.3883 100.5 30.3883C102.168 30.3883 103.519 31.7395 103.519 33.4063V47.2824C103.519 47.6789 103.441 48.0714 103.289 48.4376C103.137 48.8039 102.915 49.1366 102.635 49.4169C102.354 49.6972 102.021 49.9195 101.655 50.0711C101.289 50.2228 100.896 50.3008 100.5 50.3008Z" fill="#CDBEB9"/>
<path fill-rule="evenodd" clip-rule="evenodd" d="M187.59 50.502C193.798 45.2426 197.751 37.3645 197.751 28.6273C197.751 12.8555 184.887 0 169.129 0C153.36 0 140.506 12.8555 140.506 28.6273C140.506 37.3668 144.458 45.2426 150.667 50.502C155.657 54.7273 182.599 54.7301 187.59 50.502Z" fill="url(#paint0_linear_17_29528)"/>
<path fill-rule="evenodd" clip-rule="evenodd" d="M169.129 -1.68093e-06C184.932 -1.68093e-06 197.751 12.8105 197.751 28.6273C197.751 44.4332 184.932 57.2547 169.129 57.2547C166.028 57.2564 162.949 56.7525 160.01 55.7629C171.181 51.8703 179.212 41.2359 179.212 28.7281C179.212 16.1082 171.035 5.39531 159.696 1.58125C162.731 0.533185 165.919 -0.00123616 169.129 -1.68093e-06Z" fill="url(#paint1_linear_17_29528)"/>
<path fill-rule="evenodd" clip-rule="evenodd" d="M161.558 33.6754C155.154 36.5809 150.667 43.0422 150.667 50.502C155.647 54.7086 162.096 57.2551 169.128 57.2551C176.161 57.2551 182.598 54.7086 187.589 50.502C187.589 43.0422 183.103 36.5809 176.699 33.6754H161.558Z" fill="#F2C34E"/>
<path fill-rule="evenodd" clip-rule="evenodd" d="M157.05 24.2637C157.05 28.0664 158.81 31.4543 161.558 33.6754C163.622 35.3469 166.257 36.3453 169.129 36.3453C172 36.3453 174.625 35.3469 176.7 33.6754C179.447 31.4543 181.208 28.0664 181.208 24.2637C181.208 17.5891 175.802 12.1824 169.129 12.1824C162.455 12.1824 157.05 17.5895 157.05 24.2637Z" fill="#FFE5C1"/>
<path fill-rule="evenodd" clip-rule="evenodd" d="M166.101 12.5637C171.305 13.9098 175.141 18.6324 175.141 24.2637C175.141 28.0664 173.391 31.4543 170.643 33.6754H170.632C169.319 34.7297 167.783 35.5262 166.089 35.9527C167.081 36.215 168.103 36.347 169.129 36.3453C172 36.3453 174.625 35.3469 176.7 33.6754C179.447 31.4543 181.208 28.0664 181.208 24.2637C181.208 17.5891 175.802 12.1824 169.129 12.1824C168.086 12.1824 167.065 12.3059 166.101 12.5637Z" fill="#FED1A3"/>
<path fill-rule="evenodd" clip-rule="evenodd" d="M172.37 35.8965C177.54 39.6879 181.051 48.0117 181.197 54.5852C183.5 53.5143 185.65 52.1411 187.59 50.502C187.59 43.0422 183.103 36.5809 176.699 33.6754C175.443 34.6852 173.974 35.459 172.37 35.8965Z" fill="#F2C34E"/>
<path fill-rule="evenodd" clip-rule="evenodd" d="M48.5452 193.095C54.762 187.835 58.7214 179.982 58.7214 171.238C58.7214 155.466 45.8569 142.611 30.0987 142.611C14.3296 142.611 1.47607 155.466 1.47607 171.238C1.47607 179.983 5.4335 187.838 11.6507 193.097C16.6386 197.316 43.5565 197.315 48.5452 193.095Z" fill="url(#paint2_linear_17_29528)"/>
<path fill-rule="evenodd" clip-rule="evenodd" d="M30.0992 142.61C45.9019 142.61 58.7218 155.421 58.7218 171.238C58.7218 187.043 45.9023 199.865 30.0992 199.865C26.9988 199.867 23.9187 199.364 20.9808 198.373C32.1515 194.48 40.171 183.846 40.171 171.338C40.171 158.718 32.0062 148.005 20.6667 144.203C23.6164 143.171 26.7902 142.61 30.0992 142.61Z" fill="url(#paint3_linear_17_29528)"/>
<path fill-rule="evenodd" clip-rule="evenodd" d="M22.517 176.286C16.1127 179.191 11.6377 185.653 11.6377 193.113C16.6174 197.319 23.0553 199.866 30.0986 199.866C37.1311 199.866 43.5686 197.319 48.5596 193.113C48.5596 185.653 44.0732 179.191 37.6689 176.286H22.517Z" fill="#F2C34E"/>
<path fill-rule="evenodd" clip-rule="evenodd" d="M18.0195 166.874C18.0195 170.677 19.7691 174.065 22.5172 176.286C24.6639 178.018 27.3404 178.961 30.0988 178.956C32.8536 178.959 35.526 178.016 37.6695 176.286C40.4172 174.065 42.1781 170.677 42.1781 166.874C42.1781 160.2 36.7609 154.793 30.0988 154.793C23.4258 154.793 18.0195 160.2 18.0195 166.874Z" fill="#FFE5C1"/>
<path fill-rule="evenodd" clip-rule="evenodd" d="M27.0705 155.174C32.2744 156.52 36.1104 161.243 36.1104 166.874C36.1104 170.677 34.3494 174.065 31.6018 176.286C30.266 177.36 28.7181 178.14 27.0596 178.574C28.0354 178.821 29.0447 178.955 30.099 178.955C32.8538 178.958 35.5262 178.016 37.6697 176.286C40.4174 174.064 42.1783 170.677 42.1783 166.874C42.1783 160.199 36.7611 154.793 30.099 154.793C29.0447 154.793 28.035 154.927 27.0705 155.174Z" fill="#FED1A3"/>
<path fill-rule="evenodd" clip-rule="evenodd" d="M33.3401 178.518C38.5104 182.298 42.01 190.622 42.167 197.195C44.4686 196.122 46.6182 194.749 48.56 193.112C48.56 185.652 44.0737 179.191 37.6694 176.286C36.392 177.315 34.9192 178.074 33.3401 178.518Z" fill="#F2C34E"/>
<path fill-rule="evenodd" clip-rule="evenodd" d="M189.091 193.45C195.457 188.193 199.523 180.244 199.523 171.372C199.523 155.611 186.67 142.745 170.901 142.745C155.143 142.745 142.278 155.612 142.278 171.372C142.278 180.125 146.24 187.979 152.459 193.237C157.447 197.454 184.141 197.539 189.091 193.45Z" fill="url(#paint4_linear_17_29528)"/>
<path fill-rule="evenodd" clip-rule="evenodd" d="M170.901 142.745C186.715 142.745 199.523 155.567 199.523 171.372C199.523 187.189 186.715 200 170.901 200C167.715 200 164.653 199.484 161.794 198.519C172.964 194.626 180.984 183.992 180.984 171.484C180.984 158.864 172.819 148.151 161.479 144.337C164.508 143.28 167.693 142.742 170.901 142.745Z" fill="url(#paint5_linear_17_29528)"/>
<path fill-rule="evenodd" clip-rule="evenodd" d="M163.33 176.42C156.926 179.326 152.44 185.798 152.44 193.258C157.431 197.465 163.869 200 170.901 200C177.944 200 184.382 197.465 189.362 193.258C189.362 185.798 184.887 179.326 178.482 176.42H163.33Z" fill="#FDB440"/>
<path fill-rule="evenodd" clip-rule="evenodd" d="M158.821 167.009C158.821 170.812 160.582 174.211 163.33 176.421C165.473 178.151 168.146 179.094 170.901 179.091C173.659 179.096 176.336 178.153 178.482 176.421C179.889 175.289 181.024 173.856 181.803 172.227C182.581 170.598 182.984 168.815 182.98 167.009C182.98 160.346 177.574 154.928 170.901 154.928C164.238 154.927 158.821 160.345 158.821 167.009Z" fill="#FFE5C1"/>
<path fill-rule="evenodd" clip-rule="evenodd" d="M167.873 155.309C173.076 156.655 176.924 161.389 176.924 167.009C176.924 170.811 175.163 174.21 172.415 176.42C171.082 177.499 169.533 178.279 167.873 178.709C168.862 178.962 169.88 179.09 170.901 179.09C173.66 179.095 176.336 178.152 178.483 176.42C179.89 175.289 181.025 173.855 181.803 172.226C182.582 170.597 182.984 168.814 182.98 167.008C182.98 160.345 177.575 154.927 170.901 154.927C169.88 154.928 168.862 155.057 167.873 155.309Z" fill="#FED1A3"/>
<path fill-rule="evenodd" clip-rule="evenodd" d="M174.142 178.653C179.324 182.433 182.823 190.768 182.98 197.341C185.278 196.268 187.424 194.895 189.362 193.258C189.362 185.798 184.887 179.326 178.482 176.42C177.202 177.451 175.725 178.211 174.142 178.653Z" fill="#FE9900"/>
<path fill-rule="evenodd" clip-rule="evenodd" d="M50.3319 50.502C56.5491 45.2426 60.5065 37.3883 60.5065 28.643C60.5065 12.8711 47.6534 0.015625 31.8839 0.015625C16.1257 0.015625 3.26123 12.8711 3.26123 28.643C3.26123 37.3871 7.221 45.2406 13.4378 50.5C18.4269 54.7203 45.3448 54.7211 50.3319 50.502Z" fill="url(#paint6_linear_17_29528)"/>
<path fill-rule="evenodd" clip-rule="evenodd" d="M31.8709 -1.74464e-06C47.685 -1.74464e-06 60.4936 12.8105 60.4936 28.6273C60.4936 44.4332 47.6854 57.2547 31.8709 57.2547C28.7707 57.2555 25.691 56.7516 22.7526 55.7629C33.9346 51.8703 41.9538 41.2359 41.9538 28.7281C41.9538 16.1082 33.7889 5.39531 22.4495 1.58125C25.48 0.53322 28.6643 -0.00121765 31.8709 -1.74464e-06Z" fill="url(#paint7_linear_17_29528)"/>
<path fill-rule="evenodd" clip-rule="evenodd" d="M24.3003 33.6754C17.896 36.5809 13.4097 43.0422 13.4097 50.502C18.4007 54.7086 24.8386 57.2551 31.8706 57.2551C38.9026 57.2551 45.3519 54.7086 50.3315 50.502C50.3315 43.0422 45.8452 36.5809 39.4409 33.6754H24.3003Z" fill="#FDB440"/>
<path fill-rule="evenodd" clip-rule="evenodd" d="M19.7917 24.2637C19.7917 28.0664 21.5527 31.4543 24.3003 33.6754C26.4439 35.4058 29.1162 36.3483 31.871 36.3453C34.7421 36.3453 37.3781 35.3469 39.4417 33.6754C42.1894 31.4543 43.9503 28.0664 43.9503 24.2637C43.9503 17.5891 38.5445 12.1824 31.871 12.1824C25.1976 12.1824 19.7917 17.5895 19.7917 24.2637Z" fill="#FFE5C1"/>
<path fill-rule="evenodd" clip-rule="evenodd" d="M28.8428 12.5637C34.0467 13.9098 37.8939 18.6324 37.8939 24.2637C37.8939 28.0664 36.133 31.4543 33.3854 33.6754C32.0619 34.7297 30.5252 35.5262 28.8432 35.9527C29.8311 36.215 30.8491 36.347 31.8713 36.3453C34.7424 36.3453 37.3783 35.3469 39.442 33.6754C42.1896 31.4543 43.9506 28.0664 43.9506 24.2637C43.9506 17.5891 38.5447 12.1824 31.8713 12.1824C30.8279 12.1824 29.8186 12.3059 28.8428 12.5637Z" fill="#FED1A3"/>
<path fill-rule="evenodd" clip-rule="evenodd" d="M35.1123 35.8965C40.2826 39.6879 43.7932 48.0117 43.9502 54.5852C46.2483 53.5117 48.3941 52.1387 50.3318 50.502C50.3318 43.0422 45.8455 36.5809 39.4412 33.6754C38.1854 34.6852 36.7162 35.459 35.1123 35.8965Z" fill="#FE9900"/>
<path fill-rule="evenodd" clip-rule="evenodd" d="M132.264 143.861C145.448 134.093 154.021 118.423 154.021 100.813C154.021 71.3332 129.975 47.2824 100.5 47.2824C71.025 47.2824 46.9785 71.3332 46.9785 100.813C46.9785 118.423 55.552 134.093 68.7352 143.861C77.6309 150.451 123.369 150.452 132.264 143.861Z" fill="#F8F2F0"/>
<path fill-rule="evenodd" clip-rule="evenodd" d="M83.2725 124.482L97.4154 137.199C99.8154 138.758 101.184 138.758 103.584 137.199L117.727 124.482C116.415 124.112 115.092 123.776 113.813 123.417C110.818 122.609 110.033 118.75 109.416 117.505C108.701 115.266 107.296 109.254 106.197 109.658C102.081 111.195 98.9186 111.195 94.8022 109.658C93.7029 109.254 92.4994 114.386 91.5834 117.505C90.9666 118.75 90.1814 122.609 87.1869 123.417C85.908 123.776 84.5846 124.112 83.2725 124.482Z" fill="#FED1A3"/>
<path fill-rule="evenodd" clip-rule="evenodd" d="M68.7148 140.098V143.889C77.609 150.462 88.6004 154.355 100.5 154.355C112.4 154.355 123.391 150.462 132.285 143.889V140.098C132.285 129.52 125.085 126.547 117.727 124.483L103.584 132.773C101.184 134.332 99.816 134.332 97.4156 132.773L83.2727 124.483C75.9152 126.546 68.7148 129.519 68.7148 140.098Z" fill="#F2C34E"/>
<path fill-rule="evenodd" clip-rule="evenodd" d="M77.7432 97.0891C77.7432 104.302 83.7213 113.141 91.5834 117.505C92.6264 118.077 93.7033 118.582 94.8022 118.986C98.9182 120.523 102.081 120.523 106.197 118.986C107.297 118.582 108.373 118.077 109.416 117.505C117.278 113.141 123.256 104.302 123.256 97.0891V90.134C117.377 88.2594 115.417 78.8281 109.057 80.466C104.145 81.7336 102.328 82.373 100.5 82.373C98.6717 82.373 96.8549 81.7336 91.9424 80.466C85.583 78.8281 84.9502 87.1957 77.7432 90.134V97.0891Z" fill="#FFE5C1"/>
<path fill-rule="evenodd" clip-rule="evenodd" d="M100.5 64.468C89.1158 64.6586 77.7432 73.2289 77.7432 90.134C86.9514 89.4832 85.583 82.45 91.9424 84.0875C96.8549 85.3551 98.6717 85.9945 100.5 85.9945C102.328 85.9945 104.145 85.3551 109.057 84.0875C115.417 82.4496 114.048 89.4832 123.256 90.134C123.256 73.2289 111.884 64.6586 100.5 64.468Z" fill="#6D80AA"/>
<path fill-rule="evenodd" clip-rule="evenodd" d="M111.144 96.3711C111.144 104.538 103.472 114.791 94.0846 118.268C93.894 118.335 93.7147 118.403 93.5237 118.47C93.9499 118.661 94.376 118.829 94.8022 118.986C98.9182 120.523 102.081 120.523 106.198 118.986C107.297 118.582 108.373 118.077 109.416 117.505C117.278 113.141 123.256 104.302 123.256 97.0891V90.134C114.935 89.5508 115.248 83.7512 110.706 83.841C110.998 85.591 111.144 87.4418 111.144 89.4051V96.3711Z" fill="#FED1A3"/>
<path fill-rule="evenodd" clip-rule="evenodd" d="M95.6882 65.0512C102.911 67.609 109.035 73.8684 110.706 83.8406C115.248 83.7508 114.935 89.5504 123.257 90.1336C123.257 73.2285 111.884 64.6582 100.5 64.4676C98.8801 64.4938 97.2674 64.6894 95.6882 65.0512Z" fill="#49679B"/>
<path fill-rule="evenodd" clip-rule="evenodd" d="M123.055 145.83V149.375C126.31 147.865 129.403 146.027 132.285 143.889V140.098C132.285 129.52 125.085 126.547 117.727 124.483L110.695 128.611C116.045 130.024 123.055 131.393 123.055 145.83Z" fill="#F2C34E"/>
<path fill-rule="evenodd" clip-rule="evenodd" d="M91.5836 117.505C91.1238 118.436 90.5629 120.837 89.0488 122.329C89.7763 122.687 90.5212 123.009 91.2809 123.293C95.4082 124.83 100.309 126.232 104.437 124.707C105.267 124.527 105.603 124.056 106.141 125.088C107.173 127.073 108.688 128.105 110.661 128.633L117.727 124.482C116.415 124.112 115.092 123.776 113.813 123.417C110.818 122.609 110.033 118.75 109.416 117.505C108.373 118.077 107.296 118.582 106.198 118.986C102.082 120.523 98.9188 120.523 94.8023 118.986C94.3705 118.828 93.9441 118.656 93.5238 118.47C92.864 118.175 92.2167 117.853 91.5836 117.505Z" fill="#FFBC85"/>
<path fill-rule="evenodd" clip-rule="evenodd" d="M90.3835 48.2359C115.899 52.3191 135.381 74.4293 135.381 101.094C135.381 111.291 132.532 120.826 127.586 128.947C130.401 131.269 132.285 134.691 132.285 140.098V143.889C145.475 134.141 154.021 118.481 154.021 100.813C154.021 71.2547 130.064 47.2824 100.5 47.2824C97.0456 47.2824 93.6585 47.6078 90.3835 48.2359Z" fill="#EEE1DC"/>
<path fill-rule="evenodd" clip-rule="evenodd" d="M33.1047 100.813C33.1047 92.2766 26.1734 85.3555 17.6383 85.3555C9.10313 85.3555 2.17188 92.2766 2.17188 100.813C2.17188 109.361 9.10313 116.282 17.6383 116.282C26.1734 116.282 33.1047 109.361 33.1047 100.813ZM167.895 100.813C167.895 92.2766 174.827 85.3555 183.362 85.3555C191.897 85.3555 198.828 92.277 198.828 100.813C198.828 109.361 191.897 116.282 183.362 116.282C174.827 116.282 167.895 109.361 167.895 100.813ZM100.5 168.232C109.035 168.232 115.966 175.153 115.966 183.689C115.966 192.238 109.035 199.159 100.5 199.159C91.9648 199.159 85.0336 192.237 85.0336 183.689C85.0336 175.153 91.9648 168.232 100.5 168.232ZM100.5 33.4062C109.035 33.4062 115.966 26.4848 115.966 17.9371C115.966 9.40039 109.035 2.4793 100.5 2.4793C91.9648 2.4793 85.0336 9.40078 85.0336 17.9371C85.0336 26.4848 91.9648 33.4062 100.5 33.4062Z" fill="url(#paint8_linear_17_29528)"/>
<path fill-rule="evenodd" clip-rule="evenodd" d="M13.3651 85.95C19.3542 88.0813 23.6386 93.8023 23.6386 100.522C23.6386 107.578 18.9167 113.534 12.4565 115.396C14.1207 115.985 15.8731 116.284 17.6382 116.283C26.1733 116.283 33.1046 109.361 33.1046 100.814C33.1046 92.277 26.1733 85.3559 17.6382 85.3559C16.1577 85.3555 14.7222 85.5574 13.3651 85.95ZM96.2269 3.07383C102.216 5.20508 106.5 10.9262 106.5 17.6457C106.5 24.7129 101.778 30.6582 95.3183 32.5203C96.9825 33.1084 98.7348 33.4082 100.5 33.4066C109.035 33.4066 115.966 26.4852 115.966 17.9375C115.966 9.42344 109.069 2.51328 100.556 2.47969H100.444C99.0172 2.48012 97.5979 2.68011 96.2269 3.07383ZM189.362 100.521C189.362 107.577 184.64 113.534 178.18 115.396C179.844 115.984 181.597 116.284 183.362 116.282C191.897 116.282 198.828 109.361 198.828 100.813C198.828 92.2766 191.897 85.3555 183.362 85.3555C181.881 85.3555 180.446 85.5574 179.089 85.95C185.078 88.0813 189.362 93.8023 189.362 100.521ZM106.5 183.398C106.5 190.454 101.778 196.41 95.3183 198.261C96.9805 198.858 98.7338 199.161 100.5 199.158C109.035 199.158 115.966 192.237 115.966 183.689C115.966 175.152 109.035 168.231 100.5 168.231C99.0194 168.231 97.5839 168.433 96.2269 168.826C102.216 170.957 106.5 176.679 106.5 183.398Z" fill="url(#paint9_linear_17_29528)"/>
</g>
<defs>
<linearGradient id="paint0_linear_17_29528" x1="140.506" y1="26.836" x2="197.751" y2="26.836" gradientUnits="userSpaceOnUse">
<stop stop-color="#7F00FF"/>
<stop offset="1" stop-color="#E100FF"/>
</linearGradient>
<linearGradient id="paint1_linear_17_29528" x1="159.696" y1="28.6273" x2="197.751" y2="28.6273" gradientUnits="userSpaceOnUse">
<stop stop-color="#7F00FF"/>
<stop offset="1" stop-color="#E100FF"/>
</linearGradient>
<linearGradient id="paint2_linear_17_29528" x1="1.47607" y1="169.436" x2="58.7214" y2="169.436" gradientUnits="userSpaceOnUse">
<stop stop-color="#7F00FF"/>
<stop offset="1" stop-color="#E100FF"/>
</linearGradient>
<linearGradient id="paint3_linear_17_29528" x1="20.6667" y1="171.238" x2="58.7218" y2="171.238" gradientUnits="userSpaceOnUse">
<stop stop-color="#7F00FF"/>
<stop offset="1" stop-color="#E100FF"/>
</linearGradient>
<linearGradient id="paint4_linear_17_29528" x1="142.278" y1="169.602" x2="199.523" y2="169.602" gradientUnits="userSpaceOnUse">
<stop stop-color="#7F00FF"/>
<stop offset="1" stop-color="#E100FF"/>
</linearGradient>
<linearGradient id="paint5_linear_17_29528" x1="161.479" y1="171.372" x2="199.523" y2="171.372" gradientUnits="userSpaceOnUse">
<stop stop-color="#7F00FF"/>
<stop offset="1" stop-color="#E100FF"/>
</linearGradient>
<linearGradient id="paint6_linear_17_29528" x1="3.26123" y1="26.8407" x2="60.5065" y2="26.8407" gradientUnits="userSpaceOnUse">
<stop stop-color="#7F00FF"/>
<stop offset="1" stop-color="#E100FF"/>
</linearGradient>
<linearGradient id="paint7_linear_17_29528" x1="22.4495" y1="28.6273" x2="60.4936" y2="28.6273" gradientUnits="userSpaceOnUse">
<stop stop-color="#7F00FF"/>
<stop offset="1" stop-color="#E100FF"/>
</linearGradient>
<linearGradient id="paint8_linear_17_29528" x1="2.17188" y1="100.819" x2="198.828" y2="100.819" gradientUnits="userSpaceOnUse">
<stop stop-color="#7F00FF"/>
<stop offset="1" stop-color="#E100FF"/>
</linearGradient>
<linearGradient id="paint9_linear_17_29528" x1="12.4565" y1="100.819" x2="198.828" y2="100.819" gradientUnits="userSpaceOnUse">
<stop stop-color="#7F00FF"/>
<stop offset="1" stop-color="#E100FF"/>
</linearGradient>
<clipPath id="clip0_17_29528">
<rect width="200" height="200" fill="white" transform="translate(0.5)"/>
</clipPath>
</defs>
</svg>
