<svg width="201" height="200" viewBox="0 0 201 200" fill="none" xmlns="http://www.w3.org/2000/svg">
<path d="M157.082 97.0176H139.949C139.4 96.3554 138.603 95.9093 137.676 95.9093C137.283 95.9092 136.893 95.9866 136.53 96.1371C136.166 96.2875 135.836 96.508 135.558 96.7861C135.28 97.0641 135.06 97.3942 134.909 97.7576C134.759 98.1209 134.681 98.5103 134.682 98.9035V100.491C134.681 100.885 134.759 101.274 134.909 101.637C135.06 102.001 135.28 102.331 135.558 102.609C135.836 102.887 136.166 103.107 136.53 103.258C136.893 103.408 137.283 103.486 137.676 103.486C138.247 103.486 138.75 103.283 139.204 103.006H157.081C158.362 107.081 162.129 110.064 166.621 110.064C172.182 110.064 176.709 105.559 176.709 100.019C176.709 94.4578 172.182 89.9343 166.621 89.9343C162.13 89.934 158.364 92.9277 157.082 97.0176ZM170.72 100.019C170.72 102.256 168.881 104.076 166.621 104.076C164.384 104.076 162.565 102.256 162.565 100.019C162.565 97.7601 164.384 95.9226 166.621 95.9226C168.881 95.9226 170.72 97.7601 170.72 100.019ZM24.3207 129.414C23.0472 125.327 19.2734 122.332 14.771 122.332C9.20972 122.332 4.68628 126.838 4.68628 132.377C4.68628 137.939 9.20972 142.464 14.771 142.464C19.255 142.464 23.0167 139.48 24.3054 135.402H52.6429C53.0853 135.402 53.5223 135.304 53.9222 135.115C54.3222 134.926 54.6752 134.651 54.9558 134.309L63.1636 124.323C63.832 125.033 64.5953 125.663 65.4589 126.17L79.7539 134.412L66.1929 145.544C65.8508 145.825 65.5753 146.178 65.3862 146.579C65.197 146.979 65.099 147.416 65.0992 147.859V176.195C61.0207 177.483 58.0378 181.245 58.0378 185.729C58.0378 191.29 62.5613 195.814 68.1226 195.814C73.6605 195.814 78.1667 191.29 78.1667 185.729C78.1667 181.228 75.173 177.455 71.0878 176.18V149.274L84.8746 137.956C85.0113 137.844 85.0796 137.68 85.1929 137.548L95.3511 143.405C96.0332 143.805 96.7558 144.102 97.4945 144.33V156.59C93.4175 157.884 90.4359 161.66 90.4359 166.16C90.4359 171.699 94.9593 176.207 100.521 176.207C106.059 176.207 110.565 171.699 110.565 166.16C110.565 161.641 107.57 157.852 103.483 156.574V144.343C104.227 144.116 104.955 143.817 105.641 143.415L115.813 137.544C115.926 137.677 115.995 137.842 116.132 137.955L129.893 149.272V176.186C125.818 177.467 122.834 181.236 122.834 185.729C122.834 191.29 127.34 195.814 132.878 195.814C138.439 195.814 142.963 191.29 142.963 185.729C142.963 181.237 139.97 177.47 135.881 176.188V147.859C135.881 147.417 135.783 146.98 135.594 146.58C135.406 146.18 135.131 145.827 134.79 145.546L121.248 134.407L135.524 126.167C136.395 125.663 137.165 125.032 137.839 124.318L146.053 134.31C146.335 134.651 146.688 134.926 147.088 135.115C147.487 135.304 147.924 135.402 148.366 135.402H176.695C177.983 139.48 181.745 142.464 186.23 142.464C191.791 142.464 196.314 137.94 196.314 132.379C196.314 126.839 191.791 122.332 186.23 122.332C181.728 122.332 177.954 125.327 176.68 129.414H149.782L140.604 118.252C140.637 117.922 140.671 117.593 140.671 117.259V114.174C140.671 112.521 139.332 111.18 137.677 111.18C136.021 111.18 134.682 112.521 134.682 114.174V117.259C134.682 118.81 133.875 120.202 132.527 120.983L102.629 138.239C101.325 139.005 99.6996 139.009 98.3601 138.229L68.4679 120.993C67.1464 120.218 66.3246 118.787 66.3246 117.259V82.7355C66.3246 81.2078 67.146 79.7765 68.4472 79.0117L98.3539 61.7687C99.6179 61.0449 101.286 60.9844 102.646 61.7644L132.524 79.009C133.875 79.7925 134.682 81.1843 134.682 82.7355V85.2211C134.682 86.8746 136.021 88.2152 137.676 88.2152C139.331 88.2152 140.67 86.8746 140.67 85.2211V82.7355C140.67 82.4008 140.636 82.0715 140.604 81.7422L149.779 70.6097H176.687C177.969 74.6843 181.736 77.6668 186.229 77.6668C191.791 77.6668 196.314 73.1609 196.314 67.6215C196.314 62.0601 191.791 57.5367 186.229 57.5367C181.736 57.5367 177.969 60.5308 176.687 64.6215H148.366C147.925 64.6211 147.488 64.7188 147.089 64.9074C146.689 65.0959 146.337 65.3708 146.056 65.7121L137.842 75.6801C137.166 74.9644 136.395 74.3304 135.521 73.8246L121.247 65.5859L134.787 54.4488C135.129 54.1681 135.404 53.8151 135.594 53.4152C135.783 53.0152 135.881 52.5783 135.881 52.1359V23.8105C139.969 22.5285 142.963 18.7621 142.963 14.2711C142.963 8.70974 138.439 4.1863 132.878 4.1863C127.34 4.1863 122.834 8.70974 122.834 14.2711C122.834 18.7636 125.818 22.5312 129.893 23.8121V50.7219L116.135 62.0379C115.997 62.1511 115.928 62.3164 115.814 62.45L105.632 56.573C104.948 56.1816 104.223 55.891 103.483 55.6687V43.4265C107.57 42.1535 110.565 38.3797 110.565 33.8781C110.565 28.3168 106.059 23.7933 100.521 23.7933C94.9597 23.7933 90.4363 28.3168 90.4363 33.8781C90.4363 38.3605 93.4179 42.1211 97.4949 43.4105V55.6793C96.764 55.9015 96.0488 56.189 95.3722 56.5773L85.1941 62.4453C85.0808 62.3125 85.0121 62.1488 84.8753 62.0363L71.0886 50.7203V23.8183C75.1738 22.5441 78.1675 18.7711 78.1675 14.2707C78.1675 8.70935 73.6617 4.18591 68.1234 4.18591C62.5621 4.18591 58.0386 8.70935 58.0386 14.2707C58.0386 18.7543 61.0218 22.5156 65.1 23.8039V52.1355C65.0997 52.5782 65.1977 53.0154 65.3869 53.4156C65.576 53.8158 65.8516 54.1691 66.1937 54.45L79.7554 65.5808L65.4394 73.8347C64.5828 74.3375 63.8242 74.964 63.1597 75.6719L54.9539 65.7121C54.6732 65.371 54.3205 65.0962 53.9211 64.9076C53.5217 64.7191 53.0854 64.6213 52.6437 64.6215H24.3128C23.0316 60.5308 19.264 57.5367 14.771 57.5367C9.20972 57.5367 4.68628 62.0601 4.68628 67.6215C4.68628 73.1609 9.20972 77.6668 14.771 77.6668C19.2644 77.6668 23.032 74.6843 24.3128 70.6097H51.2304L60.4023 81.7414C60.3699 82.0711 60.3359 82.4008 60.3359 82.7355V97.0179H43.916C42.6292 92.9281 38.8476 89.9343 34.3382 89.9343C28.7972 89.9343 24.2914 94.4578 24.2914 100.019C24.2914 105.559 28.7972 110.064 34.3382 110.064C38.8488 110.064 42.6308 107.081 43.9167 103.006H60.3355V117.259C60.3355 117.594 60.3695 117.923 60.4019 118.253L51.2273 129.414H24.3207ZM14.771 136.476C12.5109 136.476 10.6746 134.638 10.6746 132.378C10.6746 130.141 12.5109 128.321 14.771 128.321C17.0078 128.321 18.8296 130.141 18.8296 132.378C18.8292 134.638 17.0078 136.476 14.771 136.476ZM68.1222 189.826C65.8621 189.826 64.0257 187.988 64.0257 185.729C64.0257 183.491 65.8621 181.671 68.1222 181.671C70.3589 181.671 72.1777 183.491 72.1777 185.729C72.1781 187.988 70.3593 189.826 68.1222 189.826ZM132.878 189.826C130.641 189.826 128.822 187.988 128.822 185.729C128.822 183.491 130.641 181.671 132.878 181.671C135.138 181.671 136.974 183.491 136.974 185.729C136.974 187.988 135.138 189.826 132.878 189.826ZM186.229 128.321C188.489 128.321 190.325 130.141 190.325 132.379C190.325 134.638 188.489 136.476 186.229 136.476C183.992 136.476 182.17 134.638 182.17 132.379C182.171 130.141 183.992 128.321 186.229 128.321ZM100.52 170.219C98.2601 170.219 96.4238 168.398 96.4238 166.16C96.4238 163.901 98.2601 162.064 100.52 162.064C102.757 162.064 104.576 163.902 104.576 166.16C104.576 168.398 102.757 170.219 100.52 170.219ZM186.229 63.5246C188.489 63.5246 190.325 65.3625 190.325 67.6211C190.325 69.8578 188.489 71.6781 186.229 71.6781C183.992 71.6781 182.17 69.8578 182.17 67.6211C182.171 65.3621 183.992 63.5246 186.229 63.5246ZM132.878 10.1742C135.138 10.1742 136.974 12.0121 136.974 14.2707C136.974 16.5074 135.138 18.3277 132.878 18.3277C130.641 18.3277 128.822 16.5074 128.822 14.2707C128.822 12.0121 130.641 10.1742 132.878 10.1742ZM100.52 29.7812C102.757 29.7812 104.576 31.6191 104.576 33.8777C104.576 36.1144 102.757 37.9347 100.52 37.9347C98.2601 37.9347 96.4238 36.1144 96.4238 33.8777C96.4238 31.6191 98.2601 29.7812 100.52 29.7812ZM68.1222 10.1742C70.3589 10.1742 72.1777 12.0121 72.1777 14.2707C72.1777 16.5074 70.3589 18.3277 68.1222 18.3277C65.8621 18.3277 64.0257 16.5074 64.0257 14.2707C64.0257 12.0121 65.8621 10.1742 68.1222 10.1742ZM14.771 71.6781C12.5109 71.6781 10.6746 69.8578 10.6746 67.6211C10.6746 65.3621 12.5109 63.5246 14.771 63.5246C17.0078 63.5246 18.8296 65.3625 18.8296 67.6211C18.8292 69.8578 17.0078 71.6781 14.771 71.6781ZM34.3382 104.076C32.1015 104.076 30.2796 102.256 30.2796 100.019C30.2796 97.7601 32.1011 95.9226 34.3382 95.9226C36.5984 95.9226 38.4347 97.7605 38.4347 100.019C38.4347 102.256 36.5988 104.076 34.3382 104.076ZM98.0144 79.9894L85.6839 98.3289C85.3522 98.823 85.175 99.4048 85.175 100C85.175 100.595 85.3522 101.177 85.6839 101.671L98.0144 120.009C98.5699 120.836 99.5027 121.332 100.5 121.332C101.497 121.332 102.43 120.836 102.986 120.009L115.316 101.671C115.648 101.177 115.825 100.595 115.825 100C115.825 99.4048 115.648 98.823 115.316 98.3289L102.986 79.9894C101.874 78.3344 99.1257 78.3344 98.0144 79.9894ZM100.5 112.972L91.7777 100L100.5 87.0277L109.222 100L100.5 112.972Z" fill="url(#paint0_linear_17_29571)"/>
<defs>
<linearGradient id="paint0_linear_17_29571" x1="100.5" y1="195.814" x2="100.5" y2="4.18591" gradientUnits="userSpaceOnUse">
<stop stop-color="#3873F4"/>
<stop offset="1" stop-color="#E3547A"/>
</linearGradient>
</defs>
</svg>
