<svg width="201" height="200" viewBox="0 0 201 200" fill="none" xmlns="http://www.w3.org/2000/svg">
<path d="M135.752 104.975C131.444 104.975 127.939 108.48 127.939 112.788C127.939 117.095 131.444 120.6 135.752 120.6C140.06 120.6 143.564 117.095 143.564 112.788C143.564 108.48 140.058 104.975 135.752 104.975Z" fill="url(#paint0_linear_17_29585)"/>
<path d="M171.167 57.8391H155.811L111.697 13.7266C111.334 13.3636 110.904 13.0757 110.43 12.8792C109.956 12.6827 109.448 12.5816 108.935 12.5816C108.422 12.5816 107.914 12.6827 107.44 12.8792C106.967 13.0757 106.536 13.3636 106.174 13.7266L100.184 19.7156L91.0704 10.6047C90.7079 10.2417 90.2774 9.95378 89.8035 9.75731C89.3297 9.56084 88.8217 9.45972 88.3087 9.45972C87.7957 9.45972 87.2877 9.56084 86.8139 9.75731C86.34 9.95378 85.9095 10.2417 85.547 10.6047L49.2423 46.9078C48.8791 47.2704 48.5909 47.701 48.3943 48.175C48.1977 48.649 48.0965 49.1572 48.0965 49.6703C48.0965 50.1835 48.1977 50.6917 48.3943 51.1657C48.5909 51.6397 48.8791 52.0703 49.2423 52.4328L54.6501 57.8406H36.272C35.236 57.8406 34.2424 58.2522 33.5098 58.9848C32.7773 59.7173 32.3657 60.7109 32.3657 61.7469V119.659C28.372 121.445 24.0329 123.011 19.7126 123.85C18.8229 124.023 18.0212 124.501 17.4448 125.2C16.8684 125.9 16.5532 126.778 16.5532 127.684V158.422C16.5595 158.713 17.447 187.419 51.6517 190.527C51.8877 190.545 52.125 190.545 52.361 190.527C73.8501 188.573 82.186 176.52 85.4173 167.738H171.169C178.492 167.738 184.45 161.78 184.45 154.456V71.1203C184.449 63.7969 178.489 57.8391 171.167 57.8391ZM176.636 71.1203V87.5266H166.741V71.1203C166.74 69.2331 166.333 67.3681 165.549 65.6516H171.167C174.181 65.6516 176.636 68.1047 176.636 71.1203ZM176.636 130.236H162.925C162.894 130.234 162.866 130.227 162.834 130.227C162.803 130.227 162.775 130.234 162.744 130.236H130.542C120.922 130.236 113.094 122.408 113.094 112.788C113.094 103.167 120.922 95.3391 130.542 95.3391H162.774C162.795 95.3391 162.813 95.3453 162.834 95.3453C162.856 95.3453 162.874 95.3391 162.895 95.3391H176.636V130.236ZM108.934 22.0125L144.763 57.8391H83.2032L78.1564 52.7922L108.934 22.0125ZM57.5298 49.6688L88.3079 18.8906L94.6579 25.2391L69.8689 50.0297C69.5056 50.3922 69.2175 50.8228 69.0209 51.2969C68.8243 51.7709 68.7231 52.279 68.7231 52.7922C68.7231 53.3054 68.8243 53.8135 69.0209 54.2876C69.2175 54.7616 69.5056 55.1922 69.8689 55.5547L72.1548 57.8406H65.6985L57.5298 49.6688ZM52.0048 182.711C25.2704 180.098 24.3876 159.161 24.3657 158.353V130.798C36.2032 127.73 47.3032 120.777 52.0048 117.57C56.7079 120.777 67.8064 127.731 79.6439 130.798L79.6454 158.266C79.6392 158.508 79.5642 160.222 78.9392 162.636C78.8827 162.8 78.8373 162.967 78.8032 163.138C76.9501 169.733 71.0173 180.853 52.0048 182.711ZM135.752 159.923H87.3235C87.4345 158.978 87.4564 158.402 87.4564 158.353V127.683C87.4564 126.776 87.1412 125.898 86.5648 125.199C85.9884 124.499 85.1867 124.022 84.297 123.848C69.6173 120.995 54.4985 109.773 54.347 109.661C53.6704 109.155 52.8484 108.882 52.0037 108.883C51.1591 108.883 50.3373 109.157 49.661 109.663C49.5845 109.719 45.7892 112.541 40.1782 115.709V65.6516H64.0688L64.0845 65.6532L64.1001 65.6516H81.5439L81.5907 65.6563L81.6376 65.6516H153.459C156.475 65.6516 158.928 68.1047 158.928 71.1203V87.5266H130.542C116.614 87.5266 105.281 98.8594 105.281 112.788C105.281 126.716 116.614 138.048 130.542 138.048H158.928V154.455C158.928 157.47 156.475 159.923 153.459 159.923H135.752ZM171.167 159.923H165.549C166.332 158.207 166.739 156.342 166.741 154.455V138.048H176.636V154.455C176.636 157.469 174.181 159.923 171.167 159.923Z" fill="url(#paint1_linear_17_29585)"/>
<path d="M67.4922 132.936C66.5658 132.473 65.4936 132.397 64.5109 132.723C63.5282 133.05 62.7151 133.753 62.25 134.678L51.2859 156.561L40.9391 146.859C40.1832 146.151 39.1768 145.771 38.1412 145.805C37.1057 145.838 36.1258 146.282 35.4172 147.038C34.7086 147.793 34.3292 148.8 34.3626 149.835C34.396 150.871 34.8394 151.851 35.5953 152.559L49.7609 165.841C50.2047 166.256 50.7392 166.563 51.3221 166.735C51.905 166.908 52.5201 166.942 53.1186 166.835C53.7171 166.729 54.2824 166.484 54.7696 166.12C55.2568 165.756 55.6524 165.284 55.925 164.741L69.2344 138.178C69.6985 137.252 69.7756 136.179 69.4489 135.196C69.1222 134.213 68.4183 133.4 67.4922 132.936Z" fill="url(#paint2_linear_17_29585)"/>
<defs>
<linearGradient id="paint0_linear_17_29585" x1="127.939" y1="112.788" x2="143.564" y2="112.788" gradientUnits="userSpaceOnUse">
<stop stop-color="#7F00FF"/>
<stop offset="1" stop-color="#E100FF"/>
</linearGradient>
<linearGradient id="paint1_linear_17_29585" x1="16.5532" y1="100" x2="184.45" y2="100" gradientUnits="userSpaceOnUse">
<stop stop-color="#7F00FF"/>
<stop offset="1" stop-color="#E100FF"/>
</linearGradient>
<linearGradient id="paint2_linear_17_29585" x1="34.3606" y1="149.71" x2="69.6483" y2="149.71" gradientUnits="userSpaceOnUse">
<stop stop-color="#7F00FF"/>
<stop offset="1" stop-color="#E100FF"/>
</linearGradient>
</defs>
</svg>
