<svg width="168" height="182" viewBox="0 0 168 182" fill="none" xmlns="http://www.w3.org/2000/svg">
<path d="M119.251 95.975C114.944 95.975 111.439 99.4797 111.439 103.787C111.439 108.095 114.944 111.6 119.251 111.6C123.559 111.6 127.064 108.095 127.064 103.787C127.064 99.4797 123.558 95.975 119.251 95.975Z" fill="url(#paint0_linear_202_3)"/>
<path d="M154.667 48.8391H139.311L95.197 4.72655C94.8345 4.36358 94.404 4.07562 93.9301 3.87915C93.4562 3.68269 92.9482 3.58156 92.4353 3.58156C91.9223 3.58156 91.4143 3.68269 90.9404 3.87915C90.4666 4.07562 90.036 4.36358 89.6735 4.72655L83.6845 10.7156L74.5704 1.60468C74.2079 1.2417 73.7774 0.953747 73.3035 0.757279C72.8296 0.560811 72.3217 0.459686 71.8087 0.459686C71.2957 0.459686 70.7877 0.560811 70.3139 0.757279C69.84 0.953747 69.4095 1.2417 69.047 1.60468L32.7423 37.9078C32.3791 38.2703 32.0909 38.7009 31.8943 39.175C31.6977 39.649 31.5965 40.1571 31.5965 40.6703C31.5965 41.1835 31.6977 41.6916 31.8943 42.1656C32.0909 42.6397 32.3791 43.0703 32.7423 43.4328L38.1501 48.8406H19.772C18.736 48.8406 17.7424 49.2522 17.0098 49.9847C16.2773 50.7173 15.8657 51.7109 15.8657 52.7469V110.659C11.872 112.445 7.53291 114.011 3.2126 114.85C2.3229 115.023 1.52116 115.501 0.944758 116.2C0.368358 116.9 0.0531783 117.778 0.0532227 118.684V149.422C0.0594727 149.712 0.94697 178.419 35.1517 181.527C35.3877 181.545 35.625 181.545 35.861 181.527C57.3501 179.573 65.686 167.52 68.9173 158.737H154.669C161.992 158.737 167.95 152.78 167.95 145.456V62.1203C167.949 54.7969 161.989 48.8391 154.667 48.8391ZM160.136 62.1203V78.5265H150.241V62.1203C150.24 60.233 149.833 58.3681 149.049 56.6515H154.667C157.681 56.6515 160.136 59.1047 160.136 62.1203ZM160.136 121.236H146.425C146.394 121.234 146.366 121.227 146.334 121.227C146.303 121.227 146.275 121.234 146.244 121.236H114.042C104.422 121.236 96.5938 113.408 96.5938 103.787C96.5938 94.1672 104.422 86.339 114.042 86.339H146.274C146.295 86.339 146.313 86.3453 146.334 86.3453C146.356 86.3453 146.374 86.339 146.395 86.339H160.136V121.236ZM92.4345 13.0125L128.263 48.8391H66.7032L61.6564 43.7922L92.4345 13.0125ZM41.0298 40.6687L71.8079 9.89062L78.1579 16.2391L53.3689 41.0297C53.0056 41.3922 52.7175 41.8228 52.5209 42.2968C52.3243 42.7709 52.2231 43.279 52.2231 43.7922C52.2231 44.3054 52.3243 44.8135 52.5209 45.2875C52.7175 45.7615 53.0056 46.1921 53.3689 46.5547L55.6548 48.8406H49.1985L41.0298 40.6687ZM35.5048 173.711C8.77041 171.098 7.8876 150.161 7.86572 149.353V121.798C19.7032 118.73 30.8032 111.777 35.5048 108.57C40.2079 111.777 51.3064 118.731 63.1439 121.798L63.1454 149.266C63.1392 149.508 63.0642 151.222 62.4392 153.636C62.3827 153.8 62.3373 153.967 62.3032 154.137C60.4501 160.733 54.5173 171.853 35.5048 173.711ZM119.252 150.923H70.8235C70.9345 149.978 70.9564 149.402 70.9564 149.353V118.683C70.9564 117.776 70.6412 116.898 70.0648 116.199C69.4884 115.499 68.6867 115.022 67.797 114.848C53.1173 111.995 37.9985 100.773 37.847 100.661C37.1704 100.155 36.3484 99.8823 35.5037 99.8826C34.6591 99.8829 33.8373 100.156 33.161 100.662C33.0845 100.719 29.2892 103.541 23.6782 106.709V56.6515H47.5688L47.5845 56.6531L47.6001 56.6515H65.0439L65.0907 56.6562L65.1376 56.6515H136.959C139.975 56.6515 142.428 59.1047 142.428 62.1203V78.5265H114.042C100.114 78.5265 88.7813 89.8594 88.7813 103.787C88.7813 117.716 100.114 129.048 114.042 129.048H142.428V145.455C142.428 148.47 139.975 150.923 136.959 150.923H119.252ZM154.667 150.923H149.049C149.832 149.207 150.239 147.342 150.241 145.455V129.048H160.136V145.455C160.136 148.469 157.681 150.923 154.667 150.923Z" fill="url(#paint1_linear_202_3)"/>
<path d="M50.9924 123.936C50.066 123.473 48.9939 123.397 48.0111 123.723C47.0284 124.05 46.2153 124.753 45.7502 125.678L34.7862 147.561L24.4393 137.859C23.6834 137.151 22.677 136.771 21.6415 136.805C20.6059 136.838 19.6261 137.282 18.9174 138.037C18.2088 138.793 17.8295 139.8 17.8629 140.835C17.8963 141.871 18.3397 142.851 19.0956 143.559L33.2612 156.841C33.7049 157.256 34.2395 157.562 34.8224 157.735C35.4053 157.908 36.0204 157.942 36.6189 157.835C37.2173 157.729 37.7826 157.484 38.2698 157.12C38.757 156.756 39.1526 156.284 39.4252 155.741L52.7346 129.178C53.1987 128.252 53.2759 127.179 52.9492 126.196C52.6224 125.213 51.9186 124.4 50.9924 123.936Z" fill="#F2C34E"/>
<defs>
<linearGradient id="paint0_linear_202_3" x1="111.439" y1="103.787" x2="127.064" y2="103.787" gradientUnits="userSpaceOnUse">
<stop stop-color="#7F00FF"/>
<stop offset="1" stop-color="#E100FF"/>
</linearGradient>
<linearGradient id="paint1_linear_202_3" x1="0.0532227" y1="91.0002" x2="167.95" y2="91.0002" gradientUnits="userSpaceOnUse">
<stop stop-color="#7F00FF"/>
<stop offset="1" stop-color="#E100FF"/>
</linearGradient>
</defs>
</svg>
